<svg width="24" height="28" viewBox="0 0 24 28" fill="none" xmlns="http://www.w3.org/2000/svg">
<path d="M20.2386 20.1143H18.7404L18.7474 19.2441C18.7474 18.8573 19.065 18.541 19.4529 18.541H19.5485C19.9374 18.541 20.2559 18.8573 20.2559 19.2441L20.2386 20.1143ZM14.6191 18.2495C14.239 18.2495 13.9281 18.5049 13.9281 18.8176V23.05C13.9281 23.3621 14.239 23.6169 14.6191 23.6169C15.0007 23.6169 15.3119 23.3621 15.3119 23.05V18.8176C15.3119 18.5046 15.0007 18.2495 14.6191 18.2495ZM23.7454 15.882V23.9336C23.7454 25.8649 22.0707 27.4452 20.0235 27.4452H4.71777C2.66999 27.4452 0.995605 25.8649 0.995605 23.9336V15.882C0.995605 13.9507 2.66999 12.37 4.71777 12.37H20.0235C22.0707 12.37 23.7454 13.9507 23.7454 15.882ZM5.73878 24.8078L5.73756 16.3263L7.63489 16.327V15.0703L2.57717 15.0627V16.2981L4.156 16.3027V24.8078H5.73878ZM11.4262 17.5897H9.84435V22.1187C9.84435 22.7739 9.88409 23.1015 9.84192 23.2171C9.71331 23.5683 9.13516 23.9414 8.90979 23.255C8.87157 23.1349 8.90524 22.7724 8.90463 22.15L8.89826 17.5897H7.32519L7.33005 22.0784C7.33126 22.7663 7.31458 23.2793 7.33551 23.5128C7.37403 23.9245 7.36038 24.4043 7.74227 24.6785C8.45389 25.1912 9.81796 24.6021 10.1592 23.8693L10.1562 24.8044L11.4265 24.8059L11.4262 17.5897ZM16.4867 22.7761L16.4833 19.0066C16.4821 17.57 15.4074 16.7098 13.9487 17.8721L13.9551 15.0696L12.375 15.0721L12.3674 24.7453L13.6669 24.7265L13.7852 24.1241C15.4453 25.6471 16.4891 24.6033 16.4867 22.7761ZM21.4373 22.2765L20.2513 22.2828C20.2507 22.3299 20.2489 22.3841 20.2483 22.4433V23.1052C20.2483 23.4595 19.9556 23.7479 19.6001 23.7479H19.3677C19.0116 23.7479 18.7189 23.4595 18.7189 23.1052V23.0318V22.3038V21.3644H21.4349V20.3421C21.4349 19.595 21.4158 18.8482 21.3539 18.4211C21.1595 17.0701 19.2631 16.8557 18.3051 17.5472C18.0045 17.7632 17.7749 18.0523 17.6414 18.4406C17.5068 18.8291 17.4397 19.3599 17.4397 20.0343V22.2819C17.4403 26.0183 21.9788 25.4902 21.4373 22.2765ZM15.3531 10.0741C15.4347 10.2725 15.5615 10.4332 15.7335 10.5546C15.9034 10.6741 16.1206 10.7342 16.3808 10.7342C16.6089 10.7342 16.8109 10.6726 16.9869 10.5455C17.1622 10.419 17.3099 10.23 17.4306 9.97795L17.4006 10.5986H19.1639V3.09994H17.7758V8.93601C17.7758 9.25208 17.5156 9.51082 17.1974 9.51082C16.881 9.51082 16.6198 9.25208 16.6198 8.93601V3.09994H15.1711V8.15767C15.1711 8.80194 15.183 9.23146 15.2021 9.44925C15.2218 9.66552 15.2715 9.873 15.3531 10.0741ZM10.0097 5.83901C10.0097 5.11921 10.0697 4.55714 10.1889 4.15189C10.3091 3.74816 10.5247 3.4236 10.8371 3.17881C11.1487 2.93281 11.5475 2.80966 12.0326 2.80966C12.4406 2.80966 12.79 2.88973 13.0818 3.04656C13.3751 3.20429 13.6014 3.40904 13.7582 3.66171C13.9181 3.91529 14.0267 4.17585 14.0846 4.44248C14.1438 4.71275 14.1729 5.12042 14.1729 5.67036V7.56678C14.1729 8.26232 14.145 8.77403 14.0907 9.0989C14.037 9.42468 13.9217 9.72679 13.7431 10.0101C13.5671 10.2904 13.3399 10.5 13.0645 10.6337C12.786 10.7687 12.4675 10.8349 12.1078 10.8349C11.7059 10.8349 11.3674 10.7793 11.0883 10.6635C10.8083 10.5482 10.5921 10.3744 10.438 10.1436C10.2824 9.91243 10.1729 9.63094 10.1067 9.30274C10.0403 8.97484 10.0088 8.48162 10.0088 7.82431L10.0097 5.83901ZM11.3907 8.81771C11.3907 9.24238 11.7068 9.58908 12.0917 9.58908C12.477 9.58908 12.7918 9.24238 12.7918 8.81771V4.82589C12.7918 4.40183 12.477 4.05513 12.0917 4.05513C11.7068 4.05513 11.3907 4.40183 11.3907 4.82589V8.81771ZM6.51075 10.8333H8.17421L8.17603 5.0822L10.1416 0.155518H8.32224L7.27727 3.81489L6.21743 0.145508H4.41687L6.50802 5.08493L6.51075 10.8333Z" fill="#6D7772"/>
</svg>
