<svg width="27" height="27" viewBox="0 0 27 27" fill="none" xmlns="http://www.w3.org/2000/svg">
<g clipPath="url(#clip0)">
<path d="M17.9756 0.145508H8.25011C3.77475 0.145508 0.145508 3.77475 0.145508 8.25011V17.9756C0.145508 22.451 3.77475 26.0802 8.25011 26.0802H17.9756C22.451 26.0802 26.0802 22.451 26.0802 17.9756V8.25011C26.0802 3.77475 22.451 0.145508 17.9756 0.145508ZM23.6488 17.9756C23.6488 21.104 21.104 23.6488 17.9756 23.6488H8.25011C5.12173 23.6488 2.57689 21.104 2.57689 17.9756V8.25011C2.57689 5.12173 5.12173 2.57689 8.25011 2.57689H17.9756C21.104 2.57689 23.6488 5.12173 23.6488 8.25011V17.9756Z" fill="#6D7772"/>
<path d="M13.1131 6.62939C9.53246 6.62939 6.62939 9.53246 6.62939 13.1131C6.62939 16.6937 9.53246 19.5968 13.1131 19.5968C16.6937 19.5968 19.5968 16.6937 19.5968 13.1131C19.5968 9.53246 16.6937 6.62939 13.1131 6.62939ZM13.1131 17.1654C10.8794 17.1654 9.06077 15.3467 9.06077 13.1131C9.06077 10.8778 10.8794 9.06077 13.1131 9.06077C15.3467 9.06077 17.1654 10.8778 17.1654 13.1131C17.1654 15.3467 15.3467 17.1654 13.1131 17.1654Z" fill="#6D7772"/>
<path d="M20.0827 7.00671C20.5598 7.00671 20.9467 6.6199 20.9467 6.14276C20.9467 5.66561 20.5598 5.27881 20.0827 5.27881C19.6056 5.27881 19.2188 5.66561 19.2188 6.14276C19.2188 6.6199 19.6056 7.00671 20.0827 7.00671Z" fill="#6D7772"/>
</g>
<defs>
<clipPath id="clip0">
<rect width="25.9347" height="25.9347" fill="white" transform="translate(0.145508 0.145508)"/>
</clipPath>
</defs>
</svg>
