<svg width="207" height="208" viewBox="0 0 207 208" fill="none" xmlns="http://www.w3.org/2000/svg">
<circle cx="2.50692" cy="2.86141" r="2.50692" fill="#D5D8B8"/>
<circle cx="36.171" cy="2.86141" r="2.50692" fill="#D5D8B8"/>
<circle cx="69.835" cy="2.86141" r="2.50692" fill="#D5D8B8"/>
<circle cx="103.501" cy="2.86141" r="2.50692" fill="#D5D8B8"/>
<circle cx="137.165" cy="2.86141" r="2.50692" fill="#D5D8B8"/>
<circle cx="170.829" cy="2.86141" r="2.50692" fill="#D5D8B8"/>
<circle cx="204.493" cy="2.86141" r="2.50692" fill="#D5D8B8"/>
<circle cx="2.50692" cy="36.5255" r="2.50692" fill="#D5D8B8"/>
<circle cx="36.171" cy="36.5255" r="2.50692" fill="#D5D8B8"/>
<circle cx="69.835" cy="36.5255" r="2.50692" fill="#D5D8B8"/>
<circle cx="103.501" cy="36.5255" r="2.50692" fill="#D5D8B8"/>
<circle cx="137.165" cy="36.5255" r="2.50692" fill="#D5D8B8"/>
<circle cx="170.829" cy="36.5255" r="2.50692" fill="#D5D8B8"/>
<circle cx="204.493" cy="36.5255" r="2.50692" fill="#D5D8B8"/>
<circle cx="2.50692" cy="70.1905" r="2.50692" fill="#D5D8B8"/>
<circle cx="36.171" cy="70.1905" r="2.50692" fill="#D5D8B8"/>
<circle cx="69.835" cy="70.1905" r="2.50692" fill="#D5D8B8"/>
<circle cx="103.501" cy="70.1905" r="2.50692" fill="#D5D8B8"/>
<circle cx="137.165" cy="70.1905" r="2.50692" fill="#D5D8B8"/>
<circle cx="170.829" cy="70.1905" r="2.50692" fill="#D5D8B8"/>
<circle cx="204.493" cy="70.1905" r="2.50692" fill="#D5D8B8"/>
<circle cx="2.50692" cy="103.855" r="2.50692" fill="#D5D8B8"/>
<circle cx="36.171" cy="103.855" r="2.50692" fill="#D5D8B8"/>
<circle cx="69.835" cy="103.855" r="2.50692" fill="#D5D8B8"/>
<circle cx="103.501" cy="103.855" r="2.50692" fill="#D5D8B8"/>
<circle cx="137.165" cy="103.855" r="2.50692" fill="#D5D8B8"/>
<circle cx="170.829" cy="103.855" r="2.50692" fill="#D5D8B8"/>
<circle cx="204.493" cy="103.855" r="2.50692" fill="#D5D8B8"/>
<circle cx="2.50692" cy="137.519" r="2.50692" fill="#D5D8B8"/>
<circle cx="36.171" cy="137.519" r="2.50692" fill="#D5D8B8"/>
<circle cx="69.835" cy="137.519" r="2.50692" fill="#D5D8B8"/>
<circle cx="103.501" cy="137.519" r="2.50692" fill="#D5D8B8"/>
<circle cx="137.165" cy="137.519" r="2.50692" fill="#D5D8B8"/>
<circle cx="170.829" cy="137.519" r="2.50692" fill="#D5D8B8"/>
<circle cx="204.493" cy="137.519" r="2.50692" fill="#D5D8B8"/>
<circle cx="2.50692" cy="171.183" r="2.50692" fill="#D5D8B8"/>
<circle cx="36.171" cy="171.183" r="2.50692" fill="#D5D8B8"/>
<circle cx="69.835" cy="171.183" r="2.50692" fill="#D5D8B8"/>
<circle cx="103.501" cy="171.183" r="2.50692" fill="#D5D8B8"/>
<circle cx="137.165" cy="171.183" r="2.50692" fill="#D5D8B8"/>
<circle cx="170.829" cy="171.183" r="2.50692" fill="#D5D8B8"/>
<circle cx="204.493" cy="171.183" r="2.50692" fill="#D5D8B8"/>
<circle cx="2.50692" cy="204.848" r="2.50692" fill="#D5D8B8"/>
<circle cx="36.171" cy="204.848" r="2.50692" fill="#D5D8B8"/>
<circle cx="69.835" cy="204.848" r="2.50692" fill="#D5D8B8"/>
<circle cx="103.501" cy="204.848" r="2.50692" fill="#D5D8B8"/>
<circle cx="137.165" cy="204.848" r="2.50692" fill="#D5D8B8"/>
<circle cx="170.829" cy="204.848" r="2.50692" fill="#D5D8B8"/>
<circle cx="204.493" cy="204.848" r="2.50692" fill="#D5D8B8"/>
</svg>
