<svg width="30" height="25" viewBox="0 0 30 25" fill="none" xmlns="http://www.w3.org/2000/svg">
<path d="M29.1801 3.02212C28.1441 3.53139 26.9989 3.81431 25.7993 3.98406C26.9989 3.24845 27.9258 2.06017 28.3622 0.64555C27.2715 1.32457 26.0174 1.83383 24.6542 2.11675C23.5637 0.928475 22.0913 0.192871 20.401 0.192871C17.1838 0.192871 14.5664 2.90895 14.5664 6.24745C14.5664 6.70012 14.6209 7.20939 14.73 7.60548C9.82243 7.37915 5.51466 5.00258 2.62465 1.32457C2.13389 2.17334 1.86125 3.24844 1.86125 4.38015C1.86125 6.4738 2.89728 8.3411 4.47861 9.41621C3.49711 9.35961 2.62465 9.13329 1.80672 8.68059V8.73718C1.80672 11.6796 3.82428 14.1128 6.49618 14.6786C6.00542 14.7918 5.51466 14.9049 4.96937 14.9049C4.58768 14.9049 4.20597 14.8483 3.8788 14.7918C4.6422 17.2249 6.76882 18.979 9.33167 18.979C7.3141 20.62 4.8058 21.5818 2.07936 21.5818C1.58861 21.5818 1.15238 21.5818 0.661621 21.5253C3.22447 23.2229 6.3326 24.2415 9.60431 24.2415C20.401 24.2415 26.2901 14.9615 26.2901 6.98304C26.2901 6.70012 26.2901 6.4738 26.2901 6.19085C27.3806 5.34209 28.3622 4.26698 29.1801 3.02212Z" fill="#6D7772"/>
</svg>
