<svg width="156" height="80" viewBox="0 0 156 80" fill="none" xmlns="http://www.w3.org/2000/svg">
<path fill-rule="evenodd" clip-rule="evenodd" d="M38.7276 8.69615C33.9903 12.4007 30.1786 17.7028 27.7276 23.9969C27.5376 24.5366 27.4676 25.3399 27.6776 25.2521C55.3676 13.9554 52.2376 67.7653 26.1076 60.7614C25.4776 69.372 24.6076 73.3132 22.6076 78.6729C22.4676 79.062 22.0776 79.3884 21.8276 79.2879C21.6929 79.2381 21.5781 79.1265 21.5059 78.9754C21.4336 78.8243 21.4093 78.6447 21.4376 78.4721C22.2776 72.7108 23.0376 66.9494 19.4976 60.3471C16.9076 55.5649 6.99757 57.3096 3.61757 52.4646C-5.72243 38.9838 4.33757 17.018 18.8176 26.7458C17.3076 20.3066 15.9976 10.2651 18.9976 0.801018C19.0576 0.581228 19.1491 0.377047 19.2676 0.198528C19.6076 -0.265892 20.4176 0.198528 20.8876 0.437014C21.9976 0.87633 22.7176 1.81772 23.8176 2.26959C24.4976 3.18588 23.2876 4.05196 23.4876 5.58329C24.3876 4.10216 24.9676 2.19428 25.7976 0.562533C27.5193 1.19659 29.0291 2.51874 30.0976 4.3281C29.2676 6.83847 28.1776 9.11036 27.4476 11.7839C29.0476 9.46182 32.5976 5.25694 35.9976 3.51223C37.3076 4.21513 38.7676 8.0058 38.7276 8.69615Z" fill="white"/>
<path d="M130.478 61.1877C130.698 60.4596 130.828 59.8069 131.058 59.0287C131.198 58.5141 131.308 57.9869 131.428 57.4723C131.658 56.4681 131.868 55.464 132.128 54.4724C132.388 53.4808 133.488 48.9621 133.598 48.3973C133.708 47.8324 133.858 47.1421 133.918 46.9538C134.298 45.6108 134.318 45.2342 134.658 43.6903C134.838 42.8996 135.228 41.0544 135.268 40.8285C135.358 40.339 135.778 38.5441 136.058 37.6278C136.218 37.1006 136.358 36.6236 136.528 36.109C136.659 35.6787 136.813 35.2594 136.988 34.8538C137.208 34.3517 137.218 34.2639 137.938 34.2764C138.288 34.2504 138.64 34.2714 138.988 34.3392C139.178 34.5149 139.198 35.0672 139.268 35.5191C139.398 36.3349 139.458 37.1508 139.578 37.9667C139.698 38.7825 139.678 39.2219 139.758 40.2386C139.758 40.8034 139.858 41.4938 139.898 41.9707C139.938 42.4477 139.898 42.6987 139.898 43C139.918 43.418 139.918 43.8372 139.898 44.2552C139.898 44.6819 139.978 45.1715 139.988 45.6108C140.058 47.2174 140.088 47.8952 140.208 49.0249C140.268 49.6148 140.278 50.2173 140.308 50.8198C140.358 51.8114 140.308 52.4641 140.408 53.4557C140.508 54.4473 140.408 55.1502 140.518 56.2297C140.646 57.6969 140.709 59.1719 140.708 60.6479C140.708 62.4052 140.868 63.7231 140.908 65.4804C140.908 66.4343 140.978 67.4008 141.048 68.3548C141.048 68.8066 141.048 69.2585 141.158 70.4258C141.218 71.2668 141.248 71.5681 141.248 71.8568C141.248 72.1454 140.748 71.9948 140.248 71.9948H138.958H138.788C138.608 71.907 138.618 71.6559 138.588 71.2417C138.528 69.9865 138.508 69.2334 138.468 67.9657C138.428 66.6979 138.368 64.8654 138.348 63.6729C138.328 62.4805 138.248 61.9408 138.218 60.5726C138.218 60.1584 138.158 59.0036 138.138 58.0622C138.138 55.9159 138.058 56.0037 138.038 54.8238C138.038 53.8448 137.888 53.4431 137.838 51.4474C137.838 50.4056 137.718 49.4893 137.668 48.4726C137.598 46.8785 137.558 46.6902 137.528 45.9622V44.9455C137.528 44.343 137.528 44.2301 137.478 43.6903C137.496 43.4776 137.496 43.2629 137.478 43.0502C137.478 42.774 137.478 42.7238 137.388 42.6987C137.298 42.6736 137.258 43.1632 137.218 43.364C136.938 44.8577 136.818 45.3221 136.408 47.1295C136.188 48.1588 135.988 48.7989 135.718 50.0165C135.448 51.234 135.298 51.7737 135.008 52.8658C134.898 53.28 134.468 55.0749 134.368 55.4891C134.088 56.6313 134.058 56.9326 133.758 58.0748L133.568 58.8781C133.448 59.33 132.958 61.5517 132.478 63.3591C132.288 64.1122 132.108 64.7775 131.878 65.5306C131.748 65.9448 131.278 66.1456 130.878 66.221C130.479 66.3277 130.066 66.3277 129.668 66.221C129.502 66.1469 129.354 66.022 129.237 65.8575C129.12 65.693 129.038 65.4943 128.998 65.2796C128.858 64.6394 128.638 64.1499 128.498 63.5098C128.318 62.6562 128.138 62.4679 127.748 60.8613C127.678 60.5852 127.378 59.3927 127.278 59.0162C127.178 58.6396 126.998 58.012 126.918 57.761C126.758 57.2966 126.338 55.7025 125.798 53.8323C125.588 52.9411 125.308 51.9369 125.028 51.0708C124.748 50.2048 124.578 49.6274 124.348 48.9119L123.998 47.7069C123.788 46.9538 123.598 46.4517 123.358 45.661C123.248 45.297 122.818 43.8786 122.678 43.5397C122.678 44.0167 122.598 45.0961 122.588 45.435C122.518 46.5396 122.488 47.6316 122.418 48.7362C122.418 48.8868 122.418 49.1002 122.418 49.2508C122.418 50.1043 122.288 50.8951 122.258 51.9746C122.258 52.8281 122.168 53.8448 122.128 54.6983C122.088 55.5519 122.128 56.0665 122.078 56.7945C122.078 58.1752 121.898 59.5434 121.898 60.5601C121.898 62.8947 121.748 63.8235 121.658 65.8193C121.568 67.815 121.538 68.7941 121.418 70.9907C121.44 71.3079 121.388 71.6264 121.268 71.907C121.158 72.1329 120.658 72.0576 120.428 72.0576C119.934 72.0898 119.439 72.0688 118.948 71.9948C118.788 71.8568 118.948 71.6308 118.948 71.0785C118.948 70.0116 119.128 68.4552 119.168 67.5013C119.228 66.1331 119.338 64.7649 119.398 63.6102C119.458 62.4554 119.518 61.9659 119.538 60.9617C119.538 60.7232 119.538 60.0831 119.538 59.8446C119.538 59.2547 119.608 58.5894 119.638 58.0246C119.638 57.1208 119.708 56.7694 119.748 55.3761C119.748 54.7109 119.818 54.1209 119.828 53.4055C119.938 51.7612 119.958 50.5186 120.008 49.0123C120.008 48.322 120.098 47.5563 120.138 46.8785C120.198 45.9371 120.198 45.1338 120.248 44.205C120.308 42.9498 120.338 42.3222 120.418 40.5524C120.488 39.5608 120.568 38.6696 120.628 38.042C120.738 36.8747 120.818 36.4353 120.878 35.6697C120.938 34.904 121.058 34.6906 121.318 34.5024C121.575 34.3442 121.863 34.2831 122.148 34.3266C122.316 34.3137 122.485 34.3349 122.648 34.3894C123.058 34.5651 123.178 35.4563 123.328 35.8956C123.478 36.3349 123.458 36.4856 123.638 37.1508C123.728 37.4646 123.818 37.9039 123.958 38.406C124.098 38.9081 124.228 39.3599 124.358 39.7867C124.488 40.2135 124.638 41.0419 124.808 41.6193C124.978 42.1967 125.018 42.41 125.198 42.9749C125.378 43.5397 125.768 44.933 125.798 45.0585C125.968 45.6108 126.178 46.3137 126.358 46.8158C127.038 49.05 127.678 51.1838 127.748 51.3846C127.928 51.9495 128.008 52.4264 128.178 52.9913C128.348 53.5561 128.548 54.2465 128.748 54.987C129.098 56.1418 129.338 57.1585 129.748 58.6396C129.928 59.217 130.278 60.5224 130.478 61.1877Z" fill="white"/>
<path d="M77.2876 36.6739C77.2876 36.8873 77.2876 37.1132 77.1476 37.1509L76.2976 37.2136C75.3068 37.2001 74.3229 37.4216 73.3976 37.8663C72.9101 38.0802 72.4464 38.3712 72.0176 38.7324C71.6176 39.1134 71.2954 39.6081 71.0776 40.1759C70.8015 40.7802 70.5961 41.4312 70.4676 42.1089C70.237 43.2204 70.0798 44.3539 69.9976 45.4979C69.9976 46.2259 69.8176 47.3807 69.7776 48.1087C69.7076 49.4894 69.6276 51.2215 69.6176 52.6148C69.6076 54.0081 69.6176 55.3637 69.6176 56.7444C69.6176 57.9368 69.6976 58.9159 69.7676 60.1083C69.7676 60.7359 69.9276 62.217 70.0276 63.309C70.0936 64.4006 70.3533 65.4599 70.7876 66.4093C71.033 66.8847 71.3368 67.3083 71.6876 67.6645C72.0449 68.1204 72.4943 68.4459 72.9876 68.6059C73.8304 68.821 74.6967 68.8507 75.5476 68.6938C75.9831 68.6225 76.4141 68.5135 76.8376 68.3674C77.1876 68.2419 77.2876 68.882 77.4276 69.2963C77.5676 69.7105 77.5276 69.7481 77.5976 70.0117C77.6769 70.2548 77.7372 70.5071 77.7776 70.7648C77.7776 70.9155 77.8776 71.0159 77.7776 71.0912C77.1009 71.5005 76.374 71.7636 75.6276 71.8694C74.6917 72.0254 73.7435 72.0254 72.8076 71.8694C72.4115 71.8042 72.0203 71.6993 71.6376 71.5556C70.4733 71.0149 69.4827 70.0095 68.8176 68.6938C68.3576 67.7455 68.0201 66.7118 67.8176 65.6311C67.5929 64.1655 67.4624 62.6796 67.4276 61.1877C67.4276 60.7359 67.4276 59.9326 67.3676 59.5058C67.3676 58.6523 67.2976 58.2506 67.2776 57.5854C67.2776 57.2213 67.2776 56.9201 67.2776 56.5561C67.2776 56.1921 67.2776 55.7151 67.2776 55.3009C67.2776 55.0875 67.2776 53.3554 67.2776 52.4516C67.2776 51.7613 67.3276 51.0458 67.2776 50.3304C67.2776 49.891 67.2776 49.4768 67.2776 49.0752C67.2776 48.3472 67.3876 47.1673 67.4476 46.4393C67.5076 45.7113 67.5476 44.8577 67.6276 43.9289C67.7076 43.0001 67.8976 41.657 68.0176 40.9918C68.1273 40.4608 68.2677 39.9407 68.4376 39.4353C68.5976 38.9835 68.8076 38.5441 68.9976 38.1048C69.2174 37.6888 69.4579 37.2905 69.7176 36.9124C70.0688 36.3656 70.5041 35.9131 70.9976 35.5819C72.7078 34.551 74.6077 34.1174 76.4976 34.3267C76.8676 34.3267 76.9876 34.6405 77.0976 35.1175C77.2076 35.5945 77.2176 36.2346 77.2876 36.6739Z" fill="white"/>
<path d="M91.6475 70.0122C91.6475 69.6733 91.4775 68.1796 91.4275 67.7905C91.2575 66.5353 91.1875 65.7069 91.0475 64.4266C90.9375 63.435 90.7875 62.4811 90.6975 61.4769C90.5675 60.0209 90.3875 58.4896 90.2675 57.0335C90.1475 55.5775 90.0375 54.2094 89.8975 52.791C89.7275 51.0714 89.5475 49.3643 89.3475 47.6447C89.2275 46.5653 89.1275 45.6239 88.9975 44.5444C88.8675 43.4649 88.7475 42.3729 88.6375 41.3562C88.5275 40.3395 88.2475 38.8459 88.1275 37.7789C88.0075 36.712 87.9375 35.6577 87.7875 34.9297C87.7875 34.7665 87.6075 34.4276 87.4875 34.4025C86.785 34.2845 86.0755 34.2467 85.3675 34.2895C84.7775 34.2895 84.6075 34.5155 84.4975 35.1179C84.3875 35.7204 84.3375 36.3731 84.2175 37.2769C84.1475 37.7664 84.0475 38.5321 83.9975 38.9839C83.8975 39.9881 83.8275 40.5404 83.6875 41.4943C83.6875 41.8834 83.5775 42.3478 83.5175 42.7495C83.4575 43.1512 83.3575 43.8164 83.3075 44.1051C83.1875 44.7703 82.8975 46.7284 82.7975 47.6196C82.6975 48.5108 82.4475 50.2555 82.4275 50.4187C82.3675 51.0714 82.3175 51.6739 82.2475 52.3642C82.213 53.0501 82.1294 53.7306 81.9975 54.3976C81.8175 55.0754 81.6075 57.134 81.5475 57.4603C81.4375 58.1256 81.3575 58.8661 81.2475 59.5188C81.1375 60.1715 80.8775 62.0292 80.8175 62.4685C80.7075 63.3346 80.2575 66.3972 80.1375 67.2257C79.9375 68.4809 79.7675 69.5854 79.6375 70.4641C79.5337 70.9354 79.47 71.4193 79.4475 71.9075C79.5775 72.0958 80.2475 72.033 80.7575 72.033C81.5475 72.033 81.7575 72.033 81.8975 71.5184C82.0875 70.5143 82.2675 69.3344 82.4375 67.9035C82.5375 67.0374 82.6775 66.2341 82.7775 65.3931C82.8573 64.7185 82.9743 64.0516 83.1275 63.3973L84.7275 63.5103C86.2175 63.6107 88.4775 63.6107 88.4775 63.6107C88.5296 63.8016 88.5632 63.9997 88.5775 64.2007C88.5775 64.6776 88.6675 65.1546 88.7075 65.6316C88.7475 66.1085 88.7975 66.711 88.8575 67.2508C89.0275 68.9578 89.1275 70.1377 89.2975 71.5184C89.2975 71.9703 89.4075 72.0581 89.6675 72.0707C89.9275 72.0832 90.8275 72.0707 91.0075 72.0707C91.6075 72.0707 91.9275 72.1962 91.8375 71.5059C91.7775 71.167 91.7075 70.4515 91.6475 70.0122ZM88.2775 60.5857C87.2775 60.5857 86.0875 60.5104 85.0275 60.4351C84.4998 60.4373 83.9724 60.4038 83.4475 60.3347C83.4674 59.7552 83.531 59.1794 83.6375 58.6151C83.8775 56.5817 84.1175 54.9499 84.3375 53.0922C84.5775 51.0212 84.8275 48.9376 85.0975 46.8163C85.2375 45.7745 85.3875 44.4817 85.5375 43.352C85.5375 43.239 85.8875 41.5822 86.0475 40.6031C86.0531 40.5357 86.0727 40.4712 86.1043 40.4162C86.1358 40.3611 86.1783 40.3174 86.2275 40.2893C86.2875 40.2893 86.3675 40.2893 86.4375 40.7286C86.5575 41.6449 86.6775 43.1009 86.7575 44.0298C86.8675 45.3854 87.1875 48.7367 87.2675 49.3141C87.3475 49.8915 87.5675 52.3391 87.6075 52.8412C88.2575 60.4602 88.2275 59.4937 88.2775 60.5857Z" fill="white"/>
<path d="M65.7976 70.0122C65.7976 69.6733 65.6176 68.1796 65.5676 67.7905C65.3976 66.5353 65.3276 65.7069 65.1876 64.4266C65.0776 63.435 64.9276 62.4811 64.8376 61.4769C64.7076 60.0209 64.5276 58.4896 64.4076 57.0335C64.2876 55.5775 64.1776 54.2094 64.0376 52.791C63.8676 51.0714 63.6876 49.3643 63.4976 47.6447C63.3676 46.5653 63.2676 45.6239 63.1376 44.5444C63.0076 43.465 62.8976 42.3729 62.7776 41.3562C62.6576 40.3395 62.3976 38.8459 62.2676 37.7789C62.1376 36.712 62.0776 35.6577 61.9376 34.9297C61.9376 34.7665 61.7476 34.4276 61.6276 34.4025C60.9251 34.2845 60.2155 34.2467 59.5076 34.2895C58.9276 34.2895 58.7476 34.5155 58.6376 35.1179C58.5276 35.7204 58.4876 36.3731 58.3576 37.2769C58.2876 37.7664 58.1876 38.5321 58.1376 38.9839C58.0376 39.9881 57.9676 40.5404 57.8276 41.4943C57.8276 41.8834 57.7176 42.3478 57.6576 42.7495C57.5976 43.1512 57.4976 43.8164 57.4476 44.1051C57.3276 44.7703 57.0376 46.7284 56.9376 47.6196C56.8376 48.5108 56.5876 50.2555 56.5776 50.4187C56.5076 51.0714 56.4576 51.6739 56.3876 52.3642C56.3415 53.0386 56.2478 53.7065 56.1076 54.36C55.9276 55.0378 55.7176 57.0963 55.6576 57.4227C55.5476 58.0879 55.4676 58.8285 55.3576 59.4812C55.2476 60.1339 54.9876 61.9915 54.9276 62.4309C54.8176 63.2969 54.3676 66.3596 54.2476 67.188C54.0476 68.4432 53.8776 69.5478 53.7476 70.4264C53.6438 70.8978 53.5801 71.3816 53.5576 71.8699C53.6876 72.0582 54.3576 71.9954 54.8676 71.9954C55.6576 71.9954 55.9176 71.9954 56.0076 71.4808C56.1976 70.4766 56.3776 69.2967 56.5476 67.8658C56.6476 66.9997 56.7876 66.1964 56.8976 65.3554C56.9718 64.6806 57.0855 64.0136 57.2376 63.3597L58.8376 63.4727C60.3376 63.5731 62.5876 63.5731 62.5876 63.5731C62.6397 63.764 62.6733 63.962 62.6876 64.163C62.7376 64.64 62.7776 65.117 62.8176 65.5939C62.8576 66.0709 62.9076 66.6734 62.9676 67.2131C63.1476 68.9202 63.2376 70.1001 63.4076 71.4808C63.4576 71.9326 63.5176 72.0205 63.7776 72.0331C64.0376 72.0456 64.9376 72.0331 65.1176 72.0331C65.7176 72.0331 66.0376 72.1586 65.9476 71.4682C65.9176 71.167 65.8476 70.4515 65.7976 70.0122ZM62.4176 60.5857C61.4176 60.5857 60.2276 60.5104 59.1676 60.4351C58.6432 60.4376 58.1191 60.4041 57.5976 60.3347C57.6047 59.7547 57.6651 59.1777 57.7776 58.6151C58.0176 56.5817 58.2576 54.9499 58.4776 53.0923C58.7176 51.0212 58.9676 48.9376 59.2376 46.8163C59.3776 45.7745 59.5276 44.4817 59.6876 43.352C59.6876 43.239 60.0276 41.5822 60.1876 40.6031C60.1932 40.5357 60.2128 40.4712 60.2444 40.4162C60.2759 40.3611 60.3184 40.3174 60.3676 40.2893C60.4376 40.2893 60.5176 40.2893 60.5776 40.7286C60.6976 41.6449 60.8176 43.1009 60.8976 44.0298C61.0076 45.3854 61.3276 48.7367 61.4076 49.3141C61.4876 49.8915 61.7076 52.3391 61.7576 52.8412C62.3976 60.4602 62.3676 59.4937 62.4176 60.5857Z" fill="white"/>
<path d="M149.387 49.1258C149.717 47.8706 149.937 47.2054 150.137 46.4146C150.417 45.3853 150.507 44.9962 150.787 43.9042C151.117 42.649 151.287 42.1595 151.437 41.3938C151.637 40.465 151.997 39.2098 152.127 38.6073C152.327 37.6785 152.647 36.3982 152.737 36.0969C152.849 35.4912 153.021 34.9051 153.247 34.3522C153.247 34.2769 153.347 34.2393 153.707 34.2393H155.417C155.747 34.2393 155.567 34.528 155.417 35.4944C155.267 36.4609 154.987 37.3772 154.557 39.26C154.127 41.1428 153.937 41.7704 153.557 43.4523C153.057 45.3728 152.877 46.6656 152.397 48.6112C151.917 50.5567 151.557 52.0253 151.177 53.4938C151.162 53.7948 151.162 54.0966 151.177 54.3976C151.177 55.7783 151.177 55.7783 151.177 57.159C151.177 57.8368 151.177 58.1757 151.177 58.8409C151.177 59.0292 151.177 59.707 151.177 59.8953C151.146 60.5767 151.146 61.2598 151.177 61.9413C151.237 62.9705 151.177 63.573 151.287 65.3303C151.397 67.0875 151.477 69.3971 151.487 71.1292C151.487 71.7819 151.607 72.0706 151.247 72.0455H149.847C149.586 72.0851 149.321 72.0595 149.067 71.9702C148.99 71.5593 148.956 71.1372 148.967 70.715C148.887 68.9703 148.867 67.2382 148.797 65.5311C148.797 64.6023 148.797 64.5646 148.727 63.1337C148.727 62.3304 148.677 61.389 148.647 60.6233C148.647 59.092 148.517 58.2636 148.487 56.7322C148.487 55.8913 148.487 55.6151 148.397 54.862C148.397 54.862 148.007 53.6068 147.727 52.9165C147.197 51.5985 147.107 51.2847 146.727 50.2429C146.347 49.2011 145.787 48.0338 145.367 46.9292L145.117 46.1886C144.907 45.5987 144.717 44.9335 144.527 44.3937C144.397 44.0046 144.257 43.6908 144.077 43.2641C143.967 43.0256 143.957 42.8498 143.877 42.649C143.797 42.4482 143.587 42.0465 143.487 41.7202C142.947 40.0633 142.887 39.6617 142.487 38.4818C142.106 37.4826 141.772 36.4557 141.487 35.4066C141.367 34.9547 141.137 34.4652 141.597 34.3773C142.1 34.3271 142.605 34.3271 143.107 34.3773C143.657 34.3773 143.897 34.2769 144.037 34.6911C144.337 35.5949 144.637 36.348 144.967 37.2768C145.077 37.5906 145.427 38.532 145.517 38.7956C145.592 39.0407 145.679 39.2797 145.777 39.511C145.841 39.6773 145.895 39.8493 145.937 40.0257C146.019 40.5068 146.176 40.9631 146.397 41.3687C146.542 41.6837 146.669 42.0108 146.777 42.3478C147.167 43.4649 147.527 44.582 147.947 45.674C148.346 46.8756 148.827 48.0306 149.387 49.1258Z" fill="white"/>
<path d="M105.717 58.1632C105.717 57.4352 105.847 54.7742 105.847 54.5231C105.847 53.77 105.727 53.1048 105.687 52.2889C105.617 50.745 105.597 49.1258 105.447 47.8706C105.289 46.7118 105.058 45.5703 104.757 44.4565C104.667 44.1302 104.597 43.7536 104.517 43.4147C104.334 42.4646 104.045 41.5518 103.657 40.7035C103.235 39.8266 102.763 38.9877 102.247 38.1931C101.597 37.1393 100.767 36.2816 99.8175 35.6828C99.3656 35.3532 98.8943 35.0678 98.4075 34.8292C98.0278 34.6127 97.628 34.4567 97.2175 34.3648C96.8866 34.3012 96.5522 34.2718 96.2175 34.2769C95.5375 34.2769 95.0875 34.2769 94.7175 34.779C94.3475 35.2811 94.3375 36.4108 94.3475 37.44C94.3475 38.1304 94.3475 38.8458 94.3475 39.3102C94.3475 40.2265 94.3475 43.4398 94.3475 43.854C94.2875 46.6154 94.3475 48.3853 94.3475 49.8036C94.3475 50.3057 94.3475 51.8119 94.3475 52.063C94.4075 53.5943 94.3475 54.2219 94.3475 55.8285C94.3475 56.6821 94.3475 57.9121 94.3475 58.7657C94.3475 59.2552 94.3475 62.4559 94.3475 62.5312C94.3475 63.7864 94.3475 64.8408 94.3475 66.1462C94.3475 66.7738 94.3475 68.2925 94.3475 68.8072C94.3113 69.5512 94.3113 70.2973 94.3475 71.0414C94.3643 71.326 94.4682 71.5914 94.6375 71.782C94.9905 72.0005 95.3871 72.0835 95.7775 72.0204C96.3415 72.0511 96.9066 72.026 97.4675 71.9451C98.1116 71.805 98.7331 71.5336 99.3075 71.1418C99.6275 70.9535 100.307 70.4264 100.677 70.1377C101.237 69.7075 101.763 69.2116 102.247 68.6565C102.929 67.8497 103.491 66.8978 103.907 65.8449C104.45 64.6167 104.85 63.2982 105.097 61.9287C105.36 60.689 105.567 59.4319 105.717 58.1632ZM103.437 53.6194C103.437 54.4729 103.437 55.088 103.437 56.5063C103.396 57.8869 103.259 59.2603 103.027 60.6108C102.901 61.6059 102.672 62.5763 102.347 63.4977C102.037 64.2912 101.64 65.0264 101.167 65.6817C100.608 66.6154 99.8906 67.3826 99.0675 67.9285C98.4104 68.3904 97.7166 68.7648 96.9975 69.0457C96.7875 69.1335 96.7575 69.0456 96.7575 68.7444C96.7575 67.8156 96.8175 66.4098 96.7575 65.6692C96.6975 64.9286 96.7575 63.8868 96.7575 63.1588C96.7575 62.1798 96.7575 61.1505 96.7575 60.184C96.7575 58.9916 96.7575 58.0502 96.7575 56.8703C96.7575 55.954 96.7575 54.7491 96.7575 53.8328C96.7575 52.6906 96.7575 52.1508 96.7575 51.0086C96.7575 50.5693 96.7575 49.0631 96.6975 48.6363C96.6975 47.1301 96.6975 46.9167 96.6975 45.6615C96.6975 44.6322 96.6975 44.08 96.6975 42.9126C96.6975 42.4984 96.7775 41.2809 96.7775 40.8667C96.7775 39.9127 96.8575 37.3647 96.8575 37.3647C97.8021 37.5405 98.7058 37.9685 99.5075 38.6199C100.33 39.2733 101.015 40.1642 101.507 41.2181C101.658 41.478 101.789 41.7554 101.897 42.0466C102.175 42.706 102.406 43.3948 102.587 44.1051C102.817 44.9962 102.937 45.8749 103.097 46.7786C103.203 47.3542 103.283 47.9367 103.337 48.5233C103.447 49.6279 103.447 50.2555 103.527 51.5483C103.377 51.6487 103.437 52.7282 103.437 53.6194Z" fill="white"/>
<path d="M110.848 68.6935C111.06 68.7569 111.28 68.7781 111.498 68.7562C112.45 68.8341 113.405 68.8341 114.358 68.7562C114.999 68.6745 115.646 68.6745 116.288 68.7562C116.618 69.1328 116.458 69.1328 116.478 70.0867C116.478 70.2499 116.478 71.1787 116.478 71.3419C116.478 71.5051 116.478 71.9821 116.258 71.9695C116.038 71.9569 115.258 71.8816 114.938 71.9067C114.068 71.9067 112.748 71.9067 112.198 71.9067C111.968 71.9067 111.028 71.9067 110.798 71.9067C110.047 71.9563 109.295 71.9311 108.548 71.8314C108.368 71.5427 108.548 71.4298 108.408 71.0783C108.333 69.8835 108.333 68.6833 108.408 67.4885C108.408 67.1119 108.408 61.7523 108.338 60.3967C108.338 60.2711 108.338 60.1958 108.338 60.1456V60.0076C108.338 59.8946 108.338 59.8569 108.338 59.6812C108.418 58.5264 108.338 55.765 108.338 55.4763C108.408 54.7734 108.448 51.3342 108.458 50.6815C108.468 50.0288 108.458 45.8867 108.458 45.3344C108.396 44.0804 108.396 42.8228 108.458 41.5688C108.458 41.2174 108.388 38.3556 108.358 37.8033C108.306 37.1019 108.306 36.396 108.358 35.6946C108.358 35.2678 108.278 34.6025 108.548 34.4394C108.818 34.2762 109.138 34.1507 109.868 34.2134C109.938 34.2134 111.718 34.2134 111.778 34.2134C112.628 34.1507 114.128 34.2134 114.548 34.2134C115.158 34.2134 116.168 34.2134 116.768 34.2134C117.088 34.2134 116.998 35.067 116.968 35.5439C116.968 35.7197 116.968 37.1506 116.868 37.2384C116.597 37.3029 116.319 37.3029 116.048 37.2384C115.598 37.2384 114.578 37.2384 114.238 37.1757C113.298 37.1187 112.355 37.1397 111.418 37.2384C111.028 37.2384 110.948 37.2384 110.988 37.7907C111.028 38.343 110.988 38.5564 110.988 39.0459C110.988 39.3221 110.988 40.025 111.048 40.389C111.048 41.0417 111.048 42.2843 111.048 43.0123C111.048 43.7403 111.148 46.2381 111.188 47.1168C111.188 47.644 111.188 48.5853 111.188 49.1125C111.188 49.2255 111.188 49.351 111.188 49.464C111.188 49.9033 111.188 49.9033 111.588 49.9158C111.988 49.9284 114.408 50.0288 114.958 49.9158C115.099 49.8818 115.244 49.8831 115.385 49.9197C115.525 49.9564 115.659 50.0276 115.778 50.1292C115.908 50.3552 115.778 50.8823 115.868 51.9367C115.868 52.1375 115.868 52.9785 115.748 53.0664C115.228 53.101 114.707 53.101 114.188 53.0664C113.648 53.0664 112.998 53.0664 112.458 53.0036C112.087 53.0705 111.712 53.104 111.338 53.104C111.128 53.104 111.028 53.1793 111.048 53.4429C111.048 54.1709 110.988 55.288 111.048 56.0286C111.048 56.3424 111.048 63.3464 111.048 63.9739C111.048 65.1413 111.048 66.2961 111.048 67.4634C110.909 67.8498 110.841 68.2699 110.848 68.6935Z" fill="white"/>
<path d="M56.5776 21.6251C56.5776 21.4117 56.5776 19.8553 56.5776 19.6419C56.5776 19.4285 56.6276 17.2821 56.5776 16.9809C56.5626 16.6297 56.5626 16.2777 56.5776 15.9265C56.5776 15.4495 56.4976 12.9266 56.5776 12.7383C56.5776 12.0731 56.5076 10.1527 56.5176 9.85141C56.5276 9.55016 56.5176 9.22382 56.5176 8.89747C56.5176 8.57112 56.5176 8.18201 56.6176 8.00628C56.6871 7.90934 56.7773 7.83961 56.8776 7.80545C57.2356 7.68329 57.6074 7.63663 57.9776 7.66738C58.4561 7.664 58.9264 7.82457 59.3376 8.1318C59.7935 8.48765 60.1689 8.98473 60.4276 9.57527C60.7378 10.3746 60.879 11.2608 60.8376 12.1484C60.8006 12.8802 60.6332 13.5923 60.3476 14.232C60.1927 14.702 59.9649 15.1286 59.6776 15.4872C59.6025 15.5969 59.5107 15.6865 59.4076 15.7508L59.6576 15.9516C59.9693 16.2429 60.2455 16.5896 60.4776 16.9809C60.8525 17.6042 61.1121 18.3246 61.2376 19.0896C61.3923 19.8571 61.4729 20.6451 61.4776 21.4368C61.4826 22.2821 61.3175 23.1154 60.9976 23.8593C60.8272 24.2006 60.6183 24.5093 60.3776 24.7756C60.2027 24.9721 60.0116 25.1446 59.8076 25.2902C59.5991 25.4421 59.3777 25.5642 59.1476 25.6542C58.8471 25.7739 58.5327 25.8291 58.2176 25.8174H56.9976C56.9276 25.8174 56.5676 25.8174 56.5476 25.4408C56.5476 25.353 56.5476 24.4492 56.5476 24.3363C56.5476 24.2233 56.5776 21.7757 56.5776 21.6251ZM57.7176 24.2484C57.7876 24.2484 58.3976 24.2484 58.4676 24.2484C58.8977 24.1518 59.2929 23.8884 59.5976 23.4953C59.9192 23.0359 60.0844 22.4365 60.0576 21.8259C60.0576 21.5247 60.0576 21.0728 60.0576 20.7715C60.0451 20.0879 59.9368 19.4123 59.7376 18.7758C59.6023 18.3022 59.3835 17.8731 59.0976 17.5206L58.6976 16.9934C58.6428 16.9249 58.5784 16.8695 58.5076 16.8303C58.4195 16.7809 58.3241 16.7552 58.2276 16.7549H57.6476C57.6476 16.9683 57.6476 17.2068 57.6476 17.3951C57.6476 18.1357 57.5876 18.8135 57.6476 19.554C57.7076 20.2946 57.6476 20.8092 57.6476 21.487C57.6976 22.3907 57.6476 23.2694 57.7176 24.2484ZM57.7176 15.3366C57.873 15.3026 58.0242 15.2435 58.1676 15.1609C58.6747 14.7385 59.0548 14.1156 59.2476 13.391C59.4112 12.9423 59.4931 12.4535 59.4876 11.9601C59.5075 11.3707 59.4221 10.7831 59.2376 10.2405C59.0193 9.83252 58.7045 9.52081 58.3376 9.34933C58.0676 9.18616 57.6576 9.34933 57.6476 9.71334C57.6376 10.0773 57.6476 10.7426 57.6476 11.1191C57.6476 11.4957 57.6476 12.0982 57.6476 12.5124C57.6476 13.1275 57.6476 13.9182 57.6476 14.7466C57.7076 14.9224 57.6776 15.073 57.6876 15.3366H57.7176Z" fill="white"/>
<path d="M63.9976 24.2222C64.1004 24.2406 64.2048 24.2406 64.3076 24.2222C64.7669 24.2657 65.2282 24.2657 65.6876 24.2222C65.9966 24.1783 66.3086 24.1783 66.6176 24.2222C66.7776 24.398 66.6976 24.398 66.7076 24.8624C66.7076 24.9377 66.7076 25.3896 66.7076 25.4774C66.7076 25.5653 66.7076 25.7912 66.5976 25.7787C66.4876 25.7661 66.1176 25.7787 65.9676 25.7787C65.5476 25.7787 64.9076 25.7787 64.6476 25.7787C64.3876 25.7787 64.0776 25.7787 63.9676 25.7787C63.608 25.8097 63.2472 25.8097 62.8876 25.7787C62.7976 25.6406 62.8876 25.5778 62.8176 25.4147C62.7828 24.8381 62.7828 24.2591 62.8176 23.6825C62.8176 23.5068 62.8176 20.9211 62.8176 20.2684C62.8243 20.227 62.8243 20.1843 62.8176 20.1429C62.8176 20.1429 62.8176 20.0676 62.8176 19.9923C62.8176 19.4274 62.8176 18.0969 62.8176 17.9588C62.8176 17.6199 62.8676 15.9631 62.8776 15.6493C62.8876 15.3355 62.8776 13.3398 62.8776 13.0762C62.8507 12.4825 62.8507 11.8874 62.8776 11.2938C62.8776 11.1181 62.8776 9.74992 62.8776 9.48633C62.8518 9.1482 62.8518 8.80775 62.8776 8.46963C62.8776 8.25624 62.8776 7.94245 62.9676 7.85458C63.0576 7.76672 63.2476 7.70396 63.5976 7.74162H64.5176C64.9276 7.74162 65.6476 7.74162 65.8576 7.74162C66.0676 7.74162 66.6376 7.74162 66.9276 7.74162C67.2176 7.74162 67.0376 8.15583 67.0276 8.38176C67.0176 8.6077 67.0276 9.15998 67.0276 9.19764C67.0276 9.23529 66.7476 9.19764 66.6276 9.19764C66.5076 9.19764 65.9176 9.19764 65.7576 9.19764C65.3049 9.15458 64.8503 9.15458 64.3976 9.19764C64.2076 9.19764 64.1776 9.19764 64.1876 9.46123C64.1976 9.72482 64.1876 9.82523 64.1876 10.0637C64.1876 10.3022 64.1876 10.5407 64.1876 10.7164C64.1876 10.8921 64.1876 11.6327 64.1876 11.9716C64.1876 12.3105 64.1876 13.528 64.2576 13.9422C64.3276 14.3565 64.2576 14.6577 64.2576 14.9087C64.1614 14.9351 64.0721 14.9912 63.9976 15.0719C63.9976 15.2853 63.9976 15.2853 64.1976 15.2979C64.3976 15.3104 65.5576 15.2979 65.8176 15.2979C65.9562 15.2644 66.0998 15.3004 66.2176 15.3983C66.2776 15.5112 66.2176 15.7623 66.2176 16.2643C66.2176 16.3648 66.2176 16.7664 66.1576 16.8166C66.0976 16.8668 65.5976 16.8166 65.4076 16.8166C65.1311 16.8354 64.854 16.8354 64.5776 16.8166C64.3979 16.8363 64.2172 16.8363 64.0376 16.8166C63.9376 16.8166 63.8876 16.8166 63.8976 16.9924C63.8976 17.3438 63.8976 17.871 63.8976 18.2475C63.8976 18.3982 63.8976 21.7746 63.8976 22.0131C63.8976 22.5654 63.8976 23.1302 63.8976 23.6825C63.9113 23.8673 63.9449 24.0489 63.9976 24.2222Z" fill="white"/>
<path d="M69.2176 24.2222C69.3204 24.2406 69.4248 24.2406 69.5276 24.2222C69.987 24.2657 70.4483 24.2657 70.9076 24.2222C71.2166 24.1783 71.5286 24.1783 71.8376 24.2222C71.9976 24.398 71.9176 24.398 71.9276 24.8624C71.9276 24.9377 71.9276 25.3896 71.9276 25.4774C71.9276 25.5653 71.9276 25.7912 71.8176 25.7787C71.7076 25.7661 71.3376 25.7787 71.1876 25.7787C70.7676 25.7787 70.1276 25.7787 69.8576 25.7787C69.7476 25.7787 69.2976 25.7787 69.1876 25.7787C68.8281 25.8097 68.4672 25.8097 68.1076 25.7787C68.0176 25.6406 68.1076 25.5778 68.0376 25.4147C67.9979 24.8384 67.9979 24.2588 68.0376 23.6825C68.0376 23.5068 68.0376 20.9211 68.0376 20.2684C68.034 20.2267 68.034 20.1846 68.0376 20.1429C68.0376 20.1429 68.0376 20.0676 68.0376 19.9923C68.0376 19.4274 68.0376 18.0969 68.0376 17.9588C68.0376 17.6199 68.0876 15.9631 68.0976 15.6493C68.1076 15.3355 68.0976 13.3398 68.0976 13.0762C68.0656 12.4827 68.0656 11.8872 68.0976 11.2938C68.0976 11.1181 68.0976 9.74992 68.0976 9.48633C68.0715 9.14822 68.0715 8.80773 68.0976 8.46963C68.0976 8.25624 68.0976 7.94245 68.1876 7.85458C68.2776 7.76672 68.4776 7.70396 68.8276 7.74162H69.7476C70.1576 7.74162 70.8776 7.74162 71.0776 7.74162C71.2776 7.74162 71.8676 7.74162 72.1576 7.74162C72.4476 7.74162 72.2676 8.15583 72.2476 8.38176C72.2276 8.6077 72.2476 9.15998 72.2476 9.19764C72.2476 9.23529 71.9676 9.19764 71.8476 9.19764C71.7276 9.19764 71.1376 9.19764 70.9676 9.19764C70.5183 9.15488 70.067 9.15488 69.6176 9.19764C69.4276 9.19764 69.3876 9.19764 69.4076 9.46123C69.4276 9.72482 69.4076 9.82523 69.4076 10.0637C69.4076 10.3022 69.4076 10.5407 69.4076 10.7164C69.4076 10.8921 69.4076 11.6327 69.4076 11.9716C69.4076 12.3105 69.4076 13.528 69.4776 13.9422C69.5476 14.3565 69.4776 14.6577 69.4776 14.9087C69.4776 14.9087 69.4776 15.0217 69.4776 15.0719C69.4776 15.1221 69.4776 15.2853 69.6676 15.2979C69.8576 15.3104 71.0376 15.2979 71.2976 15.2979C71.3647 15.2802 71.4338 15.28 71.5009 15.2972C71.568 15.3145 71.6316 15.3489 71.6876 15.3983C71.7576 15.5112 71.6876 15.7623 71.7376 16.2643C71.7376 16.3648 71.7376 16.7664 71.6776 16.8166C71.6176 16.8668 71.1176 16.8166 70.9276 16.8166C70.6478 16.8354 70.3674 16.8354 70.0876 16.8166C69.9113 16.8363 69.7339 16.8363 69.5576 16.8166C69.4476 16.8166 69.4076 16.8166 69.4076 16.9924C69.4076 17.3438 69.4076 17.871 69.4076 18.2475C69.4076 18.3982 69.4076 21.7746 69.4076 22.0131C69.4076 22.5654 69.4076 23.1302 69.4076 23.6825C69.3138 23.8429 69.2489 24.0271 69.2176 24.2222Z" fill="white"/>
<path d="M87.8476 7.642H88.1376C88.5578 7.66553 88.9639 7.83977 89.3076 8.14408C89.6364 8.39756 89.9219 8.73032 90.1476 9.12313C90.2803 9.3663 90.3973 9.62233 90.4976 9.88879C90.6155 10.2033 90.719 10.526 90.8076 10.8553C90.8076 10.8553 90.8876 11.1942 90.8976 11.2067V11.3825C90.9876 11.8469 91.1176 12.9891 91.1576 13.4661C91.2376 14.4326 91.2476 15.2484 91.2576 15.738V16.1145C91.2576 16.3781 91.2576 17.7839 91.2576 17.9722V18.0977C91.2576 18.4492 91.2576 19.3529 91.2576 20.0056C91.2576 20.2441 91.1076 21.4491 91.0876 21.5495V21.6374C90.9805 22.3052 90.8093 22.9543 90.5776 23.5703C90.2994 24.2647 89.8868 24.8602 89.3776 25.3025C88.9354 25.6442 88.4269 25.8266 87.9076 25.8297C87.6311 25.8328 87.3554 25.7906 87.0876 25.7042C86.687 25.5749 86.3146 25.3348 85.9976 25.0013C85.7368 24.7303 85.5166 24.403 85.3476 24.0348C85.0957 23.4381 84.8914 22.8116 84.7376 22.1645V21.9512C84.7376 21.8005 84.6776 21.6625 84.6576 21.5495C84.5876 21.1227 84.4676 19.9805 84.4476 19.6416C84.4276 19.3027 84.4476 17.6082 84.4476 17.3446C84.4476 17.081 84.4476 16.6668 84.4476 16.3781C84.4476 16.0894 84.4476 15.8509 84.4476 15.4869C84.4476 15.1229 84.4476 14.3824 84.4476 13.8803C84.4476 13.7799 84.4476 13.6293 84.4476 13.441C84.4476 12.9766 84.5276 12.3992 84.5676 12.1858C84.6576 11.5205 84.7576 10.9306 84.8276 10.6168C84.9712 9.93954 85.2421 9.3154 85.6176 8.79678C85.9879 8.21088 86.5128 7.81026 87.0976 7.66711C87.2656 7.62417 87.4362 7.59898 87.6076 7.5918L87.8476 7.642ZM88.6776 23.9595C89.0439 23.722 89.3284 23.3247 89.4776 22.8423C89.6624 22.3661 89.8033 21.865 89.8976 21.3487V21.2859C89.8976 21.1102 90.0276 20.1437 90.0376 20.0307C90.0376 19.4408 90.0376 18.5245 90.0376 18.173V18.035C90.0376 17.7839 90.0376 16.5664 90.0376 16.4032C90.0376 16.24 90.0376 16.1271 90.0376 15.876C90.0393 15.1632 90.0092 14.4508 89.9476 13.7422C89.9006 13.1227 89.8271 12.5068 89.7276 11.8971V11.7841C89.5957 11.1773 89.4007 10.5949 89.1476 10.052C89.0216 9.83862 88.8657 9.65576 88.6876 9.51224C88.5103 9.36711 88.3081 9.27678 88.0976 9.24865C87.9976 9.24865 87.8976 9.24865 87.7876 9.24865C87.6645 9.23555 87.5407 9.23555 87.4176 9.24865C87.0664 9.31057 86.7477 9.5398 86.5276 9.88879C86.3019 10.2123 86.1347 10.5935 86.0376 11.0059C86.0376 11.1565 85.9276 11.5707 85.8076 12.4368C85.8076 12.6502 85.7276 13.2527 85.6976 13.692C85.6976 13.8677 85.6976 14.0309 85.6976 14.1439C85.6781 14.6247 85.6781 15.1065 85.6976 15.5873C85.6976 15.9765 85.6976 16.2651 85.6976 16.5287C85.6976 16.7923 85.6976 17.1563 85.6976 17.4199C85.6976 17.6835 85.6976 19.265 85.6976 19.5412C85.6976 19.8173 85.8176 20.8717 85.8776 21.2482C85.8909 21.3712 85.911 21.4928 85.9376 21.6122C85.9376 21.7252 85.9376 21.8382 86.0076 21.926C86.1271 22.425 86.2845 22.9084 86.4776 23.3695C86.5708 23.5532 86.6817 23.7218 86.8076 23.8716C86.9877 24.0719 87.2039 24.2141 87.4376 24.2858C87.6204 24.3116 87.8049 24.3116 87.9876 24.2858C88.232 24.256 88.4679 24.1573 88.6776 23.9971V23.9595Z" fill="white"/>
<path d="M95.7577 7.66783H96.0477C96.4717 7.6868 96.882 7.86136 97.2277 8.1699C97.5508 8.42302 97.8324 8.75103 98.0577 9.13639C98.192 9.3827 98.3091 9.64307 98.4077 9.91461C98.5341 10.2244 98.6379 10.5478 98.7177 10.8811C98.7177 10.8811 98.8077 11.2075 98.8077 11.2326C98.8103 11.2911 98.8103 11.3498 98.8077 11.4083C98.8977 11.8602 99.0277 13.0149 99.0677 13.4919C99.1477 14.4458 99.1577 15.2743 99.1677 15.7638C99.1607 15.885 99.1607 16.0066 99.1677 16.1278C99.1677 16.4039 99.1677 17.7972 99.1677 17.9855V18.1235C99.1677 18.475 99.1677 19.3787 99.1077 20.0314C99.1077 20.2574 98.9577 21.4623 98.9377 21.5753V21.6632C98.8291 22.3305 98.658 22.9794 98.4277 23.5962C98.1499 24.2908 97.7372 24.8865 97.2277 25.3283C96.7822 25.6604 96.2758 25.8421 95.7577 25.8555C95.4819 25.8462 95.2073 25.8041 94.9377 25.73C94.5384 25.5998 94.1686 25.3549 93.8577 25.0145C93.5992 24.7455 93.3794 24.4228 93.2077 24.0606C92.9549 23.466 92.7537 22.8389 92.6077 22.1903V21.977C92.571 21.8414 92.5409 21.703 92.5177 21.5628C92.4577 21.136 92.3277 20.0063 92.3077 19.6549C92.2877 19.3034 92.3077 17.6215 92.3077 17.3704C92.3077 17.1194 92.3077 16.6926 92.3077 16.4039C92.3077 16.1152 92.3077 15.8768 92.3077 15.5127C92.3034 14.9762 92.3235 14.4398 92.3677 13.9061C92.3677 13.8057 92.3677 13.6425 92.3677 13.4668C92.3677 13.0024 92.4577 12.4124 92.4977 12.1363C92.5877 11.4836 92.6777 10.8811 92.7577 10.5799C92.893 9.94149 93.1466 9.35227 93.4977 8.86025C93.8748 8.27181 94.4066 7.8713 94.9977 7.73058C95.1657 7.68765 95.3363 7.66246 95.5077 7.65527L95.7577 7.66783ZM96.5977 23.9853C96.9597 23.7445 97.2402 23.3478 97.3877 22.8681C97.574 22.3839 97.7149 21.8743 97.8077 21.3494V21.2741C97.8077 21.0983 97.9377 20.1444 97.9477 20.0189C97.9477 19.4289 97.9477 18.5001 97.9477 18.1612V18.0106C97.9477 17.7721 97.9477 16.5546 97.9477 16.3914C97.9477 16.2282 97.9477 16.1152 97.9477 15.8516C97.9477 15.3872 97.9477 14.5965 97.8577 13.7178C97.8081 13.1021 97.7313 12.4903 97.6277 11.8853C97.6277 11.8853 97.6277 11.7974 97.6277 11.7597C97.4931 11.164 97.3018 10.5908 97.0577 10.0527C96.9316 9.83934 96.7758 9.65647 96.5977 9.51295C96.4183 9.37549 96.2168 9.28974 96.0077 9.26191H95.3377C94.9873 9.33666 94.6689 9.56316 94.4377 9.90206C94.2129 10.2293 94.049 10.6151 93.9577 11.0317C93.855 11.498 93.7748 11.9717 93.7177 12.4501C93.7177 12.676 93.6377 13.2785 93.6077 13.7053C93.6077 13.8936 93.6077 14.0567 93.6077 14.1571C93.6077 14.5965 93.6077 15.2115 93.6077 15.6132C93.6077 16.0148 93.6077 16.291 93.6077 16.5546C93.6077 16.8181 93.6077 17.1821 93.6077 17.4457C93.6077 17.7093 93.6077 19.2909 93.6077 19.567C93.6077 19.8431 93.7277 20.8975 93.7877 21.2741C93.7877 21.2741 93.7877 21.5502 93.8477 21.6255C93.9077 21.7008 93.8477 21.864 93.9177 21.9393C94.0407 22.4426 94.2014 22.9301 94.3977 23.3953C94.4847 23.5811 94.5924 23.7502 94.7177 23.8974C94.9003 24.093 95.1156 24.2346 95.3477 24.3116C95.5305 24.337 95.7149 24.337 95.8977 24.3116C96.1445 24.2774 96.3829 24.179 96.5977 24.0229V23.9853Z" fill="white"/>
<path d="M80.5676 16.629C80.4576 16.629 80.4276 16.629 80.4276 16.7168C80.4276 17.0306 80.4276 17.3193 80.4276 17.6331C80.4276 18.2607 80.4276 18.6624 80.4276 19.29C80.4276 19.9176 80.4276 20.1686 80.4276 21.0723C80.4276 21.361 80.4876 22.9551 80.4276 23.3191C80.3676 23.6831 80.4276 23.9467 80.4276 24.2229C80.4276 24.499 80.4276 24.863 80.4276 25.0387C80.4276 25.2145 80.4876 25.4404 80.4276 25.704C80.3676 25.9676 80.3376 25.704 80.2476 25.817C80.1576 25.9299 79.3776 25.817 79.3276 25.817C79.2776 25.817 79.3276 25.0136 79.3276 24.8128C79.3276 24.612 79.3276 24.0095 79.3276 23.2815C79.3276 23.1685 79.3276 22.8924 79.3276 22.3903C79.3276 22.1142 79.3276 21.587 79.3276 21.1351C79.3276 20.6832 79.3276 20.5577 79.3276 19.8799C79.3276 19.7293 79.3276 18.6247 79.3276 18.4239C79.3276 17.9218 79.3276 17.4198 79.3276 16.9177C79.3425 16.6502 79.3425 16.3818 79.3276 16.1144V14.6332C79.3124 14.3072 79.3124 13.9803 79.3276 13.6542C79.3421 13.3365 79.3421 13.018 79.3276 12.7002C79.3428 12.5041 79.3428 12.3065 79.3276 12.1103C79.3276 11.5078 79.2676 10.2024 79.2676 10.1648C79.3276 9.76311 79.2676 9.34889 79.3476 8.90958C79.3753 8.62241 79.4683 8.35133 79.6155 8.12875C79.7627 7.90616 79.9578 7.74148 80.1776 7.65439C80.4839 7.56963 80.8013 7.56963 81.1076 7.65439C81.5036 7.75788 81.872 7.9869 82.1776 8.31964C82.3376 8.50792 82.4576 8.7213 82.6176 8.90958C82.7811 9.15893 82.9065 9.44403 82.9876 9.75055C83.0476 9.92628 83.0776 10.102 83.1276 10.2903C83.2283 10.6966 83.2789 11.1199 83.2776 11.5455C83.2874 12.06 83.23 12.5731 83.1076 13.0642C83.0038 13.5739 82.8386 14.0607 82.6176 14.5077L82.4676 14.7964C82.2776 15.06 82.2676 15.2232 82.0676 15.4617C81.8676 15.7001 81.6076 16.0139 81.6376 16.0641C81.7376 16.6792 81.9876 17.0934 82.1076 17.721C82.2276 18.3486 82.4476 19.0515 82.5876 19.7293C82.7276 20.4071 82.8276 20.6707 83.0076 21.4866C83.1381 21.9939 83.2483 22.5092 83.3376 23.0304C83.4676 23.6329 83.5576 24.0095 83.7076 24.5994C83.7995 24.8776 83.8438 25.177 83.8376 25.4781C83.8376 25.7542 83.4776 25.6914 83.2176 25.6914C83.0623 25.7281 82.9029 25.7281 82.7476 25.6914C82.5558 25.2279 82.4273 24.7272 82.3676 24.2103C82.3676 24.2103 81.9076 21.9259 81.7476 21.2606C81.5876 20.5954 81.2776 19.1896 81.1676 18.6624C81.0374 18.0767 80.8771 17.5023 80.6876 16.9428C80.6276 16.8675 80.6276 16.7922 80.5676 16.629ZM80.4276 14.1186C80.413 14.4321 80.413 14.7465 80.4276 15.06C80.4276 15.1981 80.4776 15.2357 80.5776 15.1855C80.7478 15.0979 80.8939 14.9495 80.9976 14.7588C81.2547 14.341 81.4823 13.8958 81.6776 13.4283C81.861 13.0429 81.9832 12.6167 82.0376 12.1731C82.1033 11.7587 82.1033 11.3322 82.0376 10.9179C81.9888 10.613 81.8863 10.3256 81.7376 10.0769C81.6255 9.8848 81.4906 9.71546 81.3376 9.57483C81.1883 9.44313 81.0101 9.37295 80.8276 9.374C80.7576 9.374 80.5076 9.374 80.4676 9.44931C80.4431 9.62791 80.4431 9.81044 80.4676 9.98904C80.4676 10.2777 80.4676 10.6543 80.4676 10.9555C80.5189 11.7911 80.5189 12.6304 80.4676 13.4659C80.4448 13.6992 80.4314 13.9338 80.4276 14.1688V14.1186Z" fill="white"/>
<path d="M76.1776 11.9974C76.1776 12.8133 76.0776 19.5285 76.0876 19.5285C76.0976 19.5285 76.0876 20.5452 76.0876 20.5829C76.0876 20.6205 76.0876 21.3611 76.0876 22.4029V24.5493C76.0876 24.612 76.0876 24.9258 76.0876 25.3652C76.0929 25.4738 76.0929 25.5828 76.0876 25.6915C76.0976 25.7238 76.0976 25.7596 76.0876 25.7919C76.0876 25.7919 75.9776 25.7919 75.8376 25.7919H75.4476C75.0176 25.7919 74.9776 25.7919 74.9776 25.7919V24.8882C74.9776 24.4614 74.9776 23.7962 74.9776 23.3945C74.9776 22.9928 74.9776 22.3401 74.9776 21.9134C74.9776 21.9134 75.0476 20.7461 75.0576 20.1561C75.0576 20.0431 75.0576 19.9176 75.0576 19.7921C75.0576 19.2147 75.0576 18.6499 75.0576 18.0725C75.0576 17.4951 75.0576 17.1939 75.0576 16.7043C75.0576 16.2148 75.0576 15.8132 75.0576 15.3738C75.0576 15.2107 75.0576 15.0475 75.0576 14.8969C75.0576 14.3948 75.0576 13.7547 75.0576 13.2651C75.0576 13.0769 75.0576 12.8886 75.0576 12.7003C75.0576 12.2359 75.0576 11.7715 75.0576 11.307C75.0576 11.2192 75.0576 10.8301 75.0576 10.6041C75.0827 10.1863 75.0827 9.76675 75.0576 9.34894C74.8787 9.31304 74.6965 9.31304 74.5176 9.34894C74.2176 9.34894 74.0876 9.34894 73.6476 9.34894C73.4256 9.39228 73.1996 9.39228 72.9776 9.34894C72.9607 9.09416 72.9607 8.83806 72.9776 8.58328C72.9417 8.33848 72.9417 8.08752 72.9776 7.84272C73.1563 7.80503 73.3388 7.80503 73.5176 7.84272C74.0476 7.84272 74.3076 7.84272 74.7776 7.84272C75.2476 7.84272 75.6776 7.84272 76.1776 7.84272C76.6776 7.84272 77.0376 7.84272 77.4176 7.84272C77.5376 7.84272 77.8876 7.84272 78.3576 7.84272C78.6476 7.84272 78.4976 7.99334 78.5376 8.30714C78.5845 8.63083 78.5845 8.96249 78.5376 9.28618C78.3546 9.36584 78.161 9.39995 77.9676 9.3866C77.6076 9.3866 77.4976 9.3866 76.9076 9.3866H76.3476C76.3476 9.66274 76.3476 10.3029 76.3476 10.9179C76.1576 10.8301 76.1776 11.9974 76.1776 11.9974Z" fill="white"/>
<path d="M102.458 11.9979C102.458 12.8138 102.358 19.5291 102.368 19.5291C102.378 19.5291 102.368 20.5458 102.368 20.5834C102.368 20.6211 102.368 21.3616 102.368 22.4034V24.5498C102.368 24.6126 102.368 24.9264 102.368 25.3657C102.373 25.4744 102.373 25.5834 102.368 25.692C102.378 25.7243 102.378 25.7602 102.368 25.7925C102.368 25.7925 102.258 25.7925 102.118 25.7925H101.728C101.298 25.7925 101.258 25.7925 101.258 25.7925V23.3574C101.258 22.9306 101.258 22.303 101.258 21.8763C101.258 21.8763 101.328 20.7089 101.338 20.119C101.338 20.006 101.338 19.8805 101.338 19.755C101.338 19.1776 101.338 18.6128 101.338 18.0354C101.338 17.458 101.338 17.1568 101.338 16.6672C101.338 16.1777 101.338 15.7761 101.338 15.3367C101.338 15.1736 101.338 15.0104 101.338 14.8598C101.338 14.3577 101.338 13.7175 101.338 13.228C101.338 13.0397 101.338 12.8515 101.338 12.6632C101.338 12.1988 101.338 11.7343 101.338 11.2699C101.338 11.1821 101.338 10.793 101.338 10.567C101.363 10.1492 101.363 9.72964 101.338 9.31183C101.159 9.27593 100.976 9.27593 100.798 9.31183C100.498 9.31183 100.368 9.31183 99.9276 9.31183C99.7056 9.35517 99.4796 9.35517 99.2576 9.31183C99.2407 9.05705 99.2407 8.80095 99.2576 8.54617C99.2217 8.30137 99.2217 8.05041 99.2576 7.80561C99.4364 7.76792 99.6189 7.76792 99.7976 7.80561C100.328 7.80561 100.588 7.80561 101.058 7.80561C101.528 7.80561 101.958 7.80561 102.458 7.80561C102.958 7.80561 103.318 7.80561 103.698 7.80561C103.818 7.80561 104.178 7.80561 104.638 7.80561C104.928 7.80561 104.778 7.95623 104.818 8.27003C104.865 8.59372 104.865 8.92538 104.818 9.24907C104.635 9.32873 104.441 9.36284 104.248 9.34949C103.888 9.34949 103.778 9.34949 103.188 9.34949H102.628C102.628 9.62563 102.628 10.2658 102.628 10.8808C102.448 10.8306 102.458 11.9979 102.458 11.9979Z" fill="white"/>
</svg>
