<?xml version="1.0" encoding="utf-8"?>
<!-- Generator: Adobe Illustrator 23.0.3, SVG Export Plug-In . SVG Version: 6.00 Build 0)  -->
<svg version="1.1" id="Layer_1" xmlns="http://www.w3.org/2000/svg" xmlns:xlink="http://www.w3.org/1999/xlink" x="0px" y="0px"
	 viewBox="0 0 84 84" style="enable-background:new 0 0 84 84;" xml:space="preserve">
<style type="text/css">
	.st0{fill:#FFFFFF;stroke:#EDEEE2;}
	.st1{fill:#5A558D;}
</style>
<circle class="st0" cx="42" cy="42" r="41.5"/>
<path class="st1" d="M45.6,56.1c-0.2,0-0.4,0-0.6-0.1L15.2,40.7c-0.3-0.1-0.5-0.4-0.6-0.8c-0.1-0.3,0-0.7,0.2-1l13.3-20.3
	c0.3-0.5,1-0.7,1.5-0.5l29.8,15.3c0.3,0.1,0.5,0.4,0.6,0.7c0.1,0.3,0,0.7-0.2,1L46.6,55.5C46.4,55.9,46,56.1,45.6,56.1z M45.9,54.1
	L45.9,54.1C45.9,54.1,45.9,54.1,45.9,54.1z M17,39.3l28.3,14.5l12.5-19L29.4,20.3L17,39.3z M16.5,40L16.5,40
	C16.5,40.1,16.5,40.1,16.5,40z M16.1,38.9L16.1,38.9C16.2,38.9,16.2,38.9,16.1,38.9z M58.6,35.2C58.6,35.2,58.6,35.2,58.6,35.2
	L58.6,35.2z M29.9,19.7L29.9,19.7C29.8,19.7,29.8,19.7,29.9,19.7z"/>
<path class="st1" d="M50.2,66c-0.2,0-0.4-0.1-0.6-0.2L19.9,50.6c-0.3-0.1-0.5-0.4-0.6-0.7c-0.1-0.4-0.1-0.7,0.2-1.1l4-6.2l21.8,11.2
	l9.9-15.1l8.9,4.5c0.3,0.1,0.5,0.4,0.6,0.8c0.1,0.4,0,0.7-0.2,1.1L51.3,65.4C51,65.7,50.6,66,50.2,66z M49.6,64.2L49.6,64.2
	L49.6,64.2z M50.5,64L50.5,64C50.5,64,50.5,64,50.5,64z M21.6,49.2l28.3,14.5l12.5-19l-6.5-3.3l-9.3,14.1c-0.4,0.5-1.1,0.7-1.6,0.4
	L24.2,45.3L21.6,49.2z M45.9,54.1L45.9,54.1C45.9,54.1,45.9,54.1,45.9,54.1z M20.8,48.8L20.8,48.8C20.8,48.8,20.8,48.8,20.8,48.8z
	 M63.1,45.1C63.1,45.1,63.2,45.1,63.1,45.1L63.1,45.1z"/>
<path class="st1" d="M45.7,56.1c-0.3,0-0.7-0.2-0.9-0.5c-0.3-0.5-0.1-1.1,0.4-1.4L63,43.6c0.5-0.3,1.1-0.1,1.4,0.4
	c0.3,0.5,0.1,1.1-0.4,1.4L46.2,56C46,56.1,45.8,56.1,45.7,56.1z"/>
<path class="st1" d="M50.3,65.9c-0.3,0-0.7-0.2-0.9-0.5c-0.3-0.5-0.1-1.1,0.4-1.4l16.6-9.9l-6.6-3.4c-0.5-0.3-0.7-0.9-0.4-1.4
	c0.3-0.5,0.9-0.7,1.4-0.4l8.6,4.4l0.1,0.6c0,0.4-0.2,0.8-0.5,1L50.8,65.8C50.6,65.9,50.5,65.9,50.3,65.9z"/>
<path class="st1" d="M43.2,52c-0.3,0-0.6-0.1-0.8-0.4l-7-8l-5,3.4c-0.4,0.2-0.8,0.3-1.2,0.1l-0.6-0.3l0-0.7l0.4-5.7l-11.5-0.2
	c-0.5,0-1-0.4-1.1-0.9c-0.1-0.5,0.2-1.1,0.7-1.3l12.3-4.8l-0.8-12.4c0-0.5,0.3-1,0.8-1.1c0.5-0.2,1,0,1.3,0.5l5.8,10l5.9-3.7
	c0.4-0.2,0.9-0.2,1.2,0c0.4,0.2,0.5,0.7,0.5,1.1L43.1,33l10.4,0.8c0.5,0,1,0.5,1,1c0.1,0.5-0.3,1-0.8,1.2l-11.2,3.3l1.8,11.4
	c0.1,0.5-0.2,1-0.6,1.2C43.5,52,43.3,52,43.2,52z M43.9,50.3C43.9,50.3,43.9,50.3,43.9,50.3L43.9,50.3z M35.5,41.3
	c0.3,0,0.6,0.1,0.8,0.4l5.5,6.3l-1.4-9.1c-0.1-0.5,0.3-1.1,0.8-1.3l7.2-2.1l-6.9-0.5l-0.3-0.4C41,34.3,40.9,34,41,33.6l0.7-4.5
	l-5,3.1c-0.5,0.3-1.2,0.2-1.5-0.3l-4.3-7.5l0.6,9.2c0,0.5-0.3,1-0.7,1.1l-8.6,3.4l8.4,0.1l0.4,0.4c0.2,0.2,0.3,0.5,0.3,0.8l-0.4,4.8
	l4.1-2.8C35,41.3,35.3,41.3,35.5,41.3z M42.4,38.5L42.4,38.5L42.4,38.5z M29.4,33.8L29.4,33.8L29.4,33.8z M35.6,30.5
	C35.6,30.5,35.6,30.5,35.6,30.5L35.6,30.5z M30.6,20.6L30.6,20.6C30.6,20.6,30.6,20.6,30.6,20.6z"/>
</svg>
