<?xml version="1.0" encoding="utf-8"?>
<!-- Generator: Adobe Illustrator 23.0.3, SVG Export Plug-In . SVG Version: 6.00 Build 0)  -->
<svg version="1.1" id="Layer_1" xmlns="http://www.w3.org/2000/svg" xmlns:xlink="http://www.w3.org/1999/xlink" x="0px" y="0px"
	 viewBox="0 0 84 84" style="enable-background:new 0 0 84 84;" xml:space="preserve">
<style type="text/css">
	.st0{fill:#FFFFFF;stroke:#EDEEE2;}
	.st1{fill:#FF6D54;}
</style>
<circle class="st0" cx="42" cy="42" r="41.5"/>
<path class="st1" d="M39.5,67.8H21.3c-0.8,0-1.6-0.3-2.1-0.9c-0.5-0.6-0.8-1.4-0.7-2.2l3.8-36.2c0.2-1.6,1.6-2.9,3.2-2.9h15.1
	l-1.3,12.2c-0.1,1.1-2.5,4.8-4.3,7.5c0.5-0.3,0.9-0.5,1.4-0.8c4-2.4,5.3-3.1,6.1-3.1h2.7l-2.5,23.6C42.5,66.5,41.1,67.8,39.5,67.8z
	 M25.6,27.6c-0.6,0-1.1,0.5-1.2,1.1l-3.8,36.2c0,0.2,0,0.5,0.2,0.6c0.1,0.2,0.4,0.2,0.6,0.2h18.2c0.6,0,1.1-0.5,1.2-1.1l2.2-21.4
	h-0.5c-0.5,0.1-3.3,1.7-5.1,2.8c-1.4,0.8-2.9,1.7-4,2.3c-0.6,0.3-1.3,0.2-1.7-0.3c-0.4-0.5-0.4-1.2,0-1.8c2.1-2.7,5.4-7.9,5.6-8.8
	l1-9.9L25.6,27.6L25.6,27.6z M33.3,47.5C33.3,47.5,33.3,47.5,33.3,47.5C33.3,47.5,33.3,47.5,33.3,47.5z"/>
<path class="st1" d="M32.8,48.5c-0.4,0-0.8-0.2-1.1-0.5c-0.4-0.5-0.4-1.2,0-1.8c2.1-2.7,5.4-7.9,5.6-8.8l1.8-16.6
	c0.3-3.1,3.1-5.6,6.2-5.6h15.1c1.5,0,2.9,0.6,3.9,1.7c1,1.1,1.4,2.6,1.3,4.1l-1.8,16.7c-0.3,3.1-3.1,5.6-6.2,5.6H42.5
	c-0.5,0.1-3.3,1.7-5.1,2.8c-1.4,0.8-2.9,1.7-4,2.3C33.2,48.5,33,48.5,32.8,48.5z M33.3,47.5C33.3,47.5,33.3,47.5,33.3,47.5
	C33.3,47.5,33.3,47.5,33.3,47.5z M45.2,17.3c-2.1,0-3.9,1.7-4.1,3.8l-1.8,16.7c-0.1,1.1-2.5,4.8-4.3,7.5c0.5-0.3,0.9-0.5,1.4-0.8
	c4-2.4,5.3-3.1,6.1-3.1h15.1c2.1,0,3.9-1.7,4.1-3.7l1.8-16.7c0.1-1-0.2-1.9-0.8-2.5c-0.6-0.7-1.4-1-2.4-1H45.2z"/>
<path class="st1" d="M30.7,64.7c-0.8,0-1.6-0.3-2.1-0.9c-0.5-0.6-0.8-1.4-0.7-2.2c0.2-1.6,1.6-2.9,3.2-2.9c0.8,0,1.6,0.3,2.1,0.9
	s0.8,1.4,0.7,2.2C33.8,63.4,32.4,64.7,30.7,64.7z M31.2,60.7c-0.6,0-1.1,0.5-1.2,1.1c0,0.2,0,0.5,0.2,0.6c0.1,0.2,0.3,0.2,0.6,0.2
	c0.6,0,1.1-0.5,1.2-1.1c0-0.2,0-0.5-0.2-0.6C31.6,60.8,31.4,60.7,31.2,60.7z"/>
<path class="st1" d="M42,55.9H20.5v2H42V55.9z"/>
<path class="st1" d="M57.9,25.1c0.1-0.9-0.2-1.7-0.7-1.8c-0.5-0.1-1.1,0.6-1.2,1.5c-0.1,0.9,0.2,1.7,0.7,1.8
	C57.2,26.6,57.7,26,57.9,25.1z"/>
<path class="st1" d="M56.8,27.6c-0.5,0-0.9-0.2-1.2-0.6c-0.5-0.5-0.7-1.3-0.6-2.2c0.2-1.5,1.1-2.6,2.2-2.6c0.5,0,0.9,0.2,1.2,0.6
	c0.5,0.5,0.7,1.3,0.6,2.2C58.8,26.5,57.8,27.6,56.8,27.6z"/>
<path class="st1" d="M47.7,25.1c0.1-0.9-0.2-1.7-0.7-1.8c-0.5-0.1-1.1,0.6-1.2,1.5c-0.1,0.9,0.2,1.7,0.7,1.8
	C47,26.6,47.5,26,47.7,25.1z"/>
<path class="st1" d="M46.5,27.6c-0.5,0-0.9-0.2-1.2-0.6c-0.5-0.5-0.7-1.3-0.6-2.2c0.2-1.5,1.1-2.6,2.2-2.6c0.5,0,0.9,0.2,1.2,0.6
	c0.5,0.5,0.7,1.3,0.6,2.2C48.5,26.5,47.6,27.6,46.5,27.6z"/>
<path class="st1" d="M50.7,36c-3,0-5.6-1.7-6.7-4.4c-0.2-0.5,0-1.1,0.5-1.3s1.1,0,1.3,0.5c0.8,1.9,2.6,3.1,4.8,3.1
	c2.3,0,4.5-1.3,5.8-3.4c0.3-0.5,0.9-0.6,1.4-0.4s0.6,0.9,0.4,1.4C56.6,34.3,53.7,36,50.7,36z"/>
</svg>
