<svg width="106" height="44" viewBox="0 0 106 44" fill="none" xmlns="http://www.w3.org/2000/svg">
<path fill-rule="evenodd" clip-rule="evenodd" d="M26.2667 5.05119C23.0566 7.05949 20.4736 9.93379 18.8127 13.3459C18.6839 13.6385 18.6365 14.074 18.7788 14.0263C37.5426 7.90228 35.4216 37.0732 17.7149 33.2763C17.288 37.9442 16.6985 40.0808 15.3432 42.9863C15.2483 43.1972 14.984 43.3742 14.8146 43.3197C14.7234 43.2927 14.6456 43.2322 14.5966 43.1503C14.5477 43.0684 14.5312 42.971 14.5503 42.8774C15.1196 39.7542 15.6346 36.6309 13.2357 33.0517C11.4806 30.4592 4.76525 31.405 2.47484 28.7785C-3.8543 21.4705 2.96274 9.56257 12.7749 14.8361C11.7517 11.3454 10.864 5.90175 12.8969 0.771154C12.9376 0.652004 12.9996 0.541315 13.0799 0.444538C13.3103 0.192771 13.8592 0.444538 14.1776 0.573824C14.9298 0.811981 15.4177 1.32232 16.1631 1.56728C16.6239 2.06401 15.804 2.53352 15.9395 3.36367C16.5494 2.56074 16.9424 1.52645 17.5048 0.641869C18.6716 0.985599 19.6947 1.70235 20.4187 2.68322C19.8563 4.04412 19.1176 5.27574 18.623 6.7251C19.7072 5.46626 22.1128 3.18675 24.4168 2.24093C25.3045 2.62198 26.2938 4.67694 26.2667 5.05119Z" fill="#9FD2BE"/>
<path d="M88.4395 33.5078C88.5885 33.1131 88.6766 32.7593 88.8325 32.3374C88.9274 32.0584 89.0019 31.7726 89.0832 31.4937C89.2391 30.9493 89.3814 30.4049 89.5576 29.8674C89.7338 29.3298 90.4792 26.8802 90.5537 26.574C90.6282 26.2678 90.7299 25.8936 90.7705 25.7915C91.028 25.0634 91.0416 24.8593 91.272 24.0223C91.394 23.5936 91.6582 22.5934 91.6854 22.4709C91.7463 22.2055 92.0309 21.2325 92.2207 20.7357C92.3291 20.45 92.424 20.1914 92.5392 19.9124C92.6285 19.6791 92.7326 19.4518 92.8509 19.2319C93 18.9598 93.0067 18.9121 93.4946 18.9189C93.7323 18.9048 93.9709 18.9162 94.2062 18.953C94.3349 19.0482 94.3485 19.3476 94.3959 19.5926C94.484 20.0349 94.5247 20.4772 94.606 20.9195C94.6873 21.3618 94.6737 21.5999 94.7279 22.1511C94.7279 22.4573 94.7957 22.8315 94.8228 23.0901C94.8499 23.3487 94.8228 23.4848 94.8228 23.6481C94.8368 23.8747 94.8368 24.1019 94.8228 24.3285C94.8228 24.5599 94.877 24.8252 94.8838 25.0634C94.9312 25.9344 94.9516 26.3018 95.0329 26.9142C95.0735 27.234 95.0803 27.5607 95.1006 27.8873C95.1345 28.4248 95.1006 28.7787 95.1684 29.3162C95.2362 29.8538 95.1684 30.2348 95.2429 30.82C95.3299 31.6154 95.3729 32.415 95.3717 33.2152C95.3717 34.1678 95.4801 34.8823 95.5072 35.8349C95.5072 36.3521 95.5547 36.876 95.6021 37.3932C95.6021 37.6381 95.6021 37.8831 95.6766 38.5159C95.7173 38.9718 95.7376 39.1351 95.7376 39.2916C95.7376 39.4481 95.3988 39.3665 95.06 39.3665H94.1858H94.0706C93.9487 39.3188 93.9554 39.1827 93.9351 38.9582C93.8944 38.2777 93.8809 37.8695 93.8538 37.1822C93.8267 36.495 93.786 35.5015 93.7725 34.8551C93.7589 34.2087 93.7047 33.9161 93.6844 33.1744C93.6844 32.9498 93.6437 32.3238 93.6302 31.8135C93.6302 30.6499 93.576 30.6975 93.5624 30.0579C93.5624 29.5272 93.4608 29.3094 93.4269 28.2275C93.4269 27.6627 93.3456 27.166 93.3117 26.6148C93.2642 25.7507 93.2371 25.6486 93.2168 25.2539V24.7028C93.2168 24.3761 93.2168 24.3149 93.1829 24.0223C93.1954 23.907 93.1954 23.7906 93.1829 23.6753C93.1829 23.5256 93.1829 23.4984 93.1219 23.4848C93.061 23.4711 93.0338 23.7365 93.0067 23.8454C92.817 24.6551 92.7357 24.9069 92.4579 25.8867C92.3088 26.4447 92.1733 26.7917 91.9903 27.4518C91.8073 28.1118 91.7057 28.4044 91.5092 28.9964C91.4346 29.221 91.1432 30.194 91.0755 30.4185C90.8857 31.0378 90.8654 31.2011 90.6621 31.8203L90.5334 32.2558C90.4521 32.5007 90.12 33.7051 89.7947 34.685C89.666 35.0932 89.544 35.4539 89.3882 35.8622C89.3001 36.0867 88.9816 36.1956 88.7105 36.2364C88.4403 36.2943 88.1609 36.2943 87.8906 36.2364C87.7784 36.1963 87.6781 36.1285 87.5988 36.0394C87.5194 35.9502 87.4637 35.8425 87.4366 35.7261C87.3417 35.379 87.1926 35.1137 87.0977 34.7666C86.9758 34.3039 86.8538 34.2019 86.5895 33.3309C86.5421 33.1812 86.3388 32.5347 86.271 32.3306C86.2033 32.1265 86.0813 31.7863 86.0271 31.6502C85.9187 31.3984 85.6341 30.5342 85.2681 29.5204C85.1258 29.0372 84.9361 28.4929 84.7463 28.0234C84.5566 27.5539 84.4414 27.2408 84.2856 26.853L84.0484 26.1998C83.9061 25.7915 83.7773 25.5193 83.6147 25.0906C83.5402 24.8933 83.2488 24.1244 83.1539 23.9407C83.1539 24.1992 83.0997 24.7844 83.0929 24.9681C83.0455 25.5669 83.0251 26.1589 82.9777 26.7577C82.9777 26.8394 82.9777 26.9551 82.9777 27.0367C82.9777 27.4994 82.8896 27.9281 82.8693 28.5133C82.8693 28.976 82.8083 29.5272 82.7812 29.9899C82.7541 30.4526 82.7812 30.7316 82.7473 31.1262C82.7473 31.8747 82.6253 32.6164 82.6253 33.1676C82.6253 34.4332 82.5237 34.9367 82.4627 36.0187C82.4017 37.1006 82.3814 37.6313 82.3001 38.8221C82.3152 38.9941 82.2799 39.1668 82.1984 39.3188C82.1239 39.4413 81.7851 39.4005 81.6292 39.4005C81.2946 39.418 80.959 39.4066 80.6263 39.3665C80.5179 39.2916 80.6263 39.1691 80.6263 38.8697C80.6263 38.2914 80.7483 37.4476 80.7754 36.9305C80.8161 36.1888 80.8906 35.4471 80.9313 34.8211C80.9719 34.195 81.0126 33.9297 81.0261 33.3853C81.0261 33.256 81.0261 32.909 81.0261 32.7797C81.0261 32.4599 81.0736 32.0993 81.0939 31.7931C81.0939 31.3031 81.1413 31.1126 81.1684 30.3573C81.1684 29.9967 81.2159 29.6769 81.2226 29.289C81.2972 28.3976 81.3107 27.724 81.3446 26.9074C81.3446 26.5332 81.4056 26.1181 81.4327 25.7507C81.4734 25.2403 81.4734 24.8048 81.5072 24.3013C81.5479 23.6208 81.5682 23.2806 81.6224 22.3212C81.6699 21.7836 81.7241 21.3005 81.7647 20.9603C81.8393 20.3275 81.8935 20.0893 81.9342 19.6742C81.9748 19.2592 82.0561 19.1435 82.2323 19.0414C82.4067 18.9557 82.602 18.9226 82.7948 18.9462C82.9088 18.9392 83.0232 18.9506 83.1336 18.9802C83.4114 19.0754 83.4927 19.5586 83.5944 19.7967C83.696 20.0349 83.6825 20.1165 83.8044 20.4772C83.8654 20.6473 83.9264 20.8854 84.0213 21.1576C84.1161 21.4298 84.2042 21.6748 84.2923 21.9061C84.3804 22.1375 84.4821 22.5866 84.5973 22.8996C84.7125 23.2126 84.7396 23.3283 84.8615 23.6345C84.9835 23.9407 85.2478 24.696 85.2681 24.764C85.3833 25.0634 85.5256 25.4445 85.6476 25.7166C86.1084 26.9278 86.5421 28.0846 86.5895 28.1935C86.7115 28.4997 86.7657 28.7582 86.8809 29.0645C86.9961 29.3707 87.1316 29.7449 87.2672 30.1464C87.5043 30.7724 87.667 31.3235 87.9448 32.1265C88.0668 32.4395 88.3039 33.1472 88.4395 33.5078Z" fill="#4A4640"/>
<path d="M52.3965 20.2182C52.3965 20.3339 52.3965 20.4564 52.3016 20.4768L51.7256 20.5108C51.0542 20.5035 50.3875 20.6235 49.7604 20.8647C49.4301 20.9806 49.1158 21.1384 48.8253 21.3342C48.5542 21.5407 48.3359 21.8089 48.1883 22.1167C48.0012 22.4443 47.862 22.7972 47.775 23.1646C47.6187 23.7672 47.5122 24.3816 47.4565 25.0018C47.4565 25.3965 47.3345 26.0225 47.3074 26.4171C47.2599 27.1656 47.2057 28.1047 47.199 28.86C47.1922 29.6153 47.199 30.3501 47.199 31.0986C47.199 31.7451 47.2532 32.2758 47.3006 32.9222C47.3006 33.2625 47.409 34.0654 47.4768 34.6574C47.5215 35.2492 47.6975 35.8234 47.9918 36.3381C48.1581 36.5958 48.3639 36.8254 48.6017 37.0186C48.8438 37.2657 49.1483 37.4421 49.4826 37.5289C50.0537 37.6455 50.6407 37.6616 51.2174 37.5765C51.5125 37.5379 51.8045 37.4788 52.0915 37.3996C52.3287 37.3316 52.3965 37.6786 52.4913 37.9031C52.5862 38.1277 52.5591 38.1481 52.6065 38.291C52.6603 38.4228 52.7011 38.5595 52.7285 38.6993C52.7285 38.7809 52.7963 38.8354 52.7285 38.8762C52.2699 39.0981 51.7774 39.2407 51.2716 39.2981C50.6374 39.3826 49.9948 39.3826 49.3606 39.2981C49.0922 39.2627 48.8271 39.2059 48.5678 39.128C47.7788 38.8348 47.1075 38.2898 46.6568 37.5765C46.3451 37.0625 46.1164 36.5021 45.9792 35.9162C45.8269 35.1217 45.7385 34.3162 45.7149 33.5074C45.7149 33.2625 45.7149 32.827 45.6743 32.5956C45.6743 32.1329 45.6268 31.9152 45.6133 31.5545C45.6133 31.3572 45.6133 31.1939 45.6133 30.9966C45.6133 30.7992 45.6133 30.5407 45.6133 30.3161C45.6133 30.2004 45.6133 29.2614 45.6133 28.7715C45.6133 28.3972 45.6472 28.0094 45.6133 27.6215C45.6133 27.3834 45.6133 27.1588 45.6133 26.9411C45.6133 26.5464 45.6878 25.9068 45.7285 25.5121C45.7691 25.1175 45.7962 24.6548 45.8505 24.1512C45.9047 23.6477 46.0334 22.9196 46.1147 22.559C46.1891 22.2712 46.2842 21.9892 46.3993 21.7152C46.5078 21.4703 46.6501 21.2321 46.7788 20.9939C46.9278 20.7684 47.0907 20.5525 47.2667 20.3475C47.5047 20.0511 47.7997 19.8058 48.1341 19.6262C49.293 19.0674 50.5805 18.8323 51.8611 18.9458C52.1118 18.9458 52.1932 19.1159 52.2677 19.3745C52.3422 19.633 52.349 19.9801 52.3965 20.2182Z" fill="#4A4640"/>
<path d="M62.1266 38.2909C62.1266 38.1072 62.0114 37.2974 61.9775 37.0865C61.8623 36.406 61.8149 35.9569 61.72 35.2629C61.6454 34.7253 61.5438 34.2082 61.4828 33.6638C61.3947 32.8745 61.2727 32.0444 61.1914 31.255C61.1101 30.4657 61.0356 29.724 60.9407 28.9551C60.8255 28.0229 60.7035 27.0975 60.568 26.1653C60.4867 25.5801 60.4189 25.0697 60.3308 24.4845C60.2427 23.8994 60.1614 23.3074 60.0869 22.7562C60.0123 22.205 59.8226 21.3953 59.7413 20.8169C59.66 20.2385 59.6125 19.667 59.5109 19.2723C59.5109 19.1838 59.3889 19.0001 59.3076 18.9865C58.8315 18.9226 58.3507 18.9021 57.871 18.9253C57.4712 18.9253 57.356 19.0477 57.2814 19.3744C57.2069 19.701 57.173 20.0548 57.0917 20.5447C57.0443 20.8101 56.9765 21.2252 56.9426 21.4701C56.8749 22.0145 56.8274 22.3139 56.7326 22.8311C56.7326 23.042 56.658 23.2938 56.6174 23.5115C56.5767 23.7292 56.5089 24.0899 56.4751 24.2464C56.3937 24.607 56.1972 25.6685 56.1295 26.1517C56.0617 26.6348 55.8923 27.5806 55.8787 27.6691C55.8381 28.0229 55.8042 28.3495 55.7568 28.7238C55.7334 29.0956 55.6767 29.4645 55.5874 29.8261C55.4654 30.1935 55.3231 31.3095 55.2824 31.4864C55.2079 31.847 55.1537 32.2485 55.0791 32.6023C55.0046 32.9562 54.8284 33.9632 54.7877 34.2014C54.7132 34.6709 54.4083 36.3312 54.3269 36.7803C54.1914 37.4607 54.0762 38.0595 53.9881 38.5359C53.9178 38.7914 53.8746 39.0537 53.8594 39.3184C53.9475 39.4204 54.4015 39.3864 54.7471 39.3864C55.2824 39.3864 55.4247 39.3864 55.5196 39.1074C55.6483 38.5631 55.7703 37.9234 55.8855 37.1477C55.9533 36.6782 56.0481 36.2427 56.1159 35.7868C56.17 35.4211 56.2492 35.0596 56.3531 34.7049L57.4373 34.7662C58.447 34.8206 59.9785 34.8206 59.9785 34.8206C60.0138 34.9241 60.0365 35.0315 60.0462 35.1404C60.0462 35.399 60.1072 35.6575 60.1343 35.9161C60.1614 36.1747 60.1953 36.5013 60.236 36.7939C60.3512 37.7193 60.4189 38.3589 60.5341 39.1074C60.5341 39.3524 60.6087 39.4 60.7848 39.4068C60.961 39.4136 61.5709 39.4068 61.6929 39.4068C62.0995 39.4068 62.3163 39.4749 62.2553 39.1006C62.2147 38.9169 62.1672 38.529 62.1266 38.2909ZM59.8429 33.1807C59.1653 33.1807 58.3589 33.1399 57.6406 33.0991C57.283 33.1003 56.9256 33.0821 56.5699 33.0446C56.5834 32.7305 56.6265 32.4184 56.6987 32.1124C56.8613 31.0101 57.0239 30.1255 57.173 29.1184C57.3357 27.9957 57.5051 26.8661 57.688 25.7162C57.7829 25.1514 57.8845 24.4505 57.9862 23.8381C57.9862 23.7769 58.2234 22.8787 58.3318 22.3479C58.3356 22.3114 58.3488 22.2764 58.3702 22.2466C58.3916 22.2167 58.4204 22.193 58.4538 22.1778C58.4944 22.1778 58.5486 22.1778 58.5961 22.416C58.6774 22.9127 58.7587 23.702 58.8129 24.2056C58.8875 24.9404 59.1043 26.7573 59.1585 27.0703C59.2127 27.3833 59.3618 28.7101 59.3889 28.9823C59.8294 33.1127 59.809 32.5887 59.8429 33.1807Z" fill="#4A4640"/>
<path d="M44.6107 38.2909C44.6107 38.1072 44.4887 37.2974 44.4548 37.0865C44.3396 36.406 44.2922 35.9569 44.1973 35.2629C44.1228 34.7253 44.0212 34.2082 43.9602 33.6638C43.8721 32.8745 43.7501 32.0444 43.6688 31.255C43.5875 30.4657 43.5129 29.724 43.4181 28.9551C43.3029 28.0229 43.1809 27.0975 43.0521 26.1653C42.964 25.5801 42.8963 25.0697 42.8082 24.4845C42.7201 23.8994 42.6455 23.3074 42.5642 22.7562C42.4829 22.205 42.3067 21.3953 42.2186 20.8169C42.1305 20.2385 42.0899 19.667 41.995 19.2723C41.995 19.1838 41.8663 19.0001 41.7849 18.9865C41.3089 18.9226 40.8281 18.9021 40.3484 18.9253C39.9553 18.9253 39.8333 19.0477 39.7588 19.3744C39.6843 19.701 39.6572 20.0548 39.5691 20.5447C39.5216 20.8101 39.4539 21.2252 39.42 21.4702C39.3522 22.0145 39.3048 22.3139 39.2099 22.8311C39.2099 23.042 39.1354 23.2938 39.0947 23.5115C39.0541 23.7292 38.9863 24.0899 38.9524 24.2464C38.8711 24.607 38.6746 25.6685 38.6068 26.1517C38.5391 26.6348 38.3697 27.5806 38.3629 27.6691C38.3154 28.0229 38.2816 28.3495 38.2341 28.7238C38.2029 29.0893 38.1394 29.4514 38.0444 29.8057C37.9224 30.1731 37.7801 31.2891 37.7394 31.466C37.6649 31.8266 37.6107 32.2281 37.5362 32.5819C37.4616 32.9357 37.2854 33.9428 37.2448 34.181C37.1702 34.6505 36.8653 36.3108 36.784 36.7599C36.6484 37.4403 36.5332 38.0391 36.4452 38.5154C36.3748 38.771 36.3317 39.0333 36.3164 39.298C36.4045 39.4 36.8585 39.366 37.2041 39.366C37.7394 39.366 37.9156 39.366 37.9766 39.087C38.1054 38.5427 38.2273 37.903 38.3425 37.1273C38.4103 36.6578 38.5052 36.2223 38.5797 35.7664C38.63 35.4006 38.707 35.039 38.8101 34.6845L39.8943 34.7457C40.9108 34.8002 42.4355 34.8002 42.4355 34.8002C42.4708 34.9037 42.4935 35.011 42.5032 35.12C42.5371 35.3786 42.5642 35.6371 42.5913 35.8957C42.6184 36.1543 42.6523 36.4809 42.693 36.7735C42.815 37.6989 42.8759 38.3385 42.9911 39.087C43.025 39.332 43.0657 39.3796 43.2419 39.3864C43.4181 39.3932 44.0279 39.3864 44.1499 39.3864C44.5565 39.3864 44.7733 39.4545 44.7123 39.0802C44.692 38.9169 44.6446 38.5291 44.6107 38.2909ZM42.3203 33.1807C41.6426 33.1807 40.8363 33.1399 40.118 33.0991C39.7626 33.1004 39.4074 33.0823 39.0541 33.0446C39.0588 32.7302 39.0998 32.4174 39.176 32.1124C39.3387 31.0101 39.5013 30.1255 39.6504 29.1184C39.813 27.9957 39.9824 26.8661 40.1654 25.7162C40.2603 25.1514 40.3619 24.4505 40.4703 23.8381C40.4703 23.7769 40.7007 22.8787 40.8091 22.3479C40.8129 22.3114 40.8262 22.2764 40.8476 22.2466C40.869 22.2167 40.8978 22.193 40.9311 22.1778C40.9786 22.1778 41.0328 22.1778 41.0734 22.416C41.1547 22.9127 41.2361 23.702 41.2903 24.2056C41.3648 24.9404 41.5817 26.7573 41.6359 27.0703C41.6901 27.3833 41.8392 28.7101 41.873 28.9823C42.3067 33.1127 42.2864 32.5887 42.3203 33.1807Z" fill="#4A4640"/>
<path d="M101.254 26.9686C101.478 26.2881 101.627 25.9275 101.762 25.4988C101.952 24.9408 102.013 24.7299 102.203 24.1379C102.426 23.4575 102.542 23.1921 102.643 22.777C102.779 22.2735 103.023 21.593 103.111 21.2664C103.246 20.7629 103.463 20.0688 103.524 19.9055C103.6 19.5771 103.716 19.2594 103.87 18.9597C103.87 18.9189 103.937 18.8984 104.181 18.8984H105.34C105.564 18.8984 105.442 19.0549 105.34 19.5789C105.239 20.1028 105.049 20.5996 104.757 21.6202C104.466 22.6409 104.337 22.9811 104.08 23.8929C103.741 24.934 103.619 25.6349 103.294 26.6896C102.968 27.7443 102.725 28.5404 102.467 29.3365C102.457 29.4997 102.457 29.6633 102.467 29.8265C102.467 30.575 102.467 30.575 102.467 31.3235C102.467 31.6909 102.467 31.8746 102.467 32.2353C102.467 32.3373 102.467 32.7048 102.467 32.8068C102.446 33.1762 102.446 33.5466 102.467 33.916C102.508 34.474 102.467 34.8006 102.542 35.7532C102.616 36.7058 102.67 37.9579 102.677 38.8969C102.677 39.2507 102.758 39.4072 102.514 39.3936H101.566C101.389 39.4151 101.209 39.4012 101.037 39.3528C100.984 39.13 100.962 38.9012 100.969 38.6723C100.915 37.7265 100.902 36.7875 100.854 35.8621C100.854 35.3585 100.854 35.3381 100.807 34.5624C100.807 34.1269 100.773 33.6166 100.753 33.2015C100.753 32.3714 100.664 31.9223 100.644 31.0921C100.644 30.6362 100.644 30.4865 100.583 30.0782C100.583 30.0782 100.319 29.3978 100.129 29.0235C99.77 28.3091 99.709 28.139 99.4515 27.5742C99.194 27.0094 98.8145 26.3766 98.5299 25.7778L98.3605 25.3763C98.2182 25.0565 98.0895 24.6959 97.9607 24.4033C97.8726 24.1923 97.7777 24.0222 97.6558 23.7909C97.5812 23.6616 97.5745 23.5663 97.5202 23.4575C97.466 23.3486 97.3237 23.1308 97.256 22.9539C96.89 22.0557 96.8494 21.838 96.5783 21.1984C96.3197 20.6567 96.0934 20.1 95.9007 19.5313C95.8194 19.2863 95.6635 19.0209 95.9752 18.9733C96.3158 18.9461 96.6579 18.9461 96.9985 18.9733C97.3712 18.9733 97.5338 18.9189 97.6287 19.1434C97.8319 19.6333 98.0352 20.0416 98.2589 20.5451C98.3334 20.7152 98.5706 21.2256 98.6316 21.3685C98.6821 21.5014 98.7409 21.6309 98.8078 21.7563C98.8509 21.8464 98.8871 21.9397 98.9162 22.0353C98.9717 22.2961 99.0776 22.5435 99.2279 22.7634C99.3258 22.9341 99.4119 23.1115 99.4854 23.2941C99.7497 23.8997 99.9936 24.5054 100.278 25.0973C100.548 25.7487 100.875 26.3749 101.254 26.9686Z" fill="#4A4640"/>
<path d="M71.6626 31.8682C71.6626 31.4736 71.7507 30.031 71.7507 29.8949C71.7507 29.4867 71.6694 29.126 71.6423 28.6837C71.5948 27.8468 71.5813 26.969 71.4796 26.2885C71.372 25.6603 71.2156 25.0415 71.0121 24.4377C70.9511 24.2608 70.9036 24.0567 70.8494 23.8729C70.7252 23.3579 70.529 22.863 70.2667 22.4032C69.9801 21.9278 69.6608 21.473 69.3112 21.0423C68.8703 20.471 68.3076 20.006 67.6645 19.6814C67.3584 19.5027 67.0389 19.348 66.7091 19.2187C66.4518 19.1013 66.1809 19.0167 65.9027 18.9669C65.6785 18.9324 65.4518 18.9165 65.225 18.9193C64.7643 18.9193 64.4593 18.9193 64.2086 19.1914C63.9579 19.4636 63.9511 20.076 63.9579 20.634C63.9579 21.0082 63.9579 21.3961 63.9579 21.6479C63.9579 22.1446 63.9579 23.8865 63.9579 24.1111C63.9172 25.6081 63.9579 26.5675 63.9579 27.3364C63.9579 27.6086 63.9579 28.4252 63.9579 28.5612C63.9985 29.3914 63.9579 29.7316 63.9579 30.6026C63.9579 31.0653 63.9579 31.7321 63.9579 32.1948C63.9579 32.4602 63.9579 34.1954 63.9579 34.2362C63.9579 34.9166 63.9579 35.4882 63.9579 36.1959C63.9579 36.5361 63.9579 37.3595 63.9579 37.6385C63.9333 38.0418 63.9333 38.4463 63.9579 38.8497C63.9693 39.0039 64.0397 39.1478 64.1544 39.2511C64.3936 39.3696 64.6623 39.4146 64.9269 39.3804C65.3091 39.397 65.692 39.3834 66.0721 39.3396C66.5086 39.2636 66.9297 39.1165 67.3189 38.9041C67.5358 38.802 67.9966 38.5162 68.2473 38.3597C68.6265 38.1266 68.9827 37.8577 69.3112 37.5568C69.7729 37.1194 70.1537 36.6034 70.4361 36.0326C70.8035 35.3668 71.075 34.652 71.2425 33.9096C71.4202 33.2375 71.5605 32.556 71.6626 31.8682ZM70.1176 29.405C70.1176 29.8677 70.1176 30.2011 70.1176 30.97C70.0898 31.7184 69.9968 32.463 69.8398 33.1951C69.7541 33.7346 69.5992 34.2606 69.379 34.7601C69.1687 35.1903 68.8996 35.5888 68.5793 35.9441C68.2 36.4503 67.7141 36.8662 67.1563 37.1621C66.711 37.4125 66.2409 37.6155 65.7536 37.7677C65.6113 37.8154 65.591 37.7677 65.591 37.6044C65.591 37.1009 65.6316 36.3388 65.591 35.9373C65.5503 35.5359 65.591 34.9711 65.591 34.5764C65.591 34.0457 65.591 33.4877 65.591 32.9638C65.591 32.3173 65.591 31.807 65.591 31.1674C65.591 30.6706 65.591 30.0174 65.591 29.5207C65.591 28.9015 65.591 28.6089 65.591 27.9897C65.591 27.7515 65.591 26.935 65.5503 26.7036C65.5503 25.8871 65.5503 25.7714 65.5503 25.0909C65.5503 24.533 65.5503 24.2336 65.5503 23.6008C65.5503 23.3762 65.6045 22.7162 65.6045 22.4916C65.6045 21.9745 65.6587 20.5932 65.6587 20.5932C66.2989 20.6885 66.9112 20.9205 67.4545 21.2736C68.0117 21.6278 68.4764 22.1108 68.8097 22.6821C68.912 22.823 69.0005 22.9734 69.074 23.1312C69.2622 23.4887 69.4187 23.8621 69.5416 24.2472C69.6974 24.7303 69.7788 25.2066 69.8872 25.6965C69.9587 26.0086 70.013 26.3243 70.0498 26.6424C70.1244 27.2412 70.1244 27.5814 70.1786 28.2823C70.0769 28.3367 70.1176 28.9219 70.1176 29.405Z" fill="#4A4640"/>
<path d="M75.1376 37.5772C75.2817 37.6116 75.4304 37.6231 75.5781 37.6112C76.2234 37.6534 76.8708 37.6534 77.5161 37.6112C77.9509 37.5669 78.3891 37.5669 78.8239 37.6112C79.0476 37.8154 78.9391 37.8154 78.9527 38.3325C78.9527 38.421 78.9527 38.9245 78.9527 39.013C78.9527 39.1014 78.9527 39.36 78.8036 39.3532C78.6545 39.3464 78.126 39.3055 77.9091 39.3192C77.3196 39.3192 76.4251 39.3192 76.0524 39.3192C75.8965 39.3192 75.2596 39.3192 75.1037 39.3192C74.5952 39.346 74.0854 39.3324 73.579 39.2783C73.4571 39.1218 73.579 39.0606 73.4842 38.8701C73.4337 38.2224 73.4337 37.5717 73.4842 36.924C73.4842 36.7198 73.4842 33.8143 73.4367 33.0794C73.4367 33.0114 73.4367 32.9706 73.4367 32.9433V32.8685C73.4367 32.8073 73.4367 32.7868 73.4367 32.6916C73.4909 32.0656 73.4367 30.5686 73.4367 30.4121C73.4842 30.031 73.5113 28.1666 73.518 27.8127C73.5248 27.4589 73.518 25.2134 73.518 24.914C73.4762 24.2342 73.4762 23.5525 73.518 22.8727C73.518 22.6822 73.4706 21.1307 73.4503 20.8313C73.415 20.4511 73.415 20.0684 73.4503 19.6882C73.4503 19.4568 73.3961 19.0962 73.579 19.0077C73.762 18.9193 73.9788 18.8512 74.4735 18.8852C74.5209 18.8852 75.7271 18.8852 75.7678 18.8852C76.3438 18.8512 77.3602 18.8852 77.6449 18.8852C78.0582 18.8852 78.7426 18.8852 79.1492 18.8852C79.3661 18.8852 79.3051 19.3479 79.2847 19.6065C79.2847 19.7018 79.2847 20.4775 79.217 20.5251C79.0334 20.5601 78.8449 20.5601 78.6613 20.5251C78.3564 20.5251 77.6652 20.5251 77.4348 20.4911C76.7978 20.4602 76.1594 20.4716 75.5238 20.5251C75.2596 20.5251 75.2054 20.5251 75.2325 20.8245C75.2596 21.1239 75.2325 21.2396 75.2325 21.505C75.2325 21.6547 75.2325 22.0357 75.2731 22.2331C75.2731 22.5869 75.2731 23.2605 75.2731 23.6552C75.2731 24.0499 75.3409 25.404 75.368 25.8803C75.368 26.1661 75.368 26.6764 75.368 26.9622C75.368 27.0234 75.368 27.0915 75.368 27.1527C75.368 27.3909 75.368 27.3909 75.639 27.3977C75.9101 27.4045 77.55 27.4589 77.9227 27.3977C78.0183 27.3792 78.1167 27.3799 78.212 27.3998C78.3074 27.4196 78.3979 27.4582 78.4783 27.5133C78.5664 27.6358 78.4784 27.9216 78.5393 28.4932C78.5393 28.6021 78.5393 29.058 78.458 29.1056C78.1059 29.1244 77.753 29.1244 77.4009 29.1056C77.035 29.1056 76.5945 29.1056 76.2286 29.0716C75.9772 29.1078 75.7236 29.126 75.4696 29.126C75.3273 29.126 75.2596 29.1668 75.2731 29.3097C75.2731 29.7044 75.2325 30.31 75.2731 30.7115C75.2731 30.8816 75.2731 34.6785 75.2731 35.0187C75.2731 35.6515 75.2731 36.2775 75.2731 36.9104C75.1794 37.1198 75.1331 37.3476 75.1376 37.5772Z" fill="#4A4640"/>
<path d="M38.3636 12.0599C38.3636 11.9442 38.3636 11.1004 38.3636 10.9848C38.3636 10.8691 38.3975 9.70551 38.3636 9.5422C38.3534 9.35181 38.3534 9.16101 38.3636 8.97062C38.3636 8.71205 38.3094 7.34435 38.3636 7.24228C38.3636 6.88164 38.3162 5.84055 38.3229 5.67724C38.3297 5.51393 38.3229 5.33702 38.3229 5.1601C38.3229 4.98318 38.3229 4.77224 38.3907 4.67698C38.4378 4.62443 38.4989 4.58663 38.5669 4.56811C38.8095 4.50188 39.0614 4.47658 39.3123 4.49326C39.6366 4.49142 39.9552 4.57847 40.2339 4.74502C40.5428 4.93793 40.7972 5.20741 40.9725 5.52754C41.1827 5.9609 41.2784 6.44126 41.2503 6.92247C41.2253 7.3192 41.1118 7.70522 40.9183 8.05201C40.8133 8.30678 40.659 8.53807 40.4643 8.73246C40.4134 8.79192 40.3512 8.84051 40.2813 8.87536L40.4507 8.98423C40.6619 9.14213 40.8491 9.33009 41.0064 9.5422C41.2604 9.88012 41.4364 10.2706 41.5214 10.6854C41.6262 11.1014 41.6808 11.5286 41.684 11.9578C41.6874 12.4161 41.5755 12.8678 41.3587 13.2711C41.2433 13.4561 41.1018 13.6234 40.9386 13.7678C40.8201 13.8743 40.6906 13.9678 40.5524 14.0468C40.4111 14.1291 40.2611 14.1953 40.1051 14.2441C39.9015 14.309 39.6884 14.3389 39.4749 14.3326H38.6482C38.6008 14.3326 38.3568 14.3326 38.3433 14.1284C38.3433 14.0808 38.3433 13.5909 38.3433 13.5296C38.3433 13.4684 38.3636 12.1415 38.3636 12.0599ZM39.1361 13.482C39.1835 13.482 39.5969 13.482 39.6443 13.482C39.9358 13.4296 40.2036 13.2869 40.4101 13.0737C40.628 12.8247 40.7399 12.4998 40.7218 12.1687C40.7218 12.0054 40.7218 11.7605 40.7218 11.5972C40.7133 11.2265 40.6399 10.8603 40.5049 10.5152C40.4133 10.2585 40.265 10.0259 40.0712 9.83479L39.8002 9.549C39.763 9.51183 39.7194 9.48184 39.6714 9.46055C39.6117 9.43376 39.5471 9.41985 39.4817 9.41972H39.0887C39.0887 9.5354 39.0887 9.66468 39.0887 9.76675C39.0887 10.1682 39.048 10.5357 39.0887 10.9371C39.1293 11.3386 39.0887 11.6176 39.0887 11.985C39.1225 12.4749 39.0887 12.9513 39.1361 13.482ZM39.1361 8.65081C39.2414 8.63239 39.3439 8.60037 39.441 8.55555C39.7847 8.32659 40.0422 7.98889 40.1729 7.59611C40.2837 7.35286 40.3393 7.08788 40.3355 6.8204C40.349 6.50086 40.2911 6.18234 40.1661 5.88818C40.0182 5.667 39.8049 5.49802 39.5562 5.40506C39.3733 5.3166 39.0954 5.40506 39.0887 5.60239C39.0819 5.79972 39.0887 6.16036 39.0887 6.3645C39.0887 6.56863 39.0887 6.89525 39.0887 7.1198C39.0887 7.45322 39.0887 7.8819 39.0887 8.331C39.1293 8.42626 39.109 8.50792 39.1158 8.65081H39.1361Z" fill="#4A4640"/>
<path d="M43.3915 13.4687C43.4612 13.4786 43.5319 13.4786 43.6016 13.4687C43.9128 13.4922 44.2254 13.4922 44.5367 13.4687C44.7461 13.4449 44.9575 13.4449 45.1669 13.4687C45.2753 13.5639 45.2211 13.5639 45.2279 13.8157C45.2279 13.8565 45.2279 14.1015 45.2279 14.1491C45.2279 14.1968 45.2279 14.3192 45.1534 14.3124C45.0788 14.3056 44.8281 14.3124 44.7264 14.3124C44.4418 14.3124 44.0082 14.3124 43.832 14.3124C43.6558 14.3124 43.4457 14.3124 43.3712 14.3124C43.1275 14.3292 42.883 14.3292 42.6393 14.3124C42.5783 14.2376 42.6393 14.2036 42.5919 14.1151C42.5683 13.8025 42.5683 13.4886 42.5919 13.1761C42.5919 13.0808 42.5919 11.6791 42.5919 11.3253C42.5965 11.3028 42.5965 11.2797 42.5919 11.2572C42.5919 11.2572 42.5919 11.2164 42.5919 11.1756C42.5919 10.8694 42.5919 10.1481 42.5919 10.0732C42.5919 9.88951 42.6258 8.99131 42.6326 8.8212C42.6393 8.65109 42.6326 7.56917 42.6326 7.42628C42.6143 7.10446 42.6143 6.78186 42.6326 6.46004C42.6326 6.36478 42.6326 5.62309 42.6326 5.48019C42.6151 5.29689 42.6151 5.11233 42.6326 4.92903C42.6326 4.81335 42.6326 4.64324 42.6935 4.5956C42.7545 4.54797 42.8833 4.51395 43.1204 4.53436H43.7439C44.0217 4.53436 44.5096 4.53436 44.6519 4.53436C44.7942 4.53436 45.1805 4.53436 45.377 4.53436C45.5735 4.53436 45.4515 4.75891 45.4447 4.88139C45.438 5.00387 45.4447 5.30327 45.4447 5.32369C45.4447 5.3441 45.255 5.32369 45.1737 5.32369C45.0924 5.32369 44.6926 5.32369 44.5841 5.32369C44.2774 5.30035 43.9693 5.30035 43.6626 5.32369C43.5338 5.32369 43.5135 5.32369 43.5203 5.46658C43.527 5.60948 43.5203 5.66391 43.5203 5.7932C43.5203 5.92248 43.5203 6.05177 43.5203 6.14703C43.5203 6.24229 43.5203 6.64376 43.5203 6.82748C43.5203 7.0112 43.5203 7.67124 43.5677 7.89579C43.6151 8.12034 43.5677 8.28365 43.5677 8.41974C43.5025 8.43401 43.442 8.46442 43.3915 8.50819C43.3915 8.62387 43.3915 8.62387 43.527 8.63068C43.6626 8.63748 44.4486 8.63068 44.6248 8.63068C44.7188 8.61254 44.8161 8.63208 44.8959 8.68511C44.9365 8.74635 44.8959 8.88244 44.8959 9.15462C44.8959 9.20906 44.8959 9.4268 44.8552 9.45402C44.8145 9.48124 44.4757 9.45402 44.347 9.45402C44.1596 9.4642 43.9719 9.4642 43.7845 9.45402C43.6628 9.46467 43.5404 9.46467 43.4186 9.45402C43.3508 9.45402 43.317 9.45402 43.3237 9.54928C43.3237 9.73981 43.3237 10.0256 43.3237 10.2297C43.3237 10.3114 43.3237 12.1418 43.3237 12.2711C43.3237 12.5705 43.3237 12.8767 43.3237 13.1761C43.333 13.2763 43.3558 13.3747 43.3915 13.4687Z" fill="#4A4640"/>
<path d="M46.9272 13.4687C46.9969 13.4786 47.0676 13.4786 47.1373 13.4687C47.4486 13.4922 47.7612 13.4922 48.0725 13.4687C48.2819 13.4449 48.4933 13.4449 48.7027 13.4687C48.8111 13.5639 48.7569 13.5639 48.7636 13.8157C48.7636 13.8565 48.7636 14.1015 48.7636 14.1491C48.7636 14.1968 48.7636 14.3192 48.6891 14.3124C48.6146 14.3056 48.3638 14.3124 48.2622 14.3124C47.9776 14.3124 47.5439 14.3124 47.3609 14.3124C47.2864 14.3124 46.9815 14.3124 46.9069 14.3124C46.6632 14.3292 46.4187 14.3292 46.1751 14.3124C46.1141 14.2376 46.1751 14.2036 46.1276 14.1151C46.1007 13.8027 46.1007 13.4885 46.1276 13.1761C46.1276 13.0808 46.1276 11.6791 46.1276 11.3253C46.1252 11.3026 46.1252 11.2798 46.1276 11.2572C46.1276 11.2572 46.1276 11.2164 46.1276 11.1756C46.1276 10.8694 46.1276 10.1481 46.1276 10.0732C46.1276 9.88951 46.1615 8.99131 46.1683 8.8212C46.1751 8.65109 46.1683 7.56917 46.1683 7.42628C46.1466 7.10457 46.1466 6.78175 46.1683 6.46004C46.1683 6.36478 46.1683 5.62309 46.1683 5.48019C46.1506 5.2969 46.1506 5.11232 46.1683 4.92903C46.1683 4.81335 46.1683 4.64324 46.2293 4.5956C46.2903 4.54797 46.4258 4.51395 46.663 4.53436H47.2864C47.5642 4.53436 48.0521 4.53436 48.1877 4.53436C48.3232 4.53436 48.723 4.53436 48.9195 4.53436C49.116 4.53436 48.994 4.75891 48.9805 4.88139C48.9669 5.00387 48.9805 5.30327 48.9805 5.32369C48.9805 5.3441 48.7908 5.32369 48.7094 5.32369C48.6281 5.32369 48.2283 5.32369 48.1131 5.32369C47.8086 5.30051 47.5028 5.30051 47.1983 5.32369C47.0695 5.32369 47.0424 5.32369 47.056 5.46658C47.0695 5.60948 47.056 5.66391 47.056 5.7932C47.056 5.92248 47.056 6.05177 47.056 6.14703C47.056 6.24229 47.056 6.64376 47.056 6.82748C47.056 7.0112 47.056 7.67124 47.1034 7.89579C47.1509 8.12034 47.1034 8.28365 47.1034 8.41974C47.1034 8.41974 47.1034 8.48098 47.1034 8.50819C47.1034 8.53541 47.1034 8.62387 47.2322 8.63068C47.3609 8.63748 48.1605 8.63068 48.3367 8.63068C48.3821 8.62109 48.429 8.62098 48.4745 8.63034C48.52 8.63971 48.563 8.65835 48.601 8.68511C48.6484 8.74635 48.601 8.88244 48.6349 9.15462C48.6349 9.20906 48.6349 9.4268 48.5942 9.45402C48.5536 9.48124 48.2148 9.45402 48.086 9.45402C47.8964 9.46421 47.7064 9.46421 47.5168 9.45402C47.3973 9.46466 47.2771 9.46466 47.1576 9.45402C47.0831 9.45402 47.056 9.45402 47.056 9.54928C47.056 9.73981 47.056 10.0256 47.056 10.2297C47.056 10.3114 47.056 12.1418 47.056 12.2711C47.056 12.5705 47.056 12.8767 47.056 13.1761C46.9924 13.2631 46.9485 13.3629 46.9272 13.4687Z" fill="#4A4640"/>
<path d="M59.5522 4.47937H59.7487C60.0335 4.49212 60.3086 4.58658 60.5415 4.75155C60.7643 4.88896 60.9578 5.06935 61.1108 5.2823C61.2007 5.41413 61.28 5.55292 61.3479 5.69737C61.4278 5.86787 61.4979 6.04281 61.558 6.22132C61.558 6.22132 61.6122 6.40504 61.619 6.41185V6.50711C61.68 6.75888 61.7681 7.37809 61.7952 7.63666C61.8494 8.1606 61.8562 8.6029 61.8629 8.86827V9.07241C61.8629 9.2153 61.8629 9.97741 61.8629 10.0795V10.1475C61.8629 10.338 61.8629 10.828 61.8629 11.1818C61.8629 11.3111 61.7613 11.9643 61.7477 12.0188V12.0664C61.6752 12.4284 61.5591 12.7803 61.4021 13.1143C61.2136 13.4907 60.934 13.8136 60.589 14.0533C60.2893 14.2385 59.9447 14.3374 59.5929 14.3391C59.4055 14.3408 59.2187 14.3179 59.0372 14.271C58.7657 14.201 58.5133 14.0708 58.2986 13.89C58.1218 13.7431 57.9726 13.5657 57.8581 13.366C57.6874 13.0426 57.5489 12.703 57.4447 12.3522V12.2365C57.4447 12.1548 57.4041 12.08 57.3905 12.0188C57.3431 11.7874 57.2618 11.1682 57.2482 10.9845C57.2347 10.8008 57.2482 9.88214 57.2482 9.73925C57.2482 9.59635 57.2482 9.37181 57.2482 9.2153C57.2482 9.0588 57.2482 8.92951 57.2482 8.73218C57.2482 8.53485 57.2482 8.13339 57.2482 7.86121C57.2482 7.80677 57.2482 7.72512 57.2482 7.62305C57.2482 7.37128 57.3024 7.05827 57.3295 6.9426C57.3905 6.58196 57.4583 6.26215 57.5057 6.09203C57.603 5.72488 57.7866 5.38653 58.0411 5.10538C58.292 4.78776 58.6477 4.57058 59.044 4.49298C59.1578 4.4697 59.2734 4.45604 59.3896 4.45215L59.5522 4.47937ZM60.1146 13.3252C60.3628 13.1965 60.5556 12.9811 60.6567 12.7196C60.782 12.4615 60.8775 12.1898 60.9414 11.9099V11.8759C60.9414 11.7806 61.0294 11.2567 61.0362 11.1954C61.0362 10.8756 61.0362 10.3789 61.0362 10.1883V10.1135C61.0362 9.97741 61.0362 9.31737 61.0362 9.22891C61.0362 9.14045 61.0362 9.07921 61.0362 8.94312C61.0373 8.55669 61.017 8.1705 60.9752 7.78636C60.9433 7.4505 60.8936 7.11661 60.8262 6.78609V6.72485C60.7367 6.39588 60.6046 6.08016 60.4331 5.78583C60.3477 5.67018 60.2421 5.57104 60.1214 5.49324C60.0013 5.41456 59.8642 5.3656 59.7216 5.35034C59.6538 5.35034 59.5861 5.35034 59.5115 5.35034C59.4281 5.34324 59.3442 5.34324 59.2608 5.35034C59.0228 5.38391 58.8069 5.50818 58.6577 5.69737C58.5047 5.87276 58.3914 6.07938 58.3257 6.30297C58.3257 6.38463 58.2511 6.60918 58.1698 7.07869C58.1698 7.19436 58.1156 7.52098 58.0953 7.75914C58.0953 7.8544 58.0953 7.94286 58.0953 8.0041C58.082 8.26477 58.082 8.52595 58.0953 8.78662C58.0953 8.99756 58.0953 9.15406 58.0953 9.29696C58.0953 9.43985 58.0953 9.63718 58.0953 9.78008C58.0953 9.92297 58.0953 10.7803 58.0953 10.93C58.0953 11.0797 58.1766 11.6513 58.2172 11.8555C58.2263 11.9221 58.2398 11.988 58.2579 12.0528C58.2579 12.114 58.2579 12.1753 58.3053 12.2229C58.3863 12.4934 58.4929 12.7554 58.6238 13.0054C58.687 13.105 58.7621 13.1964 58.8474 13.2776C58.9695 13.3862 59.116 13.4632 59.2744 13.5021C59.3982 13.5161 59.5232 13.5161 59.6471 13.5021C59.8127 13.486 59.9725 13.4325 60.1146 13.3456V13.3252Z" fill="#4A4640"/>
<path d="M64.9122 4.49313H65.1088C65.3961 4.50342 65.6741 4.59805 65.9084 4.76531C66.1273 4.90253 66.3181 5.08035 66.4708 5.28926C66.5618 5.42279 66.6411 5.56393 66.708 5.71114C66.7936 5.87906 66.8639 6.05442 66.9181 6.23508C66.9181 6.23508 66.979 6.412 66.979 6.42561C66.9808 6.45734 66.9808 6.48914 66.979 6.52087C67.04 6.76584 67.1281 7.39185 67.1552 7.65042C67.2094 8.16756 67.2162 8.61666 67.223 8.88203C67.2182 8.94773 67.2182 9.01368 67.223 9.07937C67.223 9.22906 67.223 9.98436 67.223 10.0864V10.1613C67.223 10.3518 67.223 10.8417 67.1823 11.1956C67.1823 11.318 67.0807 11.9713 67.0671 12.0325V12.0801C66.9936 12.4419 66.8775 12.7937 66.7215 13.128C66.5332 13.5046 66.2536 13.8275 65.9084 14.0671C65.6065 14.2471 65.2633 14.3456 64.9122 14.3529C64.7253 14.3478 64.5392 14.325 64.3566 14.2848C64.086 14.2143 63.8354 14.0815 63.6247 13.897C63.4496 13.7511 63.3006 13.5762 63.1843 13.3798C63.0129 13.0575 62.8766 12.7176 62.7777 12.3659V12.2503C62.7528 12.1767 62.7324 12.1018 62.7167 12.0257C62.676 11.7944 62.5879 11.182 62.5744 10.9914C62.5608 10.8009 62.5744 9.8891 62.5744 9.75301C62.5744 9.61692 62.5744 9.38557 62.5744 9.22906C62.5744 9.07256 62.5744 8.94328 62.5744 8.74594C62.5715 8.45508 62.5851 8.16429 62.615 7.87497C62.615 7.82053 62.615 7.73207 62.615 7.63681C62.615 7.38505 62.676 7.06523 62.7031 6.91553C62.7641 6.5617 62.8251 6.23508 62.8793 6.07178C62.971 5.72571 63.1428 5.40629 63.3808 5.13956C63.6363 4.82056 63.9967 4.60344 64.3972 4.52716C64.5111 4.50388 64.6267 4.49022 64.7428 4.48633L64.9122 4.49313ZM65.4815 13.339C65.7267 13.2085 65.9168 12.9934 66.0168 12.7334C66.143 12.4709 66.2385 12.1946 66.3014 11.91V11.8692C66.3014 11.7739 66.3895 11.2568 66.3963 11.1888C66.3963 10.8689 66.3963 10.3654 66.3963 10.1817V10.1C66.3963 9.97075 66.3963 9.31072 66.3963 9.22226C66.3963 9.1338 66.3963 9.07256 66.3963 8.92967C66.3963 8.6779 66.3963 8.24922 66.3353 7.7729C66.3016 7.43911 66.2496 7.10745 66.1794 6.77944C66.1794 6.77944 66.1794 6.73181 66.1794 6.7114C66.0882 6.38845 65.9585 6.07773 65.7932 5.78599C65.7077 5.67033 65.6021 5.5712 65.4815 5.49339C65.3599 5.41887 65.2233 5.37239 65.0817 5.3573H64.6276C64.3902 5.39782 64.1744 5.52061 64.0178 5.70433C63.8654 5.88171 63.7543 6.0909 63.6925 6.31674C63.6229 6.56951 63.5686 6.82628 63.5299 7.08565C63.5299 7.20813 63.4756 7.53474 63.4553 7.7661C63.4553 7.86816 63.4553 7.95662 63.4553 8.01106C63.4553 8.24922 63.4553 8.58264 63.4553 8.80038C63.4553 9.01813 63.4553 9.16782 63.4553 9.31072C63.4553 9.45361 63.4553 9.65094 63.4553 9.79384C63.4553 9.93673 63.4553 10.7941 63.4553 10.9438C63.4553 11.0935 63.5366 11.6651 63.5773 11.8692C63.5773 11.8692 63.5773 12.0189 63.6179 12.0597C63.6586 12.1006 63.6179 12.189 63.6654 12.2298C63.7487 12.5027 63.8576 12.767 63.9907 13.0192C64.0496 13.1199 64.1226 13.2115 64.2075 13.2914C64.3312 13.3974 64.4771 13.4742 64.6344 13.5159C64.7583 13.5297 64.8833 13.5297 65.0071 13.5159C65.1743 13.4973 65.3359 13.444 65.4815 13.3594V13.339Z" fill="#4A4640"/>
<path d="M54.6192 9.35183C54.5447 9.35183 54.5243 9.35183 54.5243 9.39946C54.5243 9.56957 54.5243 9.72608 54.5243 9.89619C54.5243 10.2364 54.5243 10.4542 54.5243 10.7944C54.5243 11.1346 54.5243 11.2707 54.5243 11.7606C54.5243 11.9171 54.565 12.7813 54.5243 12.9786C54.4837 13.176 54.5243 13.3189 54.5243 13.4686C54.5243 13.6183 54.5243 13.8156 54.5243 13.9108C54.5243 14.0061 54.565 14.1286 54.5243 14.2715C54.4837 14.4144 54.4634 14.2715 54.4024 14.3327C54.3414 14.394 53.8128 14.3327 53.7789 14.3327C53.7451 14.3327 53.7789 13.8972 53.7789 13.7884C53.7789 13.6795 53.7789 13.3529 53.7789 12.9582C53.7789 12.897 53.7789 12.7473 53.7789 12.4751C53.7789 12.3254 53.7789 12.0396 53.7789 11.7946C53.7789 11.5497 53.7789 11.4816 53.7789 11.1142C53.7789 11.0325 53.7789 10.4337 53.7789 10.3249C53.7789 10.0527 53.7789 9.78051 53.7789 9.50833C53.7891 9.36335 53.7891 9.21783 53.7789 9.07285V8.26991C53.7686 8.09315 53.7686 7.91593 53.7789 7.73916C53.7888 7.56692 53.7888 7.39426 53.7789 7.22202C53.7892 7.11567 53.7892 7.00856 53.7789 6.90221C53.7789 6.57559 53.7383 5.86792 53.7383 5.84751C53.7789 5.62977 53.7383 5.40522 53.7925 5.16706C53.8113 5.01138 53.8743 4.86443 53.974 4.74376C54.0738 4.6231 54.206 4.53382 54.3549 4.48661C54.5625 4.44066 54.7776 4.44066 54.9851 4.48661C55.2535 4.54271 55.5031 4.66687 55.7102 4.84725C55.8186 4.94932 55.8999 5.06499 56.0084 5.16706C56.1192 5.30223 56.2042 5.45679 56.2591 5.62296C56.2997 5.71823 56.3201 5.81349 56.3539 5.91556C56.4222 6.13583 56.4565 6.36531 56.4556 6.59601C56.4623 6.87493 56.4234 7.15307 56.3404 7.41935C56.2701 7.69566 56.1581 7.95956 56.0084 8.20187L55.9067 8.35837C55.778 8.50127 55.7712 8.58973 55.6357 8.71901C55.5001 8.8483 55.3239 9.01841 55.3443 9.04563C55.412 9.37905 55.5814 9.6036 55.6628 9.94382C55.7441 10.284 55.8932 10.6651 55.988 11.0325C56.0829 11.4 56.1507 11.5429 56.2726 11.9852C56.3611 12.2602 56.4357 12.5396 56.4963 12.8221C56.5843 13.1487 56.6453 13.3529 56.747 13.6727C56.8093 13.8235 56.8393 13.9858 56.8351 14.149C56.8351 14.2987 56.5911 14.2647 56.4149 14.2647C56.3097 14.2846 56.2017 14.2846 56.0964 14.2647C55.9665 14.0134 55.8795 13.742 55.839 13.4618C55.839 13.4618 55.5272 12.2233 55.4188 11.8627C55.3104 11.5021 55.1003 10.7399 55.0258 10.4542C54.9376 10.1367 54.8289 9.82528 54.7005 9.52194C54.6599 9.48112 54.6599 9.44029 54.6192 9.35183ZM54.5243 7.99093C54.5145 8.1609 54.5145 8.3313 54.5243 8.50127C54.5243 8.57612 54.5582 8.59653 54.626 8.56931C54.7414 8.52183 54.8403 8.44139 54.9106 8.33796C55.0848 8.11149 55.239 7.87014 55.3714 7.61668C55.4957 7.4078 55.5785 7.17673 55.6153 6.93623C55.6599 6.71162 55.6599 6.48039 55.6153 6.25578C55.5823 6.09048 55.5128 5.93471 55.412 5.79988C55.3361 5.69574 55.2447 5.60394 55.141 5.5277C55.0398 5.45631 54.919 5.41826 54.7954 5.41883C54.748 5.41883 54.5786 5.41883 54.5514 5.45965C54.5349 5.55648 54.5349 5.65543 54.5514 5.75225C54.5514 5.90875 54.5514 6.11289 54.5514 6.27619C54.5862 6.72916 54.5862 7.18413 54.5514 7.6371C54.536 7.76357 54.5269 7.89075 54.5243 8.01815V7.99093Z" fill="#4A4640"/>
<path d="M51.6437 6.84086C51.6437 7.28315 51.5759 10.9236 51.5827 10.9236C51.5895 10.9236 51.5827 11.4747 51.5827 11.4951C51.5827 11.5156 51.5827 11.917 51.5827 12.4818V13.6454C51.5827 13.6794 51.5827 13.8495 51.5827 14.0877C51.5863 14.1466 51.5863 14.2057 51.5827 14.2646C51.5895 14.2821 51.5895 14.3015 51.5827 14.319C51.5827 14.319 51.5082 14.319 51.4133 14.319H51.149C50.8576 14.319 50.8305 14.319 50.8305 14.319V13.8291C50.8305 13.5977 50.8305 13.2371 50.8305 13.0193C50.8305 12.8016 50.8305 12.4478 50.8305 12.2164C50.8305 12.2164 50.878 11.5836 50.8848 11.2638C50.8848 11.2025 50.8848 11.1345 50.8848 11.0665C50.8848 10.7534 50.8848 10.4472 50.8848 10.1342C50.8848 9.82123 50.8848 9.65792 50.8848 9.39255C50.8848 9.12717 50.8848 8.90943 50.8848 8.67127C50.8848 8.58281 50.8848 8.49435 50.8848 8.4127C50.8848 8.14052 50.8848 7.79349 50.8848 7.52811C50.8848 7.42604 50.8848 7.32398 50.8848 7.22191C50.8848 6.97014 50.8848 6.71838 50.8848 6.46661C50.8848 6.41898 50.8848 6.20804 50.8848 6.08556C50.9017 5.85906 50.9017 5.6316 50.8848 5.40511C50.7635 5.38564 50.64 5.38564 50.5188 5.40511C50.3155 5.40511 50.2274 5.40511 49.9293 5.40511C49.7789 5.4286 49.6257 5.4286 49.4753 5.40511C49.4638 5.26699 49.4638 5.12815 49.4753 4.99003C49.451 4.85732 49.451 4.72127 49.4753 4.58856C49.5964 4.56813 49.7201 4.56813 49.8412 4.58856C50.2003 4.58856 50.3765 4.58856 50.695 4.58856C51.0135 4.58856 51.3049 4.58856 51.6437 4.58856C51.9825 4.58856 52.2265 4.58856 52.484 4.58856C52.5653 4.58856 52.8025 4.58856 53.121 4.58856C53.3175 4.58856 53.2158 4.67022 53.2429 4.84033C53.2747 5.01581 53.2747 5.1956 53.2429 5.37108C53.1189 5.41426 52.9877 5.43275 52.8567 5.42552C52.6127 5.42552 52.5382 5.42552 52.1384 5.42552H51.7589C51.7589 5.57522 51.7589 5.92225 51.7589 6.25567C51.6302 6.20804 51.6437 6.84086 51.6437 6.84086Z" fill="#4A4640"/>
<path d="M69.4523 6.84076C69.4523 7.28305 69.3845 10.9235 69.3913 10.9235C69.3981 10.9235 69.3913 11.4746 69.3913 11.495C69.3913 11.5155 69.3913 11.9169 69.3913 12.4817V13.6453C69.3913 13.6793 69.3913 13.8494 69.3913 14.0876C69.3949 14.1465 69.3949 14.2056 69.3913 14.2645C69.3981 14.282 69.3981 14.3014 69.3913 14.3189C69.3913 14.3189 69.3168 14.3189 69.2219 14.3189H68.9576C68.6662 14.3189 68.6391 14.3189 68.6391 14.3189V12.9988C68.6391 12.7675 68.6391 12.4273 68.6391 12.1959C68.6391 12.1959 68.6866 11.5631 68.6933 11.2433C68.6933 11.182 68.6933 11.114 68.6933 11.0459C68.6933 10.7329 68.6933 10.4267 68.6933 10.1137C68.6933 9.80072 68.6933 9.63741 68.6933 9.37204C68.6933 9.10666 68.6933 8.88892 68.6933 8.65076C68.6933 8.5623 68.6933 8.47384 68.6933 8.39219C68.6933 8.12001 68.6933 7.77298 68.6933 7.5076C68.6933 7.40553 68.6933 7.30347 68.6933 7.2014C68.6933 6.94963 68.6933 6.69787 68.6933 6.4461C68.6933 6.39847 68.6933 6.18753 68.6933 6.06505C68.7103 5.83855 68.7103 5.61109 68.6933 5.3846C68.5721 5.36514 68.4486 5.36514 68.3274 5.3846C68.1241 5.3846 68.036 5.3846 67.7379 5.3846C67.5874 5.40809 67.4343 5.40809 67.2839 5.3846C67.2724 5.24648 67.2724 5.10764 67.2839 4.96952C67.2595 4.83681 67.2595 4.70076 67.2839 4.56806C67.405 4.54763 67.5287 4.54763 67.6498 4.56806C68.0089 4.56806 68.1851 4.56806 68.5036 4.56806C68.8221 4.56806 69.1135 4.56806 69.4523 4.56806C69.7911 4.56806 70.0351 4.56806 70.2926 4.56806C70.3739 4.56806 70.6178 4.56806 70.9295 4.56806C71.1261 4.56806 71.0244 4.64971 71.0515 4.81982C71.0833 4.9953 71.0833 5.1751 71.0515 5.35057C70.9275 5.39376 70.7963 5.41225 70.6653 5.40501C70.4213 5.40501 70.3468 5.40501 69.947 5.40501H69.5675C69.5675 5.55471 69.5675 5.90174 69.5675 6.23516C69.4455 6.20794 69.4523 6.84076 69.4523 6.84076Z" fill="#4A4640"/>
</svg>
