<svg width="28" height="20" viewBox="0 0 28 20" fill="none" xmlns="http://www.w3.org/2000/svg">
<path d="M24.2817 0.194336H3.9658C2.28283 0.194336 0.900391 1.51667 0.900391 3.19964V16.423C0.900391 18.106 2.28283 19.4283 3.9658 19.4283H24.2817C25.9647 19.4283 27.3471 18.106 27.3471 16.423V3.19964C27.3471 1.51667 25.9647 0.194336 24.2817 0.194336ZM17.4296 8.84962L25.9045 2.29805C26.0248 2.59858 26.145 2.89911 26.145 3.19964V16.423C26.145 16.7235 26.0849 16.9639 25.9647 17.2044L17.4296 8.84962ZM24.2817 1.39646C24.5221 1.39646 24.7625 1.45657 24.9428 1.51667L14.4243 9.631L3.30464 1.51667C3.48495 1.45657 3.72538 1.39646 3.9658 1.39646H24.2817ZM2.34294 17.2044C2.22273 16.9639 2.10251 16.7235 2.10251 16.423V3.19964C2.10251 2.89911 2.22273 2.59858 2.34294 2.35816L10.9982 8.72941L2.34294 17.2044ZM3.9658 18.2262C3.66527 18.2262 3.42485 18.1661 3.18442 18.0459L12.02 9.39058L14.4243 11.1337L16.4078 9.57089L25.003 17.9858C24.7625 18.106 24.5221 18.1661 24.2216 18.1661H3.9658V18.2262Z" fill="#FF6D54"/>
</svg>

