<?xml version="1.0" encoding="utf-8"?>
<!-- Generator: Adobe Illustrator 23.0.3, SVG Export Plug-In . SVG Version: 6.00 Build 0)  -->
<svg version="1.1" id="Layer_1" xmlns="http://www.w3.org/2000/svg" xmlns:xlink="http://www.w3.org/1999/xlink" x="0px" y="0px"
	 viewBox="0 0 66.8 66.8" style="enable-background:new 0 0 66.8 66.8;" xml:space="preserve">
<style type="text/css">
	.st0{fill:#FFFFFF;}
	.st1{fill:#FF6D54;}
</style>
<g>
	<circle class="st0" cx="33.4" cy="33.4" r="33.4"/>
</g>
<path class="st1" d="M43.5,25H23.2c-1.7,0-3.1,1.3-3.1,3v13.2c0,1.7,1.4,3,3.1,3h20.3c1.7,0,3.1-1.3,3.1-3V28
	C46.6,26.3,45.2,25,43.5,25z M36.7,33.7l8.5-6.6c0.1,0.3,0.2,0.6,0.2,0.9v13.2c0,0.3-0.1,0.5-0.2,0.8L36.7,33.7z M43.5,26.2
	c0.2,0,0.5,0.1,0.7,0.1l-10.5,8.1l-11.1-8.1c0.2-0.1,0.4-0.1,0.7-0.1H43.5z M21.6,42c-0.1-0.2-0.2-0.5-0.2-0.8V28
	c0-0.3,0.1-0.6,0.2-0.8l8.7,6.4L21.6,42z M23.2,43c-0.3,0-0.5-0.1-0.8-0.2l8.8-8.7l2.4,1.7l2-1.6l8.6,8.4C44,42.9,43.8,43,43.5,43
	L23.2,43L23.2,43z"/>
</svg>
