<svg width="774" height="876" viewBox="0 0 774 808" fill="none" xmlns="http://www.w3.org/2000/svg" y="-168px">
<mask id="path-1-inside-1" fill="white">
<path d="M774 281.029C774 494.637 600.836 667.8 387.228 667.8C173.62 667.8 0.457031 494.637 0.457031 281.029C0.457031 67.4212 173.62 -105.742 387.228 -105.742C600.836 -105.742 774 67.4212 774 281.029ZM142.31 281.029C142.31 416.294 251.964 525.947 387.228 525.947C522.493 525.947 632.146 416.294 632.146 281.029C632.146 145.765 522.493 36.1112 387.228 36.1112C251.964 36.1112 142.31 145.765 142.31 281.029Z"/>
</mask>
<path d="M622 281.029C622 410.69 516.889 515.8 387.228 515.8V819.8C684.784 819.8 926 578.584 926 281.029H622ZM387.228 515.8C257.568 515.8 152.457 410.69 152.457 281.029H-151.543C-151.543 578.584 89.6732 819.8 387.228 819.8V515.8ZM152.457 281.029C152.457 151.369 257.568 46.2578 387.228 46.2578V-257.742C89.6732 -257.742 -151.543 -16.526 -151.543 281.029H152.457ZM387.228 46.2578C516.889 46.2578 622 151.369 622 281.029H926C926 -16.526 684.784 -257.742 387.228 -257.742V46.2578ZM-9.68961 281.029C-9.68961 500.241 168.017 677.947 387.228 677.947V373.947C335.911 373.947 294.31 332.346 294.31 281.029H-9.68961ZM387.228 677.947C606.44 677.947 784.146 500.241 784.146 281.029H480.146C480.146 332.346 438.546 373.947 387.228 373.947V677.947ZM784.146 281.029C784.146 61.8174 606.44 -115.889 387.228 -115.889V188.111C438.546 188.111 480.146 229.712 480.146 281.029H784.146ZM387.228 -115.889C168.017 -115.889 -9.68961 61.8174 -9.68961 281.029H294.31C294.31 229.712 335.911 188.111 387.228 188.111V-115.889Z" fill="#F2F0FF" mask="url(#path-1-inside-1)"/>
<path d="M314.239 223.177C314.435 210.794 314.632 173.646 273.16 173.646C251.269 173.646 233.053 196.282 232.669 210.411C232.107 230.74 247.388 237.11 258.245 237.11C278.592 237.11 292.107 220.139 293.704 220.861C297.575 222.598 302.419 225.894 304.364 227.827C304.971 228.433 314.23 223.952 314.239 223.177Z" fill="#FFD561"/>
<path d="M258.245 237.555C250.797 237.555 243.58 234.713 238.932 229.938C234.258 225.137 232.001 218.562 232.224 210.393C232.625 195.703 251.127 173.2 273.161 173.2C286.015 173.2 296.06 176.781 303.027 183.846C315.105 196.095 314.793 215.774 314.677 223.186C314.659 224.397 307.237 227.524 307.157 227.551C304.722 228.54 304.284 228.388 304.035 228.139C302.188 226.295 297.407 223.016 293.508 221.261C293.214 221.306 291.814 222.464 290.449 223.578C284.963 228.121 273.5 237.555 258.245 237.555ZM273.161 174.091C259.94 174.091 249.949 182.207 245.168 187.044C238.04 194.26 233.303 203.436 233.116 210.42C232.902 218.34 235.07 224.7 239.575 229.324C244.053 233.92 251.038 236.664 258.245 236.664C273.178 236.664 284.472 227.364 289.896 222.892C292.42 220.807 293.25 220.166 293.883 220.451C297.826 222.224 302.652 225.529 304.597 227.435H304.606C305.801 227.435 313.009 224.014 313.785 223.079C313.901 215.703 314.151 196.407 302.384 184.469C295.605 177.583 285.765 174.091 273.161 174.091Z" fill="#505052"/>
<path d="M294.089 221.493C293.999 221.493 293.919 221.467 293.839 221.422C279.726 211.961 266.426 214.215 258.692 219.489C258.487 219.623 258.21 219.578 258.076 219.373C257.934 219.168 257.987 218.892 258.192 218.759C266.167 213.324 279.86 210.981 294.338 220.692C294.544 220.825 294.597 221.101 294.463 221.306C294.374 221.422 294.231 221.493 294.089 221.493Z" fill="#505052"/>
<path d="M379.823 357.571C350.947 349.589 321.982 331.718 330.127 303.086C333.41 291.541 349.119 293.652 354.15 294.962C359.636 296.378 375.309 303.015 390.492 309.224C400.769 323.148 397.317 350.506 379.823 357.571Z" fill="#5A558D"/>
<path d="M379.85 358.043L379.708 357.998C348.334 349.321 336.595 335.504 332.393 328.03C328.067 320.342 327.157 311.906 329.699 302.962C332.803 292.04 347.13 292.672 354.266 294.525C358.789 295.692 370.297 300.432 382.473 305.438C385.176 306.552 387.933 307.683 390.671 308.806L390.787 308.85L390.858 308.948C396.568 316.681 398.28 328.663 395.212 339.469C392.66 348.466 387.255 355.041 379.993 357.972L379.85 358.043ZM345.738 294.347C339.378 294.347 332.527 296.307 330.564 303.211C328.084 311.924 328.967 320.128 333.178 327.603C337.308 334.934 348.851 348.52 379.806 357.107C386.737 354.248 391.902 347.914 394.364 339.237C397.335 328.734 395.711 317.117 390.216 309.59C387.522 308.485 384.801 307.371 382.134 306.267C369.984 301.269 358.512 296.539 354.043 295.389C351.804 294.81 348.825 294.347 345.738 294.347Z" fill="#505052"/>
<path d="M307.486 425.667L222.178 665.002H164.391L235.282 410.763L307.486 425.667Z" fill="#FF6D54"/>
<path d="M222.5 665.448H163.803L163.963 664.886L234.971 410.246L235.381 410.326L308.084 425.337L307.915 425.818L222.5 665.448ZM164.98 664.557H221.867L306.898 425.996L235.604 411.279L164.98 664.557Z" fill="#505052"/>
<path d="M236.505 767.548L235.283 770.354H195.007C178.361 768.572 173.561 754.933 172.188 746.675C171.956 745.303 170.056 745.16 169.619 746.47L161.742 770.354H135.016L164.391 665.002H222.179L204.899 713.482C201.545 722.889 207.727 732.991 217.647 734.283C233.445 736.359 242.856 752.955 236.505 767.548Z" fill="#5A558D"/>
<path d="M235.577 770.799H195.006C177.941 768.973 173.115 754.951 171.75 746.746C171.661 746.239 171.278 746.034 170.947 746.007C170.626 745.989 170.207 746.123 170.046 746.604L162.071 770.79H134.436L134.596 770.229L164.061 664.548H222.821L222.607 665.145L205.327 713.625C203.775 717.981 204.266 722.747 206.692 726.693C209.11 730.631 213.124 733.232 217.718 733.838C225.39 734.845 231.973 739.281 235.782 746.007C239.591 752.724 240.002 760.644 236.924 767.726L235.577 770.799ZM170.867 745.116C170.912 745.116 170.965 745.116 171.01 745.125C171.84 745.187 172.482 745.784 172.625 746.604C173.945 754.559 178.619 768.154 195.051 769.917H234.988L236.094 767.378C239.065 760.555 238.664 752.929 234.997 746.452C231.322 739.976 224.979 735.7 217.593 734.729C212.731 734.096 208.485 731.344 205.925 727.166C203.365 722.987 202.839 717.945 204.489 713.331L221.554 665.448H164.73L135.604 769.908H161.42L169.199 746.328C169.449 745.588 170.109 745.116 170.867 745.116Z" fill="#505052"/>
<path d="M452.554 660.708L451.332 663.514H411.055C394.41 661.732 389.61 648.093 388.237 639.835C388.005 638.463 386.104 638.321 385.667 639.63L377.791 663.514H351.064L380.44 558.162H438.227L420.948 606.642C417.594 616.05 423.776 626.152 433.696 627.443C449.494 629.519 458.905 646.116 452.554 660.708Z" fill="#5A558D"/>
<path d="M451.626 663.96H411.055C393.99 662.133 389.164 648.111 387.799 639.907C387.71 639.399 387.326 639.194 386.996 639.167C386.666 639.149 386.256 639.283 386.095 639.764L378.12 663.951H350.484L380.11 557.708H438.869L438.655 558.305L421.376 606.785C419.824 611.15 420.315 615.907 422.741 619.854C425.159 623.791 429.173 626.401 433.767 626.998C441.439 628.005 448.022 632.441 451.831 639.167C455.64 645.884 456.05 653.804 452.973 660.886L452.562 660.708L452.973 660.886L451.626 663.96ZM386.916 638.276C386.961 638.276 387.014 638.276 387.059 638.285C387.888 638.348 388.531 638.945 388.673 639.764C389.994 647.719 394.668 661.314 411.1 663.078H451.037L452.143 660.539C455.114 653.715 454.712 646.089 451.046 639.613C447.371 633.136 441.028 628.86 433.642 627.889C428.78 627.257 424.534 624.504 421.974 620.335C419.414 616.157 418.887 611.114 420.538 606.5L437.603 558.617H380.788L351.662 663.078H377.478L385.257 639.497C385.489 638.749 386.149 638.276 386.916 638.276Z" fill="#505052"/>
<path d="M246.461 770.8H113.901C113.651 770.8 113.455 770.604 113.455 770.354C113.455 770.105 113.651 769.909 113.901 769.909H245.783L260.993 715.345H336.157L350.725 663.105H457.673L542.232 330.836C542.294 330.596 542.535 330.453 542.776 330.516C543.017 330.578 543.159 330.819 543.097 331.059L458.369 663.996H351.403L336.835 716.235H261.67L246.461 770.8Z" fill="#505052"/>
<path d="M442.117 423.047C466.532 423.047 471.135 441.22 465.756 460.195C458.834 484.605 438.317 557.904 438.317 557.904H380.529L398.254 494.333C399.351 490.395 396.461 486.466 392.367 486.351L298.941 483.607L310.565 419.181L442.117 423.047Z" fill="#FF6D54"/>
<path d="M438.647 558.349H379.931L397.817 494.208C398.299 492.462 397.969 490.627 396.889 489.166C395.81 487.705 394.16 486.841 392.349 486.787L298.406 484.035L298.495 483.527L310.19 418.727L310.574 418.735L442.126 422.602C452.019 422.602 459.262 425.533 463.642 431.314C468.691 437.987 469.601 448.285 466.193 460.32C459.351 484.453 438.959 557.289 438.754 558.029L438.647 558.349ZM381.109 557.458H437.969C439.467 552.113 458.709 483.375 465.319 460.08C468.656 448.329 467.799 438.299 462.92 431.858C458.718 426.308 451.715 423.502 442.108 423.502H442.099L310.931 419.644L299.468 483.179L392.376 485.905C394.463 485.968 396.372 486.966 397.612 488.649C398.852 490.333 399.244 492.444 398.682 494.458L381.109 557.458Z" fill="#505052"/>
<path d="M406.46 486.797H392.356C392.106 486.797 391.91 486.601 391.91 486.352C391.91 486.102 392.106 485.906 392.356 485.906H406.46C406.709 485.906 406.906 486.102 406.906 486.352C406.906 486.601 406.709 486.797 406.46 486.797Z" fill="#505052"/>
<path d="M408.039 417.32C409.672 417.427 410.813 418.995 410.385 420.571C387.673 504.534 310.858 566.323 219.592 566.323C206.648 566.323 193.999 565.085 181.751 562.706C180.868 562.537 180.35 561.611 180.654 560.773L237.897 401.187H319.27C317.272 406.033 320.617 411.413 325.863 411.77L408.039 417.32Z" fill="#FFD561"/>
<path d="M219.592 566.769C206.818 566.769 194.061 565.548 181.662 563.143C181.118 563.036 180.645 562.698 180.368 562.217C180.092 561.727 180.038 561.147 180.226 560.622L237.576 400.741H319.931L319.672 401.356C318.771 403.53 318.976 405.926 320.216 407.93C321.456 409.935 323.526 411.164 325.872 411.325L408.048 416.874C408.967 416.937 409.797 417.4 410.332 418.148C410.858 418.888 411.028 419.814 410.787 420.687C387.558 506.699 308.923 566.769 219.592 566.769ZM238.218 401.632L181.073 560.925C180.975 561.21 181.002 561.522 181.144 561.78C181.296 562.038 181.546 562.217 181.831 562.279C194.168 564.675 206.88 565.887 219.592 565.887C308.521 565.887 386.799 506.093 409.948 420.465C410.118 419.85 409.993 419.2 409.627 418.674C409.253 418.139 408.655 417.81 408.004 417.774L325.827 412.224C323.187 412.046 320.867 410.656 319.467 408.411C318.182 406.354 317.888 403.922 318.628 401.641H238.218V401.632Z" fill="#505052"/>
<path d="M325.863 412.215H312.303C312.054 412.215 311.857 412.019 311.857 411.77C311.857 411.52 312.054 411.324 312.303 411.324H325.863C326.113 411.324 326.309 411.52 326.309 411.77C326.309 412.019 326.113 412.215 325.863 412.215Z" fill="#505052"/>
<path d="M346.014 330.952C338.654 361.134 319.27 401.187 319.27 401.187H237.896C237.896 401.187 256.112 307.728 268.512 302.312C277.771 298.267 288.94 297.964 292.928 293.412C295.639 290.312 299.903 281.029 299.903 281.029L328.574 284.513L328.191 293.029C328.191 293.029 341.206 292.325 351.973 294.383" fill="#5A558D"/>
<path d="M319.556 401.632H237.361L237.468 401.098C238.218 397.276 255.872 307.354 268.343 301.902C272.187 300.227 276.425 299.167 280.171 298.231C285.631 296.868 290.341 295.692 292.598 293.118C295.238 290.107 299.457 280.931 299.502 280.842L299.636 280.548L329.047 284.12L328.663 292.557C331.152 292.459 342.544 292.12 352.062 293.937C352.303 293.982 352.464 294.213 352.419 294.463C352.374 294.703 352.134 294.864 351.902 294.819C341.313 292.797 328.36 293.465 328.226 293.474L327.736 293.501L328.128 284.904L300.189 281.51C299.422 283.149 295.764 290.873 293.284 293.706C290.849 296.485 286.005 297.697 280.403 299.095C276.514 300.066 272.491 301.073 268.717 302.721C257.147 307.772 239.975 393.16 238.467 400.741H319.02C320.671 397.285 338.646 359.397 345.613 330.845C345.675 330.605 345.907 330.462 346.148 330.516C346.389 330.578 346.531 330.818 346.478 331.05C339.19 360.938 319.903 400.973 319.707 401.374L319.556 401.632Z" fill="#505052"/>
<path d="M327.995 299.906H327.986C327.736 299.897 327.549 299.692 327.549 299.443L327.745 293.011C327.754 292.761 327.977 292.574 328.2 292.583C328.45 292.592 328.637 292.797 328.637 293.047L328.441 299.478C328.432 299.719 328.236 299.906 327.995 299.906Z" fill="#505052"/>
<path d="M566.113 311.406C564.784 314.72 563.749 314.569 563.205 315.665C563.008 316.048 560.876 321.081 558.744 324.368C554.409 331.058 546.541 333.66 542.857 331.335C540.805 330.043 534.721 334.239 519.413 333.66C516.309 333.544 458.076 361.73 423.508 363.842C416.131 364.296 398.165 362.639 379.824 357.57C397.317 350.506 400.77 323.148 390.493 309.224C406.265 315.682 421.519 321.678 424.284 320.885C444.668 315.068 510.546 292.44 525.426 289.545C532.402 288.191 537.049 291.478 537.049 291.478C537.049 291.478 545.185 291.086 551.777 291.086C562 291.086 570.573 295.923 566.889 304.44C566.505 305.331 568.048 306.569 566.113 311.406Z" fill="#FF6D54"/>
<path d="M420.966 364.358C412.964 364.358 396.961 362.773 379.708 358.007L378.441 357.659L379.664 357.169C386.666 354.345 391.885 347.976 394.356 339.245C397.344 328.698 395.685 317.019 390.136 309.5L389.191 308.217L390.663 308.823C400.573 312.876 421.189 321.321 424.159 320.466C432.125 318.194 447.219 313.295 463.187 308.11C488.057 300.039 516.255 290.89 525.336 289.117C531.849 287.852 536.344 290.498 537.174 291.032C538.307 290.979 545.738 290.649 551.777 290.649C558.78 290.649 564.596 292.885 566.969 296.493C568.485 298.801 568.601 301.607 567.299 304.627C567.236 304.769 567.29 305.019 567.361 305.366C567.575 306.391 567.923 308.101 566.532 311.584C565.631 313.847 564.828 314.578 564.248 315.121C563.963 315.379 563.766 315.575 563.606 315.878C563.579 315.932 563.508 316.092 563.401 316.324C562.794 317.678 560.956 321.802 559.119 324.626C554.587 331.628 546.523 334.185 542.616 331.726C541.964 331.317 540.519 331.664 538.343 332.181C534.748 333.036 528.735 334.47 519.395 334.114C519.386 334.114 519.386 334.114 519.378 334.114C518.637 334.114 513.891 336.074 507.888 338.559C488.905 346.399 449.414 362.719 423.526 364.305C422.812 364.332 421.947 364.358 420.966 364.358ZM381.162 357.472C399.949 362.523 417.023 363.797 423.481 363.396C449.217 361.828 488.619 345.544 507.558 337.722C515.185 334.568 518.557 333.161 519.431 333.214C528.646 333.562 534.587 332.145 538.138 331.299C540.626 330.702 542.125 330.346 543.097 330.96C546.585 333.161 554.177 330.604 558.369 324.128C560.162 321.357 561.982 317.286 562.58 315.941C562.696 315.691 562.767 315.522 562.803 315.46C563.026 315.005 563.32 314.738 563.633 314.453C564.186 313.945 564.864 313.313 565.693 311.237C566.987 308.003 566.665 306.453 566.478 305.535C566.38 305.072 566.3 304.662 566.469 304.262C567.665 301.5 567.575 299.05 566.211 296.974C563.998 293.616 558.467 291.531 551.759 291.531C545.256 291.531 537.138 291.914 537.058 291.923L536.906 291.932L536.782 291.843C536.737 291.808 532.196 288.681 525.497 289.981C516.469 291.736 488.298 300.885 463.454 308.947C447.469 314.132 432.375 319.032 424.391 321.312C421.733 322.07 409.44 317.455 391.697 310.204C396.711 317.936 398.093 329.232 395.194 339.477C392.804 347.993 387.835 354.327 381.162 357.472Z" fill="#505052"/>
<path d="M435.756 323.041C435.747 323.041 435.729 323.041 435.72 323.041C435.631 323.032 427.014 322.266 422.848 321.384C422.607 321.33 422.455 321.099 422.5 320.858C422.545 320.618 422.794 320.466 423.026 320.511C427.139 321.384 435.702 322.141 435.792 322.15C436.041 322.168 436.22 322.39 436.193 322.631C436.175 322.871 435.979 323.041 435.756 323.041Z" fill="#505052"/>
<path d="M519.422 334.105C519.395 334.105 519.368 334.105 519.341 334.096C515.291 333.321 511.188 331.967 511.143 331.949C510.911 331.869 510.787 331.62 510.858 331.388C510.938 331.156 511.188 331.032 511.42 331.103C511.456 331.121 515.506 332.457 519.502 333.214C519.743 333.259 519.903 333.49 519.859 333.731C519.814 333.954 519.627 334.105 519.422 334.105Z" fill="#505052"/>
<path d="M546.104 312.876C539.77 312.876 531.305 304.734 530.93 304.368C530.751 304.199 530.751 303.914 530.921 303.736C531.09 303.558 531.376 303.558 531.554 303.727C531.644 303.816 540.653 312.493 546.648 311.958C548.093 311.825 549.208 311.183 550.056 309.981C553.258 305.473 548.263 301.375 541.929 296.19C540.225 294.792 538.459 293.349 536.746 291.799C536.559 291.629 536.55 291.353 536.71 291.166C536.88 290.988 537.156 290.97 537.344 291.13C539.039 292.663 540.796 294.097 542.491 295.496C548.914 300.76 554.462 305.313 550.778 310.489C549.779 311.887 548.414 312.68 546.719 312.831C546.523 312.867 546.309 312.876 546.104 312.876Z" fill="#505052"/>
<path d="M525.247 320.03C522.044 320.03 518.485 319.228 514.792 317.624C514.569 317.526 514.462 317.268 514.56 317.036C514.658 316.814 514.926 316.707 515.149 316.805C521.955 319.762 528.28 319.914 532.481 317.232C535.309 315.424 536.915 312.529 536.995 309.072C537.004 308.823 537.191 308.654 537.45 308.636C537.7 308.645 537.887 308.85 537.887 309.09C537.798 312.796 536.005 316.03 532.954 317.981C530.822 319.344 528.182 320.03 525.247 320.03Z" fill="#505052"/>
<path d="M550.421 303.727C550.377 303.727 550.332 303.718 550.287 303.71C550.055 303.638 549.922 303.38 550.002 303.148C551.813 297.518 559.922 296.681 560.261 296.654C560.51 296.627 560.724 296.805 560.751 297.055C560.778 297.295 560.591 297.518 560.35 297.545C560.269 297.554 552.482 298.356 550.849 303.433C550.787 303.612 550.608 303.727 550.421 303.727Z" fill="#505052"/>
<path d="M551.375 313.215C550.483 313.215 549.618 312.956 548.797 312.342C548.601 312.199 548.556 311.914 548.699 311.718C548.851 311.522 549.127 311.478 549.323 311.629C551.83 313.473 555.059 311.219 558.815 308.6C561.188 306.943 563.873 305.072 566.736 304.021C566.968 303.932 567.227 304.057 567.307 304.288C567.396 304.52 567.272 304.778 567.04 304.858C564.292 305.874 561.768 307.629 559.323 309.331C556.397 311.379 553.757 313.215 551.375 313.215Z" fill="#505052"/>
<path d="M547.53 320.351C546.049 320.351 544.898 319.968 544.238 319.015C542.356 316.28 545.006 313.367 546.674 312.208C546.879 312.066 547.155 312.119 547.298 312.315C547.441 312.52 547.387 312.796 547.191 312.939C547.022 313.055 543.123 315.816 544.979 318.516C546.656 320.957 553.98 318.177 559.867 315.941C561.036 315.496 562.169 315.068 563.248 314.676C563.48 314.596 563.739 314.712 563.819 314.943C563.899 315.175 563.783 315.433 563.551 315.514C562.481 315.897 561.339 316.333 560.179 316.77C555.514 318.533 550.741 320.351 547.53 320.351Z" fill="#505052"/>
<path d="M549.021 326.114C546.746 326.114 545.042 325.509 544.114 324.493C543.427 323.736 542.553 322.052 544.436 319.291C544.578 319.086 544.855 319.032 545.051 319.175C545.256 319.308 545.31 319.593 545.167 319.789C544.025 321.464 543.891 322.925 544.775 323.896C546.621 325.927 552.642 325.794 559.511 322.052C559.725 321.936 560.002 322.017 560.118 322.23C560.234 322.444 560.154 322.72 559.94 322.836C555.684 325.143 551.902 326.114 549.021 326.114Z" fill="#505052"/>
<path d="M542.472 331.397C542.266 331.397 542.088 331.264 542.035 331.059C540.786 325.865 545.21 324.538 545.255 324.529C545.496 324.467 545.737 324.6 545.808 324.832C545.879 325.063 545.737 325.313 545.505 325.384C545.353 325.429 541.865 326.498 542.909 330.854C542.962 331.095 542.82 331.335 542.579 331.389C542.543 331.389 542.507 331.397 542.472 331.397Z" fill="#505052"/>
<path d="M550.224 302.373C550.179 302.373 550.135 302.364 550.09 302.355C549.858 302.284 549.724 302.026 549.805 301.794C550.608 299.291 551.455 296.378 552.347 293.287C557.021 277.144 563.426 255.043 575.157 255.043C582.615 255.043 584.078 261.955 585.362 268.049C586.54 273.599 587.574 278.392 592.418 277.875C598.377 277.251 603.988 269.51 609.1 254.864C609.706 253.127 609.742 253.083 610.09 253.092H610.411L610.518 253.403C610.572 253.573 610.527 253.751 610.411 253.867C610.322 254.071 610.143 254.597 609.947 255.158C607.994 260.744 602.052 277.759 592.516 278.757C586.834 279.354 585.648 273.697 584.488 268.227C583.203 262.178 581.883 255.924 575.157 255.924C564.104 255.924 557.806 277.652 553.203 293.527C552.311 296.618 551.464 299.532 550.652 302.053C550.59 302.249 550.411 302.373 550.224 302.373Z" fill="#505052"/>
<path d="M491.286 352.056C489.27 352.198 487.289 351.806 485.407 350.942C484.988 350.746 484.872 350.194 485.211 349.882C490.438 345.009 493.569 336.056 492.82 326.088C491.91 313.839 485.461 303.977 477.557 301.625C477.031 301.474 476.852 300.832 477.182 300.405C479.832 296.921 483.204 294.748 486.995 294.463C496.834 293.732 505.782 306.035 506.968 321.936C508.155 337.838 501.134 351.325 491.286 352.056Z" fill="#FFD561"/>
<path d="M490.465 352.537C488.699 352.537 486.942 352.136 485.22 351.353C484.881 351.192 484.64 350.88 484.578 350.515C484.524 350.159 484.64 349.802 484.899 349.562C490.216 344.609 493.079 335.629 492.366 326.124C491.482 314.311 485.336 304.414 477.424 302.053C477.04 301.937 476.746 301.652 476.621 301.269C476.496 300.877 476.567 300.458 476.817 300.129C479.645 296.414 483.142 294.303 486.951 294.018C497.022 293.278 506.201 305.777 507.406 321.901C507.985 329.678 506.656 337.135 503.65 342.898C500.617 348.733 496.228 352.145 491.313 352.511C491.036 352.52 490.751 352.537 490.465 352.537ZM487.834 294.873C487.566 294.873 487.299 294.882 487.031 294.899C483.49 295.167 480.207 297.162 477.54 300.663C477.468 300.761 477.45 300.877 477.486 300.993C477.504 301.055 477.557 301.153 477.691 301.198C485.952 303.656 492.366 313.875 493.267 326.052C493.998 335.825 491.027 345.081 485.515 350.212C485.461 350.266 485.452 350.328 485.461 350.373C485.47 350.444 485.523 350.515 485.595 350.542C487.45 351.397 489.35 351.753 491.25 351.62C495.853 351.281 499.975 348.039 502.865 342.489C505.791 336.867 507.084 329.58 506.522 321.972C505.39 306.766 497.102 294.873 487.834 294.873Z" fill="#505052"/>
<path d="M475.729 304.307C475.702 304.307 475.675 304.307 475.64 304.298C475.399 304.253 475.238 304.022 475.283 303.772C475.301 303.665 475.809 301.1 477.067 299.95C477.245 299.781 477.531 299.799 477.7 299.977C477.87 300.155 477.852 300.44 477.674 300.61C476.808 301.403 476.291 303.282 476.166 303.941C476.13 304.155 475.943 304.307 475.729 304.307Z" fill="#505052"/>
<path d="M485.408 351.388C485.337 351.388 485.257 351.37 485.185 351.334C483.321 350.292 481.956 348.938 481.894 348.876C481.715 348.697 481.715 348.421 481.894 348.243C482.072 348.065 482.349 348.065 482.527 348.243C482.536 348.252 483.865 349.57 485.622 350.55C485.837 350.675 485.917 350.942 485.792 351.156C485.721 351.308 485.569 351.388 485.408 351.388Z" fill="#505052"/>
<path d="M462.793 362.016C462.499 362.016 462.195 361.989 461.901 361.944C459.858 361.588 458.065 359.994 456.727 357.321C456.62 357.098 456.709 356.831 456.923 356.724C457.146 356.617 457.414 356.706 457.521 356.92C458.725 359.334 460.295 360.76 462.044 361.063C464.934 361.561 468.172 359.112 471.187 354.185C474.274 349.134 476.709 342.123 478.038 334.435C480.759 318.703 478.012 305.037 471.919 303.986C469.439 303.558 467.235 304.859 464.738 308.191C464.586 308.387 464.309 308.431 464.113 308.28C463.917 308.128 463.872 307.852 464.024 307.656C466.745 304.021 469.234 302.614 472.07 303.113C478.761 304.271 481.776 318.097 478.921 334.587C477.574 342.381 475.094 349.508 471.946 354.648C469.028 359.441 465.808 362.016 462.793 362.016Z" fill="#505052"/>
<path d="M261.965 356.742C254.668 358.612 241.564 362.648 231.225 365.846C240.092 352.875 236.31 319.887 222.652 313.624C243.999 307.219 262.893 301.928 275.971 299.603" fill="#5A558D"/>
<path d="M230.137 366.648L230.859 365.597C235.899 358.23 237.041 343.112 233.518 330.444C231.189 322.061 227.264 316.235 222.465 314.035L221.395 313.545L222.527 313.206C240.922 307.683 261.653 301.705 275.899 299.175C276.14 299.131 276.372 299.291 276.417 299.532C276.461 299.772 276.301 300.004 276.06 300.048C262.135 302.525 241.956 308.316 223.848 313.741C228.424 316.36 232.144 322.15 234.383 330.204C237.871 342.747 236.952 357.116 232.26 365.063C240.993 362.363 254.552 358.185 261.867 356.314C262.099 356.252 262.349 356.395 262.411 356.635C262.474 356.876 262.331 357.116 262.09 357.179C254.472 359.129 240.012 363.602 231.368 366.274L230.137 366.648Z" fill="#505052"/>
<path d="M262.749 414.682C265.969 417.515 270.189 423.795 268.708 425.274C266.085 427.884 253.195 419.786 255.336 421.212C257.076 422.37 266.523 432.241 263.766 438.477C262.803 440.641 258.093 438.334 258.093 438.334C258.093 438.334 257.522 439.911 255.916 440.508C252.428 441.817 241.491 433.808 241.491 433.808C241.491 433.808 234.444 440.178 225.72 435.483C216.995 430.797 163.98 384.812 163.98 353.721C163.98 335.263 193.195 322.443 222.651 313.624C236.309 319.887 240.091 352.875 231.224 365.846C223.017 368.393 216.549 370.416 216.103 370.416C215.095 370.416 231.019 391.048 231.795 392.331C232.232 393.061 237.611 390.157 240.082 390.299C240.171 390.308 238.476 398.477 238.476 398.477C239.93 398.477 248.913 397.64 257.852 399.635C267.593 401.809 271.982 407.689 270.644 409.693C269.297 411.706 252.722 406.424 247.87 407.003C246.763 407.136 257.539 410.094 262.749 414.682Z" fill="#FF6D54"/>
<path d="M255.024 441.096C251.081 441.096 243.32 435.68 241.509 434.379C240.082 435.501 233.418 440.143 225.506 435.884C221.224 433.586 205.684 420.883 191.242 404.812C178.601 390.736 163.525 370.452 163.525 353.73C163.525 338.345 182.821 325.09 222.517 313.206L222.678 313.161L222.829 313.232C227.87 315.54 231.964 321.571 234.364 330.212C238.003 343.325 236.835 358.416 231.58 366.104L231.491 366.229L229.261 366.924C221.563 369.32 217.932 370.434 216.63 370.763C217.718 372.795 224.462 381.774 228.2 386.745C230.421 389.703 231.75 391.476 232.107 392.01C232.526 392.001 233.837 391.547 234.819 391.191C236.647 390.531 238.717 389.774 240.1 389.854L240.305 389.863L240.43 390.032C240.581 390.237 240.617 390.282 239.011 398.014C239.163 398.006 239.332 397.997 239.52 397.988C242.446 397.845 250.233 397.48 257.932 399.199C265.291 400.838 269.877 404.669 271.027 407.529C271.42 408.491 271.402 409.328 271.001 409.934C270.144 411.226 266.112 410.469 259.074 409.034C255.675 408.339 252.187 407.627 249.778 407.44C249.85 407.466 249.93 407.493 250.001 407.529C253.293 408.803 259.413 411.163 263.026 414.344C265.871 416.847 269.359 421.836 269.439 424.286C269.457 424.838 269.315 425.274 269.002 425.586C267.611 426.976 263.971 426.147 257.923 423.056C261.259 426.655 266.353 433.693 264.158 438.655C263.944 439.145 263.561 439.483 263.043 439.679C261.571 440.214 259.243 439.332 258.298 438.922C257.985 439.492 257.307 440.463 256.059 440.927C255.773 441.042 255.416 441.096 255.024 441.096ZM241.464 433.239L241.759 433.452C244.747 435.644 253.079 441.105 255.764 440.098C257.165 439.581 257.673 438.201 257.673 438.192L257.843 437.729L258.289 437.951C259.109 438.352 261.518 439.305 262.749 438.86C263.043 438.753 263.24 438.575 263.356 438.316C266.005 432.321 256.549 422.575 255.086 421.604C254.836 421.435 254.489 421.203 254.712 420.829C254.935 420.455 255.184 420.589 255.844 420.954C265.479 426.254 267.825 425.533 268.387 424.972C268.512 424.847 268.565 424.633 268.556 424.33C268.485 422.156 265.14 417.399 262.446 415.03C258.949 411.956 252.927 409.631 249.689 408.375C247.468 407.52 247.281 407.449 247.343 406.994L247.388 406.647L247.816 406.567C250.082 406.299 254.756 407.253 259.27 408.17C263.427 409.016 269.707 410.299 270.278 409.453C270.51 409.106 270.492 408.544 270.216 407.867C269.154 405.213 264.792 401.64 257.753 400.072C250.171 398.38 242.473 398.745 239.573 398.887C239.056 398.914 238.681 398.932 238.467 398.932H237.923L238.03 398.398C238.547 395.912 239.324 392.09 239.555 390.763C238.351 390.87 236.576 391.511 235.122 392.037C232.91 392.839 231.803 393.24 231.402 392.571C231.179 392.206 229.466 389.926 227.486 387.289C215.791 371.708 215.399 370.772 215.657 370.256L215.782 370.006L216.094 369.988C216.603 369.935 222.348 368.153 229.002 366.086L230.929 365.49C235.898 358.078 237.004 343.067 233.507 330.461C231.206 322.168 227.334 316.377 222.606 314.123C183.454 325.865 164.417 338.826 164.417 353.748C164.417 384.055 216.63 430.121 225.925 435.118C234.274 439.608 241.117 433.568 241.188 433.506L241.464 433.239Z" fill="#505052"/>
<path d="M216.105 370.871C215.962 370.871 215.82 370.8 215.731 370.675L210.503 362.835C210.369 362.631 210.423 362.354 210.628 362.221C210.833 362.087 211.11 362.141 211.243 362.345L216.471 370.185C216.605 370.39 216.551 370.666 216.346 370.8C216.275 370.844 216.194 370.871 216.105 370.871Z" fill="#505052"/>
<path d="M235.284 399.021C235.043 399.021 234.847 398.834 234.838 398.593C234.829 398.344 235.026 398.139 235.266 398.13L238.46 398.032C238.469 398.032 238.469 398.032 238.478 398.032C238.719 398.032 238.915 398.219 238.924 398.46C238.933 398.709 238.736 398.914 238.496 398.923L235.302 399.021C235.293 399.021 235.293 399.021 235.284 399.021Z" fill="#505052"/>
<path d="M255.336 421.658C255.247 421.658 255.167 421.631 255.087 421.586C249.52 417.881 244.025 415.555 243.972 415.529C243.748 415.431 243.641 415.172 243.731 414.95C243.829 414.727 244.087 414.62 244.319 414.709C244.373 414.736 249.948 417.088 255.586 420.847C255.791 420.981 255.845 421.257 255.711 421.462C255.622 421.586 255.479 421.658 255.336 421.658Z" fill="#505052"/>
<path d="M258.102 438.78C257.906 438.78 257.727 438.655 257.674 438.459C256.523 434.575 253.026 427.475 242.545 423.511C242.313 423.422 242.197 423.163 242.286 422.941C242.375 422.718 242.634 422.593 242.857 422.682C253.704 426.78 257.326 434.165 258.53 438.21C258.602 438.441 258.468 438.691 258.227 438.762C258.182 438.78 258.138 438.78 258.102 438.78Z" fill="#505052"/>
<path d="M298.779 283.228C301.259 272.716 298.61 264.155 297.771 255.879C296.567 243.995 306.87 227.844 323.275 228.308C339.68 228.771 342.874 235.96 343.837 242.151C344.997 249.537 344.408 268.529 339.912 275.38C335.523 282.07 328.592 282.997 328.592 282.997L328.36 288.538C328.36 288.538 323.159 290.908 313.275 289.553C303.552 288.208 298.779 283.228 298.779 283.228Z" fill="#FF6D54"/>
<path d="M319.208 290.409C317.451 290.409 315.452 290.293 313.213 289.981C303.454 288.645 298.664 283.736 298.459 283.531L298.289 283.353L298.343 283.122C300.189 275.273 299.163 268.592 298.173 262.124C297.843 259.986 297.531 257.973 297.326 255.924C296.639 249.18 299.485 241.483 304.748 235.835C309.717 230.499 316.318 227.675 323.285 227.862C339.993 228.334 343.285 235.711 344.275 242.08C345.461 249.688 344.837 268.672 340.278 275.621C336.362 281.598 330.546 283.077 329.012 283.371L328.78 288.823L328.53 288.939C328.369 289.01 325.212 290.409 319.208 290.409ZM299.271 283.077C300.198 283.941 304.882 287.941 313.329 289.099C321.759 290.257 326.782 288.654 327.923 288.226L328.155 282.605L328.53 282.551C328.601 282.543 335.319 281.563 339.538 275.131C343.811 268.61 344.596 249.884 343.401 242.214C342.455 236.183 339.315 229.199 323.267 228.744C316.55 228.557 310.198 231.283 305.408 236.432C300.395 241.813 297.576 249.43 298.218 255.826C298.423 257.848 298.735 259.853 299.056 261.982C300.056 268.467 301.081 275.175 299.271 283.077Z" fill="#505052"/>
<path d="M328.138 283.443C315.372 283.443 310.796 276.378 308.825 273.341C308.691 273.136 308.753 272.86 308.958 272.726C309.164 272.592 309.44 272.655 309.574 272.86C311.483 275.808 315.997 282.739 328.575 282.552C328.575 282.552 328.575 282.552 328.584 282.552C328.825 282.552 329.03 282.748 329.03 282.988C329.03 283.238 328.833 283.434 328.593 283.443C328.441 283.443 328.289 283.443 328.138 283.443Z" fill="#505052"/>
<path d="M324.552 264.627C326.202 264.663 339.066 263.621 340.591 263.656C341.189 263.665 337.496 268.378 333.303 268.734C327.906 269.171 323.954 264.609 324.552 264.627Z" fill="white"/>
<path d="M332.554 269.198C328.254 269.198 324.927 266.258 324.222 265.171C324.142 265.055 323.937 264.735 324.106 264.432L324.24 264.2L324.561 264.182C325.382 264.2 329.155 263.933 332.804 263.683C336.417 263.434 339.798 263.202 340.6 263.211C340.877 263.22 341.091 263.434 341.1 263.71C341.127 264.565 337.398 268.832 333.339 269.171C333.071 269.189 332.813 269.198 332.554 269.198ZM325.266 265.055C326.265 266.151 329.343 268.601 333.259 268.28C336.345 268.022 339.111 265.26 339.949 264.111C338.611 264.164 335.694 264.369 332.857 264.565C329.717 264.788 326.72 264.993 325.266 265.055Z" fill="#505052"/>
<path d="M327.657 230.135C328.388 230.028 337.585 244.468 344.419 244.032C344.945 243.996 342.242 217.618 314.918 220.665C292.653 223.15 285.712 250.41 299.512 273.635C299.843 274.196 293.536 252.718 304.454 252.014C324.668 250.704 326.64 230.277 327.657 230.135Z" fill="#FFD561"/>
<path d="M299.333 274.196L299.128 273.858C291.162 260.45 289.699 245.119 295.319 233.85C299.217 226.037 306.158 221.191 314.864 220.22C328.637 218.678 336.032 224.674 339.806 229.966C344.338 236.308 345.158 243.524 344.837 244.201L344.721 244.442L344.436 244.477C339.11 244.816 332.723 236.896 329.297 232.638C328.709 231.908 328.111 231.159 327.754 230.785C327.629 231.106 327.478 231.614 327.317 232.112C325.676 237.377 321.322 251.373 304.472 252.459C302.661 252.575 301.296 253.279 300.297 254.606C298.691 256.744 297.299 261.644 299.806 272.851C299.993 273.706 300.038 273.911 299.672 274.054L299.333 274.196ZM319.208 220.861C317.843 220.861 316.434 220.941 314.971 221.102C306.577 222.037 299.877 226.705 296.122 234.242C290.975 244.558 291.929 258.393 298.504 270.909C296.925 262.784 297.29 257.128 299.592 254.063C300.743 252.531 302.366 251.693 304.418 251.56C320.662 250.517 324.882 236.95 326.47 231.836C326.969 230.233 327.121 229.752 327.585 229.68L327.647 230.126L327.585 229.68C328.004 229.618 328.245 229.894 329.993 232.068C333.008 235.809 339.19 243.489 344.016 243.578C343.954 241.956 342.812 234.242 337.21 228.157C332.741 223.311 326.693 220.861 319.208 220.861Z" fill="#505052"/>
<path d="M302.768 253.698C299.717 253.119 299.699 248.86 294.775 248.041C290.127 247.266 287.995 251.666 288.851 255.64C289.886 260.424 292.625 262.847 296.327 261.92C300.029 260.994 301.171 263.132 301.171 263.132" fill="#FF6D54"/>
<path d="M301.171 263.577C301.011 263.577 300.859 263.488 300.779 263.345C300.743 263.274 299.717 261.537 296.434 262.356C294.784 262.766 293.285 262.57 291.992 261.768C290.279 260.699 289.039 258.615 288.424 255.737C287.879 253.198 288.468 250.651 289.985 249.065C290.841 248.165 292.384 247.185 294.855 247.595C297.79 248.085 299.128 249.778 300.19 251.141C300.993 252.156 301.68 253.038 302.857 253.261C303.098 253.305 303.259 253.537 303.214 253.778C303.169 254.018 302.937 254.178 302.697 254.134C301.198 253.849 300.368 252.798 299.503 251.693C298.424 250.321 297.317 248.913 294.722 248.477C293.062 248.201 291.653 248.619 290.636 249.68C289.351 251.025 288.825 253.332 289.307 255.541C289.878 258.178 290.975 260.067 292.474 261.002C293.553 261.679 294.82 261.84 296.229 261.483C300.208 260.486 301.519 262.811 301.573 262.918C301.688 263.131 301.608 263.408 301.394 263.523C301.314 263.559 301.242 263.577 301.171 263.577Z" fill="#505052"/>
<path d="M295.167 258.695C294.944 258.695 294.757 258.535 294.721 258.312C294.686 258.072 294.864 257.849 295.105 257.813C296.425 257.635 297.835 257.421 298.816 257.252C297.754 256.735 296.247 255.675 295.158 253.626C295.042 253.413 295.123 253.136 295.346 253.021C295.569 252.905 295.836 252.985 295.952 253.208C297.567 256.254 300.27 256.842 300.297 256.851L300.671 256.931L300.725 257.359C300.698 257.778 300.689 257.974 295.23 258.695C295.203 258.695 295.185 258.695 295.167 258.695Z" fill="#505052"/>
<path d="M335.086 260.833C333.783 260.833 332.508 260.743 331.874 260.69C331.625 260.672 331.446 260.458 331.464 260.209C331.482 259.959 331.705 259.781 331.946 259.799C334.417 260.004 337.307 259.995 338.083 259.639C337.86 259.167 336.959 257.982 336.156 256.922C335.041 255.452 333.641 253.617 332.499 251.773C332.365 251.568 332.436 251.291 332.642 251.158C332.847 251.033 333.123 251.095 333.257 251.3C334.381 253.109 335.764 254.926 336.87 256.387C338.886 259.042 339.35 259.692 338.859 260.173C338.351 260.699 336.701 260.833 335.086 260.833ZM338.146 259.781H338.155H338.146Z" fill="#505052"/>
<path d="M321.731 254.873C322.593 254.873 323.292 253.78 323.292 252.432C323.292 251.084 322.593 249.991 321.731 249.991C320.869 249.991 320.17 251.084 320.17 252.432C320.17 253.78 320.869 254.873 321.731 254.873Z" fill="#505052"/>
<path d="M321.732 255.327C320.608 255.327 319.725 254.062 319.725 252.441C319.725 250.82 320.608 249.555 321.732 249.555C322.856 249.555 323.739 250.82 323.739 252.441C323.739 254.062 322.856 255.327 321.732 255.327ZM321.732 250.437C321.205 250.437 320.617 251.256 320.617 252.432C320.617 253.608 321.205 254.428 321.732 254.428C322.258 254.428 322.847 253.608 322.847 252.432C322.847 251.256 322.258 250.437 321.732 250.437Z" fill="#505052"/>
<path d="M339.885 253.555C340.648 253.555 341.267 252.554 341.267 251.319C341.267 250.084 340.648 249.083 339.885 249.083C339.121 249.083 338.502 250.084 338.502 251.319C338.502 252.554 339.121 253.555 339.885 253.555Z" fill="#505052"/>
<path d="M339.885 254.001C338.859 254.001 338.057 252.825 338.057 251.319C338.057 249.814 338.859 248.638 339.885 248.638C340.911 248.638 341.714 249.814 341.714 251.319C341.714 252.825 340.911 254.001 339.885 254.001ZM339.885 249.52C339.439 249.52 338.949 250.259 338.949 251.31C338.949 252.37 339.439 253.101 339.885 253.101C340.331 253.101 340.822 252.361 340.822 251.31C340.822 250.259 340.322 249.52 339.885 249.52Z" fill="#505052"/>
</svg>
