<svg width="187" height="188" viewBox="0 0 187 188" fill="none" xmlns="http://www.w3.org/2000/svg">
<g filter="url(#filter0_d)">
<circle cx="93.392" cy="90.308" r="33.392" fill="white"/>
</g>
<path d="M93.5422 90.7261C97.2023 90.7261 100.18 87.7791 100.18 84.156C100.18 80.5336 97.2023 77.5859 93.5422 77.5859C89.882 77.5859 86.9043 80.5329 86.9043 84.156C86.9043 87.7791 89.882 90.7261 93.5422 90.7261ZM93.5422 79.7366C96.0049 79.7366 98.0076 81.7194 98.0076 84.1567C98.0076 86.594 96.0042 88.5768 93.5422 88.5768C91.0794 88.5768 89.0767 86.594 89.0767 84.1567C89.0767 81.7194 91.0794 79.7366 93.5422 79.7366Z" fill="#FF6D54"/>
<path d="M85.6178 95.3434C85.8374 94.7252 86.4296 94.3099 87.0919 94.3099H100.22C100.888 94.3099 101.482 94.7302 101.699 95.3549L103.977 101.933H106.036C106.108 101.717 106.116 101.479 106.036 101.247L103.753 94.658C103.236 93.1634 101.816 92.1599 100.22 92.1599H87.0919C85.5088 92.1599 84.0932 93.1527 83.5682 94.6315L81.052 101.718C81.0267 101.789 81.0101 101.861 81 101.933H83.2779L85.6178 95.3434Z" fill="#FF6D54"/>
<path d="M88.5521 97.9408C87.9787 97.7671 87.3706 98.0851 87.1943 98.652L86.2287 101.758C86.2107 101.816 86.2013 101.875 86.1934 101.933H88.4474L89.2707 99.2852C89.4469 98.717 89.1255 98.1152 88.5521 97.9408Z" fill="#FF6D54"/>
<path d="M99.8925 98.6519C99.7163 98.0851 99.1089 97.7671 98.5347 97.9408C97.9613 98.1152 97.6392 98.717 97.8161 99.2845L98.6394 101.933H100.893C100.886 101.874 100.876 101.815 100.858 101.757L99.8925 98.6519Z" fill="#FF6D54"/>
<defs>
<filter id="filter0_d" x="0" y="0.916016" width="186.784" height="186.784" filterUnits="userSpaceOnUse" color-interpolation-filters="sRGB">
<feFlood flood-opacity="0" result="BackgroundImageFix"/>
<feColorMatrix in="SourceAlpha" type="matrix" values="0 0 0 0 0 0 0 0 0 0 0 0 0 0 0 0 0 0 127 0"/>
<feOffset dy="4"/>
<feGaussianBlur stdDeviation="30"/>
<feColorMatrix type="matrix" values="0 0 0 0 0.930131 0 0 0 0 0.839966 0 0 0 0 0.824527 0 0 0 1 0"/>
<feBlend mode="normal" in2="BackgroundImageFix" result="effect1_dropShadow"/>
<feBlend mode="normal" in="SourceGraphic" in2="effect1_dropShadow" result="shape"/>
</filter>
</defs>
</svg>
