<svg xmlns="http://www.w3.org/2000/svg" 
xmlns:xlink="http://www.w3.org/1999/xlink" 
width="49" height="393">
<style type="text/css">
	.st0{fill:none;stroke:#6D7772;}
	.st1{fill:#6D7772;}
	.st2{fill:#6D7772;}
	.st3{fill:#A2E6CB;;stroke:#91D1B9;}
	.st4{fill:#91D1B9;}
	.st5{fill:#91D1B9;}
</style>
	
<defs>
<g id='fb'>
	<path class="st0" d="M3.5,0.5h42c1.7,0,3,1.3,3,3v42c0,1.7-1.3,3-3,3h-42c-1.7,0-3-1.3-3-3v-42C0.5,1.8,1.8,0.5,3.5,0.5z"/>
<path class="st1" d="M30.2,24.5h-3.7v13.7H21V24.5h-2.7v-4.8H21v-3.1c0-2.2,1-5.7,5.6-5.7h4.1v4.7h-3c-0.5,0-1.2,0.2-1.2,1.3v2.9
	h4.2L30.2,24.5z"/>
</g>
<g id='tw'>
	<path class="st0" d="M3.1,0.5h42.9c1.4,0,2.6,1.1,2.6,2.6v42.9c0,1.4-1.1,2.6-2.6,2.6H3.1c-1.4,0-2.6-1.1-2.6-2.6V3.1
	C0.5,1.6,1.6,0.5,3.1,0.5z"/>
<g>
	<defs>
		<rect id="SVGID_1_" x="11.2" y="13.3" width="29.4" height="25.2"/>
	</defs>
	<clipPath id="SVGID_2_">
		<use xlink:href="#SVGID_1_"  style="overflow:visible;"/>
	</clipPath>
	<g class="st1">
		<path class="st2" d="M40.5,16.2c-1.1,0.5-2.2,0.8-3.5,1c1.2-0.8,2.2-2,2.6-3.4c-1.1,0.7-2.4,1.2-3.8,1.5c-1.1-1.2-2.6-2-4.4-2
			c-3.3,0-6,2.8-6,6.2c0,0.5,0.1,1,0.2,1.4c-5-0.2-9.5-2.7-12.4-6.4c-0.5,0.9-0.8,2-0.8,3.1c0,2.1,1.1,4.1,2.7,5.2
			c-1-0.1-1.9-0.3-2.7-0.8v0.1c0,3,2.1,5.5,4.8,6.1c-0.5,0.1-1,0.2-1.6,0.2c-0.4,0-0.8-0.1-1.1-0.1c0.8,2.5,3,4.3,5.6,4.3
			c-2.1,1.7-4.6,2.7-7.4,2.7c-0.5,0-1,0-1.5-0.1c2.6,1.7,5.8,2.8,9.2,2.8c11.1,0,17.1-9.5,17.1-17.7c0-0.3,0-0.5,0-0.8
			C38.6,18.6,39.6,17.5,40.5,16.2z"/>
	</g>
</g>
</g>
<g id='yt'>
<path class="st0" d="M3.1,0.5h42.9c1.4,0,2.6,1.1,2.6,2.6v42.9c0,1.4-1.1,2.6-2.6,2.6H3.1c-1.4,0-2.6-1.1-2.6-2.6V3.1
	C0.5,1.6,1.6,0.5,3.1,0.5z"/>
<g>
	<defs>
		<rect id="SVGID_1_" x="10.5" y="11.2" width="28" height="28"/>
	</defs>
	<clipPath id="SVGID_2_">
		<use xlink:href="#SVGID_1_"  style="overflow:visible;"/>
	</clipPath>
	<g class="st1">
		<path class="st2" d="M32.6,31.7H31l0-0.9c0-0.4,0.3-0.7,0.7-0.7h0.1c0.4,0,0.7,0.3,0.7,0.7L32.6,31.7z M26.8,29.8
			c-0.4,0-0.7,0.3-0.7,0.6v4.3c0,0.3,0.3,0.6,0.7,0.6c0.4,0,0.7-0.3,0.7-0.6v-4.3C27.5,30,27.2,29.8,26.8,29.8z M36.2,27.3v8.3
			c0,2-1.7,3.6-3.8,3.6H16.6c-2.1,0-3.8-1.6-3.8-3.6v-8.3c0-2,1.7-3.6,3.8-3.6h15.7C34.5,23.7,36.2,25.4,36.2,27.3z M17.7,36.5
			l0-8.7l1.9,0v-1.3l-5.2,0v1.3l1.6,0v8.7H17.7z M23.5,29.1h-1.6v4.6c0,0.7,0,1,0,1.1c-0.1,0.4-0.7,0.7-1,0c0-0.1,0-0.5,0-1.1l0-4.7
			h-1.6l0,4.6c0,0.7,0,1.2,0,1.5c0,0.4,0,0.9,0.4,1.2c0.7,0.5,2.1-0.1,2.5-0.8l0,1l1.3,0L23.5,29.1z M28.7,34.4l0-3.9
			c0-1.5-1.1-2.4-2.6-1.2l0-2.9l-1.6,0l0,9.9l1.3,0l0.1-0.6C27.7,37.4,28.7,36.3,28.7,34.4z M33.8,33.9l-1.2,0c0,0,0,0.1,0,0.2v0.7
			c0,0.4-0.3,0.7-0.7,0.7h-0.2c-0.4,0-0.7-0.3-0.7-0.7v-0.1v-0.7v-1h2.8v-1c0-0.8,0-1.5-0.1-2c-0.2-1.4-2.1-1.6-3.1-0.9
			c-0.3,0.2-0.5,0.5-0.7,0.9c-0.1,0.4-0.2,0.9-0.2,1.6v2.3C29.7,37.7,34.4,37.2,33.8,33.9z M27.6,21.4c0.1,0.2,0.2,0.4,0.4,0.5
			c0.2,0.1,0.4,0.2,0.7,0.2c0.2,0,0.4-0.1,0.6-0.2c0.2-0.1,0.3-0.3,0.5-0.6l0,0.6h1.8v-7.7H30v6c0,0.3-0.3,0.6-0.6,0.6
			c-0.3,0-0.6-0.3-0.6-0.6v-6h-1.5v5.2c0,0.7,0,1.1,0,1.3C27.4,21,27.5,21.2,27.6,21.4z M22.1,17c0-0.7,0.1-1.3,0.2-1.7
			c0.1-0.4,0.3-0.7,0.7-1c0.3-0.3,0.7-0.4,1.2-0.4c0.4,0,0.8,0.1,1.1,0.2c0.3,0.2,0.5,0.4,0.7,0.6c0.2,0.3,0.3,0.5,0.3,0.8
			c0.1,0.3,0.1,0.7,0.1,1.3v1.9c0,0.7,0,1.2-0.1,1.6c-0.1,0.3-0.2,0.6-0.4,0.9c-0.2,0.3-0.4,0.5-0.7,0.6c-0.3,0.1-0.6,0.2-1,0.2
			c-0.4,0-0.8-0.1-1-0.2c-0.3-0.1-0.5-0.3-0.7-0.5c-0.2-0.2-0.3-0.5-0.3-0.9c-0.1-0.3-0.1-0.8-0.1-1.5L22.1,17z M23.5,20.1
			c0,0.4,0.3,0.8,0.7,0.8c0.4,0,0.7-0.4,0.7-0.8V16c0-0.4-0.3-0.8-0.7-0.8c-0.4,0-0.7,0.4-0.7,0.8V20.1z M18.5,22.2h1.7l0-5.9l2-5.1
			h-1.9L19.3,15l-1.1-3.8h-1.8l2.1,5.1L18.5,22.2z"/>
	</g>
</g>
</g>
<g id='inst'>

<path class="st0" d="M3.1,0.5h42.9c1.4,0,2.6,1.1,2.6,2.6v42.9c0,1.4-1.1,2.6-2.6,2.6H3.1c-1.4,0-2.6-1.1-2.6-2.6V3.1
	C0.5,1.6,1.6,0.5,3.1,0.5z"/>
<g>
	<defs>
		<rect id="SVGID_1_" x="11.2" y="11.2" width="26.6" height="26.6"/>
	</defs>
	<clipPath id="SVGID_2_">
		<use xlink:href="#SVGID_1_"  style="overflow:visible;"/>
	</clipPath>
	<g class="st1">
		<path class="st2" d="M29.5,11.2h-10c-4.6,0-8.3,3.7-8.3,8.3v10c0,4.6,3.7,8.3,8.3,8.3h10c4.6,0,8.3-3.7,8.3-8.3v-10
			C37.8,14.9,34.1,11.2,29.5,11.2z M35.3,29.5c0,3.2-2.6,5.8-5.8,5.8h-10c-3.2,0-5.8-2.6-5.8-5.8v-10c0-3.2,2.6-5.8,5.8-5.8h10
			c3.2,0,5.8,2.6,5.8,5.8V29.5z"/>
		<path class="st2" d="M24.5,17.8c-3.7,0-6.7,3-6.7,6.7s3,6.7,6.7,6.7c3.7,0,6.7-3,6.7-6.7S28.2,17.8,24.5,17.8z M24.5,28.7
			c-2.3,0-4.2-1.9-4.2-4.2c0-2.3,1.9-4.2,4.2-4.2c2.3,0,4.2,1.9,4.2,4.2C28.7,26.8,26.8,28.7,24.5,28.7z"/>
		<path class="st2" d="M31.7,18.2c0.5,0,0.9-0.4,0.9-0.9c0-0.5-0.4-0.9-0.9-0.9c-0.5,0-0.9,0.4-0.9,0.9
			C30.8,17.8,31.2,18.2,31.7,18.2z"/>
	</g>
</g>
</g>
<g id='fb1'>
	<path class="st3" d="M3.5,0.5h42c1.7,0,3,1.3,3,3v42c0,1.7-1.3,3-3,3h-42c-1.7,0-3-1.3-3-3v-42C0.5,1.8,1.8,0.5,3.5,0.5z"/>
<path class="st4" d="M30.2,24.5h-3.7v13.7H21V24.5h-2.7v-4.8H21v-3.1c0-2.2,1-5.7,5.6-5.7h4.1v4.7h-3c-0.5,0-1.2,0.2-1.2,1.3v2.9
	h4.2L30.2,24.5z"/>
</g>
<g id='tw1'>
	<path class="st3" d="M3.1,0.5h42.9c1.4,0,2.6,1.1,2.6,2.6v42.9c0,1.4-1.1,2.6-2.6,2.6H3.1c-1.4,0-2.6-1.1-2.6-2.6V3.1
	C0.5,1.6,1.6,0.5,3.1,0.5z"/>
<g>
	<defs>
		<rect id="SVGID_1_" x="11.2" y="13.3" width="29.4" height="25.2"/>
	</defs>
	<clipPath id="SVGID_2_">
		<use xlink:href="#SVGID_1_"  style="overflow:visible;"/>
	</clipPath>
	<g class="st4">
		<path class="st5" d="M40.5,16.2c-1.1,0.5-2.2,0.8-3.5,1c1.2-0.8,2.2-2,2.6-3.4c-1.1,0.7-2.4,1.2-3.8,1.5c-1.1-1.2-2.6-2-4.4-2
			c-3.3,0-6,2.8-6,6.2c0,0.5,0.1,1,0.2,1.4c-5-0.2-9.5-2.7-12.4-6.4c-0.5,0.9-0.8,2-0.8,3.1c0,2.1,1.1,4.1,2.7,5.2
			c-1-0.1-1.9-0.3-2.7-0.8v0.1c0,3,2.1,5.5,4.8,6.1c-0.5,0.1-1,0.2-1.6,0.2c-0.4,0-0.8-0.1-1.1-0.1c0.8,2.5,3,4.3,5.6,4.3
			c-2.1,1.7-4.6,2.7-7.4,2.7c-0.5,0-1,0-1.5-0.1c2.6,1.7,5.8,2.8,9.2,2.8c11.1,0,17.1-9.5,17.1-17.7c0-0.3,0-0.5,0-0.8
			C38.6,18.6,39.6,17.5,40.5,16.2z"/>
	</g>
</g>
</g>
<g id='yt1'>
<path class="st3" d="M3.1,0.5h42.9c1.4,0,2.6,1.1,2.6,2.6v42.9c0,1.4-1.1,2.6-2.6,2.6H3.1c-1.4,0-2.6-1.1-2.6-2.6V3.1
	C0.5,1.6,1.6,0.5,3.1,0.5z"/>
<g>
	<defs>
		<rect id="SVGID_1_" x="10.5" y="11.2" width="28" height="28"/>
	</defs>
	<clipPath id="SVGID_2_">
		<use xlink:href="#SVGID_1_"  style="overflow:visible;"/>
	</clipPath>
	<g class="st4">
		<path class="st5" d="M32.6,31.7H31l0-0.9c0-0.4,0.3-0.7,0.7-0.7h0.1c0.4,0,0.7,0.3,0.7,0.7L32.6,31.7z M26.8,29.8
			c-0.4,0-0.7,0.3-0.7,0.6v4.3c0,0.3,0.3,0.6,0.7,0.6c0.4,0,0.7-0.3,0.7-0.6v-4.3C27.5,30,27.2,29.8,26.8,29.8z M36.2,27.3v8.3
			c0,2-1.7,3.6-3.8,3.6H16.6c-2.1,0-3.8-1.6-3.8-3.6v-8.3c0-2,1.7-3.6,3.8-3.6h15.7C34.5,23.7,36.2,25.4,36.2,27.3z M17.7,36.5
			l0-8.7l1.9,0v-1.3l-5.2,0v1.3l1.6,0v8.7H17.7z M23.5,29.1h-1.6v4.6c0,0.7,0,1,0,1.1c-0.1,0.4-0.7,0.7-1,0c0-0.1,0-0.5,0-1.1l0-4.7
			h-1.6l0,4.6c0,0.7,0,1.2,0,1.5c0,0.4,0,0.9,0.4,1.2c0.7,0.5,2.1-0.1,2.5-0.8l0,1l1.3,0L23.5,29.1z M28.7,34.4l0-3.9
			c0-1.5-1.1-2.4-2.6-1.2l0-2.9l-1.6,0l0,9.9l1.3,0l0.1-0.6C27.7,37.4,28.7,36.3,28.7,34.4z M33.8,33.9l-1.2,0c0,0,0,0.1,0,0.2v0.7
			c0,0.4-0.3,0.7-0.7,0.7h-0.2c-0.4,0-0.7-0.3-0.7-0.7v-0.1v-0.7v-1h2.8v-1c0-0.8,0-1.5-0.1-2c-0.2-1.4-2.1-1.6-3.1-0.9
			c-0.3,0.2-0.5,0.5-0.7,0.9c-0.1,0.4-0.2,0.9-0.2,1.6v2.3C29.7,37.7,34.4,37.2,33.8,33.9z M27.6,21.4c0.1,0.2,0.2,0.4,0.4,0.5
			c0.2,0.1,0.4,0.2,0.7,0.2c0.2,0,0.4-0.1,0.6-0.2c0.2-0.1,0.3-0.3,0.5-0.6l0,0.6h1.8v-7.7H30v6c0,0.3-0.3,0.6-0.6,0.6
			c-0.3,0-0.6-0.3-0.6-0.6v-6h-1.5v5.2c0,0.7,0,1.1,0,1.3C27.4,21,27.5,21.2,27.6,21.4z M22.1,17c0-0.7,0.1-1.3,0.2-1.7
			c0.1-0.4,0.3-0.7,0.7-1c0.3-0.3,0.7-0.4,1.2-0.4c0.4,0,0.8,0.1,1.1,0.2c0.3,0.2,0.5,0.4,0.7,0.6c0.2,0.3,0.3,0.5,0.3,0.8
			c0.1,0.3,0.1,0.7,0.1,1.3v1.9c0,0.7,0,1.2-0.1,1.6c-0.1,0.3-0.2,0.6-0.4,0.9c-0.2,0.3-0.4,0.5-0.7,0.6c-0.3,0.1-0.6,0.2-1,0.2
			c-0.4,0-0.8-0.1-1-0.2c-0.3-0.1-0.5-0.3-0.7-0.5c-0.2-0.2-0.3-0.5-0.3-0.9c-0.1-0.3-0.1-0.8-0.1-1.5L22.1,17z M23.5,20.1
			c0,0.4,0.3,0.8,0.7,0.8c0.4,0,0.7-0.4,0.7-0.8V16c0-0.4-0.3-0.8-0.7-0.8c-0.4,0-0.7,0.4-0.7,0.8V20.1z M18.5,22.2h1.7l0-5.9l2-5.1
			h-1.9L19.3,15l-1.1-3.8h-1.8l2.1,5.1L18.5,22.2z"/>
	</g>
</g>
</g>
<g id='inst1'>
<path class="st3" d="M3.1,0.5h42.9c1.4,0,2.6,1.1,2.6,2.6v42.9c0,1.4-1.1,2.6-2.6,2.6H3.1c-1.4,0-2.6-1.1-2.6-2.6V3.1
	C0.5,1.6,1.6,0.5,3.1,0.5z"/>
<g>
	<defs>
		<rect id="SVGID_1_" x="11.2" y="11.2" width="26.6" height="26.6"/>
	</defs>
	<clipPath id="SVGID_2_">
		<use xlink:href="#SVGID_1_"  style="overflow:visible;"/>
	</clipPath>
	<g class="st4">
		<path class="st5" d="M29.5,11.2h-10c-4.6,0-8.3,3.7-8.3,8.3v10c0,4.6,3.7,8.3,8.3,8.3h10c4.6,0,8.3-3.7,8.3-8.3v-10
			C37.8,14.9,34.1,11.2,29.5,11.2z M35.3,29.5c0,3.2-2.6,5.8-5.8,5.8h-10c-3.2,0-5.8-2.6-5.8-5.8v-10c0-3.2,2.6-5.8,5.8-5.8h10
			c3.2,0,5.8,2.6,5.8,5.8V29.5z"/>
		<path class="st5" d="M24.5,17.8c-3.7,0-6.7,3-6.7,6.7s3,6.7,6.7,6.7c3.7,0,6.7-3,6.7-6.7S28.2,17.8,24.5,17.8z M24.5,28.7
			c-2.3,0-4.2-1.9-4.2-4.2c0-2.3,1.9-4.2,4.2-4.2c2.3,0,4.2,1.9,4.2,4.2C28.7,26.8,26.8,28.7,24.5,28.7z"/>
		<path class="st5" d="M31.7,18.2c0.5,0,0.9-0.4,0.9-0.9c0-0.5-0.4-0.9-0.9-0.9c-0.5,0-0.9,0.4-0.9,0.9
			C30.8,17.8,31.2,18.2,31.7,18.2z"/>
	</g>
</g>
</g>
</defs>
<use x="0" y="0" xlink:href="#fb"/>
<use x="0" y="49" xlink:href="#fb1"/>
<use x="0" y="98" xlink:href="#tw"/>
<use x="0" y="147" xlink:href="#tw1"/>
<use x="0" y="196" xlink:href="#yt"/>
<use x="0" y="245" xlink:href="#yt1"/>
<use x="0" y="294" xlink:href="#inst"/>
<use x="0" y="343" xlink:href="#inst1"/>

</svg>