<?xml version="1.0" encoding="utf-8"?>
<!-- Generator: Adobe Illustrator 23.0.3, SVG Export Plug-In . SVG Version: 6.00 Build 0)  -->
<svg version="1.1" id="Layer_1" xmlns="http://www.w3.org/2000/svg" xmlns:xlink="http://www.w3.org/1999/xlink" x="0px" y="0px"
	 viewBox="0 0 83 83" style="enable-background:new 0 0 83 83;" xml:space="preserve">
<style type="text/css">
	.st0{fill:#FFFFFF;}
	.st1{fill:#8FD6BD;}
</style>
<g>
	<circle class="st0" cx="41.5" cy="41.5" r="41.5" stroke="#EDEEE2"/>
</g>
<path class="st1" d="M21.2,60.9h-3.8c-1.4,0-2.6-0.5-3.5-1.5c-0.9-1-1.3-2.3-1.1-3.6c0.1-1.3,0.8-2.6,1.8-3.5c1-0.9,2.3-1.4,3.7-1.4
	h4L21.2,60.9z M18.3,52.8c-0.8,0-1.7,0.3-2.3,0.9c-0.7,0.6-1.1,1.4-1.2,2.2c-0.1,0.8,0.1,1.5,0.6,2.1c0.5,0.5,1.2,0.8,2,0.8h2
	l0.6-6.1L18.3,52.8L18.3,52.8z"/>
<path class="st1" d="M64.7,60.9h-4l1.1-10.1h3.8c1.4,0,2.6,0.5,3.5,1.5c0.9,1,1.3,2.3,1.1,3.6c-0.1,1.3-0.8,2.6-1.8,3.5
	C67.3,60.4,66,60.9,64.7,60.9z M63,58.9h1.8c0.8,0,1.7-0.3,2.3-0.9c0.7-0.6,1.1-1.4,1.2-2.2c0.1-0.8-0.1-1.5-0.6-2.1
	c-0.5-0.5-1.2-0.8-2-0.8h-2L63,58.9z"/>
<path class="st1" d="M62.7,60.9H19.2l2.4-23.2c0.1-0.7,0.5-1.4,1.1-1.7c0.5-0.3,1-0.4,1.5-0.2c0.1,0,0.3,0.1,0.7,0.5l16.9,12.1
	c0.1,0.1,0.3,0.1,0.5,0l19.8-12.1c0.5-0.3,0.7-0.4,0.8-0.4c0.5-0.2,1.1,0,1.5,0.3c0.5,0.4,0.8,1.2,0.7,1.8L62.7,60.9z M21.4,58.9
	h39.6l2.2-21L43.3,50c-0.9,0.5-2,0.5-2.8-0.1L23.6,37.8c0,0,0,0.1,0,0.1L21.4,58.9z"/>
<path class="st1" d="M42,50.4c-0.5,0-1-0.2-1.4-0.4l-15-10.7L27.4,22h35.3l-1.8,17.3L43.3,50C42.9,50.3,42.5,50.4,42,50.4z
	 M27.7,38.3l14,10.1c0.1,0.1,0.3,0.1,0.5,0L59,38.1l1.5-14.1H29.2L27.7,38.3z"/>
<path class="st1" d="M55,29.8H33.7c-0.6,0-1-0.4-1-1c0-0.5,0.4-1,1-1H55c0.6,0,1,0.5,1,1C56,29.3,55.5,29.8,55,29.8z"/>
<path class="st1" d="M54.3,35.6H33.1c-0.5,0-1-0.4-1-1s0.5-1,1-1h21.2c0.5,0,1,0.4,1,1S54.9,35.6,54.3,35.6z"/>
</svg>
