<svg width="156" height="80" viewBox="0 0 156 80" fill="none" xmlns="http://www.w3.org/2000/svg">
<path fill-rule="evenodd" clip-rule="evenodd" d="M38.7276 8.86119C33.9903 12.5658 30.1786 17.8679 27.7276 24.1619C27.5376 24.7017 27.4676 25.505 27.6776 25.4171C55.3676 14.1204 52.2376 67.9304 26.1076 60.9264C25.4776 69.537 24.6076 73.4783 22.6076 78.8379C22.4676 79.227 22.0776 79.5534 21.8276 79.453C21.6929 79.4031 21.5781 79.2916 21.5059 79.1405C21.4336 78.9894 21.4093 78.8097 21.4376 78.6371C22.2776 72.8758 23.0376 67.1145 19.4976 60.5122C16.9076 55.7299 6.99757 57.4746 3.61757 52.6296C-5.72243 39.1489 4.33757 17.1831 18.8176 26.9108C17.3076 20.4717 15.9976 10.4302 18.9976 0.966057C19.0576 0.746267 19.1491 0.542086 19.2676 0.363567C19.6076 -0.100853 20.4176 0.363567 20.8876 0.602053C21.9976 1.04137 22.7176 1.98276 23.8176 2.43463C24.4976 3.35091 23.2876 4.21699 23.4876 5.74832C24.3876 4.2672 24.9676 2.35932 25.7976 0.727572C27.5193 1.36163 29.0291 2.68378 30.0976 4.49314C29.2676 7.00351 28.1776 9.2754 27.4476 11.949C29.0476 9.62686 32.5976 5.42198 35.9976 3.67726C37.3076 4.38017 38.7676 8.17084 38.7276 8.86119Z" fill="white"/>
<path d="M130.478 61.3527C130.698 60.6247 130.828 59.972 131.058 59.1938C131.198 58.6791 131.308 58.152 131.428 57.6373C131.658 56.6332 131.868 55.629 132.128 54.6374C132.388 53.6458 133.488 49.1272 133.598 48.5623C133.708 47.9975 133.858 47.3071 133.918 47.1189C134.298 45.7758 134.318 45.3993 134.658 43.8554C134.838 43.0646 135.228 41.2195 135.268 40.9935C135.358 40.504 135.778 38.7091 136.058 37.7928C136.218 37.2656 136.358 36.7887 136.528 36.274C136.66 35.8437 136.814 35.4245 136.988 35.0188C137.208 34.5168 137.218 34.4289 137.938 34.4415C138.289 34.4154 138.641 34.4365 138.988 34.5042C139.178 34.6799 139.198 35.2322 139.268 35.6841C139.398 36.5 139.458 37.3158 139.578 38.1317C139.698 38.9476 139.678 39.3869 139.758 40.4036C139.758 40.9684 139.858 41.6588 139.898 42.1358C139.938 42.6127 139.898 42.8638 139.898 43.165C139.919 43.583 139.919 44.0022 139.898 44.4202C139.898 44.847 139.978 45.3365 139.988 45.7758C140.058 47.3825 140.088 48.0602 140.208 49.1899C140.268 49.7799 140.278 50.3823 140.308 50.9848C140.358 51.9764 140.308 52.6291 140.408 53.6207C140.508 54.6123 140.408 55.3152 140.518 56.3947C140.646 57.8619 140.71 59.3369 140.708 60.813C140.708 62.5702 140.868 63.8882 140.908 65.6454C140.908 66.5994 140.978 67.5659 141.048 68.5198C141.048 68.9717 141.048 69.4235 141.158 70.5909C141.218 71.4319 141.248 71.7331 141.248 72.0218C141.248 72.3105 140.748 72.1599 140.248 72.1599H138.958H138.788C138.608 72.072 138.618 71.821 138.588 71.4067C138.528 70.1516 138.508 69.3984 138.468 68.1307C138.428 66.863 138.368 65.0304 138.348 63.838C138.328 62.6455 138.248 62.1058 138.218 60.7376C138.218 60.3234 138.158 59.1687 138.138 58.2273C138.138 56.0809 138.058 56.1688 138.038 54.9889C138.038 54.0098 137.888 53.6082 137.838 51.6124C137.838 50.5706 137.718 49.6543 137.668 48.6376C137.598 47.0435 137.558 46.8553 137.528 46.1273V45.1106C137.528 44.5081 137.528 44.3951 137.478 43.8554C137.496 43.6426 137.496 43.428 137.478 43.2152C137.478 42.9391 137.478 42.8889 137.388 42.8638C137.298 42.8387 137.258 43.3282 137.218 43.529C136.938 45.0227 136.818 45.4871 136.408 47.2946C136.188 48.3238 135.988 48.964 135.718 50.1815C135.448 51.399 135.298 51.9388 135.008 53.0308C134.898 53.445 134.468 55.2399 134.368 55.6541C134.088 56.7964 134.058 57.0976 133.758 58.2398L133.568 59.0431C133.448 59.495 132.958 61.7167 132.478 63.5242C132.288 64.2773 132.108 64.9425 131.878 65.6956C131.748 66.1099 131.278 66.3107 130.878 66.386C130.479 66.4928 130.067 66.4928 129.668 66.386C129.503 66.312 129.354 66.187 129.237 66.0225C129.12 65.8581 129.038 65.6594 128.998 65.4446C128.858 64.8045 128.638 64.3149 128.498 63.6748C128.318 62.8213 128.138 62.633 127.748 61.0263C127.678 60.7502 127.378 59.5578 127.278 59.1812C127.178 58.8047 126.998 58.1771 126.918 57.926C126.758 57.4616 126.338 55.8675 125.798 53.9973C125.588 53.1061 125.308 52.102 125.028 51.2359C124.748 50.3698 124.578 49.7924 124.348 49.077L123.998 47.872C123.788 47.1189 123.598 46.6168 123.358 45.826C123.248 45.462 122.818 44.0436 122.678 43.7047C122.678 44.1817 122.598 45.2612 122.588 45.6001C122.518 46.7046 122.488 47.7967 122.418 48.9012C122.418 49.0518 122.418 49.2652 122.418 49.4159C122.418 50.2694 122.288 51.0602 122.258 52.1396C122.258 52.9931 122.168 54.0098 122.128 54.8634C122.088 55.7169 122.128 56.2315 122.078 56.9595C122.078 58.3402 121.898 59.7084 121.898 60.7251C121.898 63.0598 121.748 63.9886 121.658 65.9843C121.568 67.9801 121.538 68.9591 121.418 71.1557C121.44 71.473 121.388 71.7915 121.268 72.072C121.158 72.2979 120.658 72.2226 120.428 72.2226C119.934 72.2548 119.439 72.2338 118.948 72.1599C118.788 72.0218 118.948 71.7959 118.948 71.2436C118.948 70.1767 119.128 68.6202 119.168 67.6663C119.228 66.2981 119.338 64.93 119.398 63.7752C119.458 62.6204 119.518 62.1309 119.538 61.1268C119.538 60.8883 119.538 60.2481 119.538 60.0096C119.538 59.4197 119.608 58.7545 119.638 58.1896C119.638 57.2859 119.708 56.9344 119.748 55.5412C119.748 54.8759 119.818 54.286 119.828 53.5705C119.938 51.9262 119.958 50.6836 120.008 49.1774C120.008 48.487 120.098 47.7213 120.138 47.0435C120.198 46.1022 120.198 45.2988 120.248 44.37C120.308 43.1148 120.338 42.4872 120.418 40.7174C120.488 39.7258 120.568 38.8346 120.628 38.207C120.738 37.0397 120.818 36.6004 120.878 35.8347C120.938 35.0691 121.058 34.8557 121.318 34.6674C121.575 34.5092 121.864 34.4482 122.148 34.4917C122.316 34.4788 122.485 34.4999 122.648 34.5544C123.058 34.7302 123.178 35.6213 123.328 36.0607C123.478 36.5 123.458 36.6506 123.638 37.3158C123.728 37.6296 123.818 38.069 123.958 38.571C124.098 39.0731 124.228 39.525 124.358 39.9517C124.488 40.3785 124.638 41.2069 124.808 41.7843C124.978 42.3617 125.018 42.5751 125.198 43.1399C125.378 43.7047 125.768 45.098 125.798 45.2235C125.968 45.7758 126.178 46.4787 126.358 46.9808C127.038 49.215 127.678 51.3488 127.748 51.5497C127.928 52.1145 128.008 52.5915 128.178 53.1563C128.348 53.7211 128.548 54.4115 128.748 55.1521C129.098 56.3068 129.338 57.3235 129.748 58.8047C129.928 59.382 130.278 60.6874 130.478 61.3527Z" fill="white"/>
<path d="M77.2874 36.839C77.2874 37.0523 77.2874 37.2783 77.1474 37.3159L76.2974 37.3787C75.3066 37.3652 74.3227 37.5866 73.3974 38.0314C72.9099 38.2452 72.4461 38.5363 72.0174 38.8975C71.6174 39.2784 71.2952 39.7731 71.0774 40.3409C70.8013 40.9452 70.5958 41.5962 70.4674 42.2739C70.2368 43.3855 70.0796 44.519 69.9974 45.6629C69.9974 46.3909 69.8173 47.5457 69.7773 48.2737C69.7073 49.6544 69.6274 51.3866 69.6174 52.7798C69.6074 54.1731 69.6174 55.5287 69.6174 56.9094C69.6174 58.1018 69.6973 59.0809 69.7673 60.2733C69.7673 60.9009 69.9273 62.382 70.0273 63.4741C70.0934 64.5657 70.3531 65.625 70.7874 66.5744C71.0328 67.0497 71.3365 67.4733 71.6874 67.8296C72.0447 68.2855 72.494 68.6109 72.9874 68.7709C73.8302 68.986 74.6964 69.0157 75.5474 68.8588C75.9829 68.7875 76.4139 68.6785 76.8374 68.5325C77.1874 68.4069 77.2874 69.0471 77.4274 69.4613C77.5674 69.8755 77.5274 69.9132 77.5974 70.1768C77.6767 70.4199 77.7369 70.6721 77.7774 70.9299C77.7774 71.0805 77.8774 71.1809 77.7774 71.2562C77.1007 71.6655 76.3738 71.9286 75.6274 72.0344C74.6915 72.1904 73.7432 72.1904 72.8074 72.0344C72.4113 71.9693 72.02 71.8643 71.6374 71.7206C70.4731 71.1799 69.4824 70.1745 68.8173 68.8588C68.3573 67.9106 68.0198 66.8769 67.8173 65.7961C67.5926 64.3305 67.4622 62.8446 67.4273 61.3528C67.4273 60.9009 67.4273 60.0976 67.3673 59.6708C67.3673 58.8173 67.2973 58.4156 67.2773 57.7504C67.2773 57.3864 67.2773 57.0851 67.2773 56.7211C67.2773 56.3571 67.2773 55.8802 67.2773 55.4659C67.2773 55.2526 67.2773 53.5204 67.2773 52.6167C67.2773 51.9263 67.3273 51.2109 67.2773 50.4954C67.2773 50.0561 67.2773 49.6419 67.2773 49.2402C67.2773 48.5122 67.3873 47.3323 67.4473 46.6043C67.5073 45.8763 67.5473 45.0228 67.6273 44.0939C67.7073 43.1651 67.8973 41.8221 68.0173 41.1568C68.1271 40.6259 68.2674 40.1057 68.4373 39.6004C68.5973 39.1485 68.8073 38.7092 68.9973 38.2699C69.2172 37.8538 69.4577 37.4556 69.7174 37.0774C70.0686 36.5306 70.5039 36.0781 70.9974 35.7469C72.7076 34.716 74.6075 34.2824 76.4974 34.4918C76.8674 34.4918 76.9874 34.8055 77.0974 35.2825C77.2074 35.7595 77.2174 36.3996 77.2874 36.839Z" fill="white"/>
<path d="M91.6473 70.1772C91.6473 69.8383 91.4773 68.3447 91.4273 67.9555C91.2573 66.7004 91.1873 65.8719 91.0473 64.5916C90.9373 63.6 90.7873 62.6461 90.6973 61.6419C90.5673 60.1859 90.3873 58.6546 90.2673 57.1986C90.1473 55.7426 90.0373 54.3744 89.8973 52.956C89.7273 51.2364 89.5473 49.5294 89.3473 47.8098C89.2273 46.7303 89.1273 45.7889 88.9973 44.7094C88.8673 43.63 88.7473 42.538 88.6373 41.5213C88.5273 40.5046 88.2473 39.0109 88.1273 37.944C88.0073 36.8771 87.9373 35.8227 87.7873 35.0947C87.7873 34.9315 87.6073 34.5926 87.4873 34.5675C86.7848 34.4496 86.0752 34.4117 85.3673 34.4546C84.7773 34.4546 84.6073 34.6805 84.4973 35.283C84.3873 35.8855 84.3373 36.5382 84.2173 37.4419C84.1473 37.9314 84.0473 38.6971 83.9973 39.149C83.8973 40.1531 83.8273 40.7054 83.6873 41.6593C83.6873 42.0484 83.5773 42.5129 83.5173 42.9145C83.4573 43.3162 83.3573 43.9814 83.3073 44.2701C83.1873 44.9354 82.8973 46.8935 82.7973 47.7847C82.6973 48.6758 82.4473 50.4206 82.4273 50.5837C82.3673 51.2364 82.3173 51.8389 82.2473 52.5293C82.2128 53.2151 82.1291 53.8957 81.9973 54.5627C81.8173 55.2405 81.6073 57.299 81.5473 57.6253C81.4373 58.2906 81.3573 59.0312 81.2473 59.6838C81.1373 60.3365 80.8773 62.1942 80.8173 62.6335C80.7073 63.4996 80.2573 66.5623 80.1373 67.3907C79.9373 68.6459 79.7673 69.7505 79.6373 70.6291C79.5335 71.1005 79.4698 71.5843 79.4473 72.0726C79.5773 72.2608 80.2473 72.1981 80.7573 72.1981C81.5473 72.1981 81.7573 72.1981 81.8973 71.6835C82.0873 70.6793 82.2673 69.4994 82.4373 68.0685C82.5373 67.2024 82.6773 66.3991 82.7773 65.5581C82.8571 64.8835 82.974 64.2167 83.1273 63.5624L84.7273 63.6753C86.2173 63.7758 88.4773 63.7758 88.4773 63.7758C88.5294 63.9666 88.563 64.1647 88.5773 64.3657C88.5773 64.8427 88.6673 65.3196 88.7073 65.7966C88.7473 66.2736 88.7973 66.8761 88.8573 67.4158C89.0273 69.1229 89.1273 70.3027 89.2973 71.6835C89.2973 72.1353 89.4073 72.2232 89.6673 72.2357C89.9273 72.2483 90.8273 72.2357 91.0073 72.2357C91.6073 72.2357 91.9273 72.3613 91.8373 71.6709C91.7773 71.332 91.7073 70.6165 91.6473 70.1772ZM88.2773 60.7508C87.2773 60.7508 86.0873 60.6754 85.0273 60.6001C84.4995 60.6024 83.9721 60.5689 83.4473 60.4997C83.4672 59.9203 83.5308 59.3445 83.6373 58.7801C83.8773 56.7467 84.1173 55.115 84.3373 53.2573C84.5773 51.1862 84.8273 49.1026 85.0973 46.9813C85.2373 45.9395 85.3873 44.6467 85.5373 43.517C85.5373 43.4041 85.8873 41.7472 86.0473 40.7682C86.0529 40.7007 86.0724 40.6363 86.104 40.5812C86.1356 40.5262 86.1781 40.4824 86.2273 40.4544C86.2873 40.4544 86.3673 40.4544 86.4373 40.8937C86.5573 41.81 86.6773 43.266 86.7573 44.1948C86.8673 45.5504 87.1873 48.9018 87.2673 49.4792C87.3473 50.0566 87.5673 52.5042 87.6073 53.0062C88.2573 60.6252 88.2273 59.6587 88.2773 60.7508Z" fill="white"/>
<path d="M65.7986 70.1772C65.7986 69.8383 65.6186 68.3447 65.5686 67.9556C65.3986 66.7004 65.3286 65.8719 65.1886 64.5916C65.0786 63.6 64.9286 62.6461 64.8386 61.642C64.7086 60.1859 64.5286 58.6546 64.4086 57.1986C64.2886 55.7426 64.1786 54.3744 64.0386 52.956C63.8686 51.2364 63.6886 49.5294 63.4986 47.8098C63.3686 46.7303 63.2686 45.7889 63.1386 44.7095C63.0086 43.63 62.8986 42.538 62.7786 41.5213C62.6586 40.5046 62.3986 39.0109 62.2686 37.944C62.1386 36.8771 62.0786 35.8227 61.9386 35.0947C61.9386 34.9315 61.7486 34.5926 61.6286 34.5675C60.9261 34.4496 60.2165 34.4117 59.5086 34.4546C58.9286 34.4546 58.7486 34.6805 58.6386 35.283C58.5286 35.8855 58.4886 36.5382 58.3586 37.4419C58.2886 37.9314 58.1886 38.6971 58.1386 39.149C58.0386 40.1531 57.9686 40.7054 57.8286 41.6593C57.8286 42.0485 57.7186 42.5129 57.6586 42.9145C57.5986 43.3162 57.4986 43.9814 57.4486 44.2701C57.3286 44.9354 57.0386 46.8935 56.9386 47.7847C56.8386 48.6759 56.5886 50.4206 56.5786 50.5837C56.5086 51.2364 56.4586 51.8389 56.3886 52.5293C56.3425 53.2036 56.2488 53.8715 56.1086 54.525C55.9286 55.2028 55.7186 57.2613 55.6586 57.5877C55.5486 58.2529 55.4686 58.9935 55.3586 59.6462C55.2486 60.2989 54.9886 62.1566 54.9286 62.5959C54.8186 63.462 54.3686 66.5246 54.2486 67.3531C54.0486 68.6082 53.8786 69.7128 53.7486 70.5914C53.6448 71.0628 53.5811 71.5467 53.5586 72.0349C53.6886 72.2232 54.3586 72.1604 54.8686 72.1604C55.6586 72.1604 55.9186 72.1604 56.0086 71.6458C56.1986 70.6417 56.3786 69.4618 56.5486 68.0309C56.6486 67.1648 56.7886 66.3615 56.8986 65.5205C56.9728 64.8457 57.0864 64.1786 57.2386 63.5247L58.8386 63.6377C60.3386 63.7381 62.5886 63.7381 62.5886 63.7381C62.6407 63.929 62.6743 64.1271 62.6886 64.3281C62.7386 64.805 62.7786 65.282 62.8186 65.759C62.8586 66.2359 62.9086 66.8384 62.9686 67.3782C63.1486 69.0852 63.2386 70.2651 63.4086 71.6458C63.4586 72.0977 63.5186 72.1855 63.7786 72.1981C64.0386 72.2106 64.9386 72.1981 65.1186 72.1981C65.7186 72.1981 66.0386 72.3236 65.9486 71.6333C65.9186 71.332 65.8486 70.6166 65.7986 70.1772ZM62.4186 60.7508C61.4186 60.7508 60.2286 60.6755 59.1686 60.6001C58.6442 60.6027 58.1201 60.5692 57.5986 60.4997C57.6056 59.9197 57.666 59.3427 57.7786 58.7801C58.0186 56.7467 58.2586 55.115 58.4786 53.2573C58.7186 51.1862 58.9686 49.1026 59.2386 46.9813C59.3786 45.9395 59.5286 44.6467 59.6886 43.517C59.6886 43.4041 60.0286 41.7472 60.1886 40.7682C60.1942 40.7007 60.2138 40.6363 60.2453 40.5812C60.2769 40.5262 60.3194 40.4824 60.3686 40.4544C60.4386 40.4544 60.5186 40.4544 60.5786 40.8937C60.6986 41.81 60.8186 43.266 60.8986 44.1948C61.0086 45.5504 61.3286 48.9018 61.4086 49.4792C61.4886 50.0566 61.7086 52.5042 61.7586 53.0063C62.3986 60.6252 62.3686 59.6588 62.4186 60.7508Z" fill="white"/>
<path d="M149.387 49.2908C149.717 48.0356 149.937 47.3704 150.137 46.5796C150.417 45.5504 150.507 45.1613 150.787 44.0692C151.117 42.8141 151.287 42.3245 151.437 41.5589C151.637 40.63 151.997 39.3748 152.127 38.7724C152.327 37.8435 152.647 36.5632 152.737 36.262C152.849 35.6562 153.02 35.0702 153.247 34.5173C153.247 34.442 153.347 34.4043 153.707 34.4043H155.417C155.747 34.4043 155.567 34.693 155.417 35.6595C155.267 36.626 154.987 37.5423 154.557 39.425C154.127 41.3078 153.937 41.9354 153.557 43.6174C153.057 45.5378 152.877 46.8307 152.397 48.7762C151.917 50.7217 151.557 52.1903 151.177 53.6589C151.162 53.9598 151.162 54.2617 151.177 54.5626C151.177 55.9433 151.177 55.9433 151.177 57.324C151.177 58.0018 151.177 58.3407 151.177 59.006C151.177 59.1943 151.177 59.8721 151.177 60.0603C151.145 60.7418 151.145 61.4249 151.177 62.1063C151.237 63.1356 151.177 63.738 151.287 65.4953C151.397 67.2526 151.477 69.5621 151.487 71.2943C151.487 71.947 151.607 72.2357 151.247 72.2106H149.847C149.586 72.2501 149.321 72.2246 149.067 72.1353C148.989 71.7244 148.955 71.3022 148.967 70.8801C148.887 69.1354 148.867 67.4032 148.797 65.6961C148.797 64.7673 148.797 64.7296 148.727 63.2987C148.727 62.4954 148.677 61.554 148.647 60.7884C148.647 59.257 148.517 58.4286 148.487 56.8973C148.487 56.0563 148.487 55.7802 148.397 55.027C148.397 55.027 148.007 53.7719 147.727 53.0815C147.197 51.7635 147.107 51.4498 146.727 50.4079C146.347 49.3661 145.787 48.1988 145.367 47.0942L145.117 46.3537C144.907 45.7638 144.717 45.0985 144.527 44.5588C144.397 44.1697 144.257 43.8559 144.077 43.4291C143.967 43.1906 143.957 43.0149 143.877 42.8141C143.797 42.6132 143.587 42.2116 143.487 41.8852C142.947 40.2284 142.887 39.8267 142.487 38.6468C142.105 37.6476 141.771 36.6207 141.487 35.5716C141.367 35.1198 141.137 34.6302 141.597 34.5424C142.1 34.4922 142.604 34.4922 143.107 34.5424C143.657 34.5424 143.897 34.442 144.037 34.8562C144.337 35.7599 144.637 36.513 144.967 37.4419C145.077 37.7556 145.427 38.697 145.517 38.9606C145.592 39.2058 145.678 39.4447 145.777 39.6761C145.841 39.8423 145.894 40.0143 145.937 40.1907C146.019 40.6718 146.175 41.1281 146.397 41.5338C146.542 41.8487 146.669 42.1758 146.777 42.5128C147.167 43.6299 147.527 44.747 147.947 45.8391C148.345 47.0406 148.827 48.1957 149.387 49.2908Z" fill="white"/>
<path d="M105.717 58.3282C105.717 57.6002 105.847 54.9392 105.847 54.6882C105.847 53.9351 105.727 53.2698 105.687 52.4539C105.617 50.91 105.597 49.2909 105.447 48.0357C105.289 46.8768 105.058 45.7353 104.757 44.6216C104.667 44.2952 104.597 43.9187 104.517 43.5798C104.334 42.6296 104.045 41.7169 103.657 40.8685C103.235 39.9916 102.763 39.1528 102.247 38.3582C101.597 37.3043 100.767 36.4466 99.8175 35.8478C99.3656 35.5182 98.8943 35.2329 98.4075 34.9943C98.0278 34.7778 97.628 34.6218 97.2175 34.5298C96.8866 34.4662 96.5522 34.4368 96.2175 34.442C95.5375 34.442 95.0875 34.442 94.7175 34.9441C94.3475 35.4461 94.3375 36.5758 94.3475 37.6051C94.3475 38.2954 94.3475 39.0109 94.3475 39.4753C94.3475 40.3916 94.3475 43.6049 94.3475 44.0191C94.2875 46.7805 94.3475 48.5503 94.3475 49.9687C94.3475 50.4707 94.3475 51.977 94.3475 52.228C94.4075 53.7593 94.3475 54.3869 94.3475 55.9936C94.3475 56.8471 94.3475 58.0772 94.3475 58.9307C94.3475 59.4202 94.3475 62.621 94.3475 62.6963C94.3475 63.9515 94.3475 65.0058 94.3475 66.3112C94.3475 66.9388 94.3475 68.4576 94.3475 68.9722C94.3113 69.7163 94.3113 70.4624 94.3475 71.2064C94.3643 71.491 94.4682 71.7564 94.6375 71.947C94.9905 72.1656 95.3871 72.2485 95.7775 72.1855C96.3415 72.2162 96.9066 72.191 97.4675 72.1102C98.1116 71.97 98.7331 71.6987 99.3075 71.3069C99.6275 71.1186 100.307 70.5914 100.677 70.3027C101.237 69.8726 101.763 69.3766 102.247 68.8216C102.929 68.0148 103.491 67.0629 103.907 66.01C104.45 64.7818 104.85 63.4632 105.097 62.0938C105.36 60.854 105.567 59.5969 105.717 58.3282ZM103.437 53.7844C103.437 54.638 103.437 55.253 103.437 56.6714C103.396 58.0519 103.259 59.4253 103.027 60.7758C102.901 61.7709 102.672 62.7413 102.347 63.6628C102.037 64.4563 101.64 65.1914 101.167 65.8468C100.608 66.7804 99.8906 67.5476 99.0675 68.0936C98.4104 68.5554 97.7166 68.9298 96.9975 69.2107C96.7875 69.2986 96.7575 69.2107 96.7575 68.9094C96.7575 67.9806 96.8175 66.5748 96.7575 65.8342C96.6975 65.0937 96.7575 64.0519 96.7575 63.3239C96.7575 62.3448 96.7575 61.3156 96.7575 60.3491C96.7575 59.1566 96.7575 58.2152 96.7575 57.0354C96.7575 56.1191 96.7575 54.9141 96.7575 53.9978C96.7575 52.8556 96.7575 52.3159 96.7575 51.1736C96.7575 50.7343 96.7575 49.2281 96.6975 48.8013C96.6975 47.2951 96.6975 47.0817 96.6975 45.8265C96.6975 44.7973 96.6975 44.245 96.6975 43.0777C96.6975 42.6635 96.7775 41.4459 96.7775 41.0317C96.7775 40.0778 96.8575 37.5297 96.8575 37.5297C97.8021 37.7056 98.7058 38.1336 99.5075 38.7849C100.33 39.4384 101.015 40.3292 101.507 41.3832C101.658 41.643 101.789 41.9204 101.897 42.2116C102.175 42.871 102.406 43.5598 102.587 44.2701C102.817 45.1613 102.937 46.0399 103.097 46.9437C103.203 47.5192 103.283 48.1017 103.337 48.6884C103.447 49.7929 103.447 50.4205 103.527 51.7134C103.377 51.8138 103.437 52.8932 103.437 53.7844Z" fill="white"/>
<path d="M110.847 68.8585C111.06 68.922 111.279 68.9431 111.497 68.9213C112.45 68.9991 113.405 68.9991 114.357 68.9213C114.999 68.8395 115.646 68.8395 116.287 68.9213C116.617 69.2978 116.457 69.2978 116.477 70.2518C116.477 70.4149 116.477 71.3438 116.477 71.5069C116.477 71.6701 116.477 72.1471 116.257 72.1345C116.037 72.122 115.257 72.0467 114.937 72.0718C114.067 72.0718 112.747 72.0718 112.197 72.0718C111.967 72.0718 111.027 72.0718 110.797 72.0718C110.047 72.1213 109.295 72.0962 108.547 71.9965C108.367 71.7078 108.547 71.5948 108.407 71.2434C108.333 70.0486 108.333 68.8483 108.407 67.6535C108.407 67.277 108.407 61.9173 108.337 60.5617C108.337 60.4362 108.337 60.3609 108.337 60.3107V60.1726C108.337 60.0596 108.337 60.022 108.337 59.8462C108.417 58.6915 108.337 55.9301 108.337 55.6414C108.407 54.9385 108.447 51.4992 108.457 50.8465C108.467 50.1938 108.457 46.0517 108.457 45.4994C108.396 44.2455 108.396 42.9879 108.457 41.7339C108.457 41.3824 108.387 38.5206 108.357 37.9683C108.305 37.2669 108.305 36.561 108.357 35.8596C108.357 35.4328 108.277 34.7676 108.547 34.6044C108.817 34.4412 109.137 34.3157 109.867 34.3785C109.937 34.3785 111.717 34.3785 111.777 34.3785C112.627 34.3157 114.127 34.3785 114.547 34.3785C115.157 34.3785 116.167 34.3785 116.767 34.3785C117.087 34.3785 116.997 35.232 116.967 35.709C116.967 35.8847 116.967 37.3156 116.867 37.4035C116.596 37.468 116.318 37.468 116.047 37.4035C115.597 37.4035 114.577 37.4035 114.237 37.3407C113.297 37.2838 112.355 37.3047 111.417 37.4035C111.027 37.4035 110.947 37.4035 110.987 37.9558C111.027 38.508 110.987 38.7214 110.987 39.211C110.987 39.4871 110.987 40.19 111.047 40.554C111.047 41.2067 111.047 42.4493 111.047 43.1773C111.047 43.9054 111.147 46.4032 111.187 47.2818C111.187 47.809 111.187 48.7504 111.187 49.2776C111.187 49.3905 111.187 49.5161 111.187 49.629C111.187 50.0683 111.187 50.0683 111.587 50.0809C111.987 50.0934 114.407 50.1938 114.957 50.0809C115.099 50.0468 115.244 50.0482 115.384 50.0848C115.525 50.1214 115.659 50.1926 115.777 50.2943C115.907 50.5202 115.777 51.0474 115.867 52.1017C115.867 52.3026 115.867 53.1435 115.747 53.2314C115.228 53.2661 114.707 53.2661 114.187 53.2314C113.647 53.2314 112.997 53.2314 112.457 53.1686C112.086 53.2355 111.712 53.2691 111.337 53.2691C111.127 53.2691 111.027 53.3444 111.047 53.608C111.047 54.336 110.987 55.4531 111.047 56.1936C111.047 56.5074 111.047 63.5114 111.047 64.139C111.047 65.3063 111.047 66.4611 111.047 67.6284C110.909 68.0148 110.841 68.4349 110.847 68.8585Z" fill="white"/>
<path d="M56.5766 21.7901C56.5766 21.5767 56.5766 20.0203 56.5766 19.8069C56.5766 19.5935 56.6266 17.4472 56.5766 17.1459C56.5616 16.7947 56.5616 16.4428 56.5766 16.0916C56.5766 15.6146 56.4966 13.0917 56.5766 12.9034C56.5766 12.2381 56.5066 10.3177 56.5166 10.0164C56.5266 9.7152 56.5166 9.38885 56.5166 9.06251C56.5166 8.73616 56.5166 8.34705 56.6166 8.17132C56.6861 8.07438 56.7764 8.00465 56.8766 7.97049C57.2346 7.84832 57.6064 7.80167 57.9766 7.83242C58.4552 7.82903 58.9254 7.98961 59.3366 8.29684C59.7926 8.65269 60.1679 9.14977 60.4266 9.74031C60.7368 10.5397 60.878 11.4258 60.8366 12.3134C60.7997 13.0453 60.6322 13.7574 60.3466 14.3971C60.1917 14.867 59.9639 15.2937 59.6766 15.6522C59.6016 15.7619 59.5098 15.8515 59.4066 15.9158L59.6566 16.1167C59.9683 16.4079 60.2446 16.7547 60.4766 17.1459C60.8515 17.7693 61.1112 18.4896 61.2366 19.2546C61.3913 20.0221 61.4719 20.8102 61.4766 21.6018C61.4816 22.4472 61.3165 23.2804 60.9966 24.0243C60.8262 24.3657 60.6174 24.6743 60.3766 24.9406C60.2017 25.1371 60.0106 25.3097 59.8066 25.4553C59.5981 25.6071 59.3767 25.7292 59.1466 25.8193C58.8461 25.939 58.5317 25.9941 58.2166 25.9824H56.9966C56.9266 25.9824 56.5666 25.9824 56.5466 25.6059C56.5466 25.518 56.5466 24.6143 56.5466 24.5013C56.5466 24.3883 56.5766 21.9407 56.5766 21.7901ZM57.7166 24.4135C57.7866 24.4135 58.3966 24.4135 58.4666 24.4135C58.8967 24.3169 59.2919 24.0535 59.5966 23.6603C59.9182 23.201 60.0834 22.6016 60.0566 21.9909C60.0566 21.6897 60.0566 21.2378 60.0566 20.9366C60.0441 20.2529 59.9358 19.5773 59.7366 18.9408C59.6013 18.4673 59.3826 18.0382 59.0966 17.6856L58.6966 17.1585C58.6418 17.0899 58.5774 17.0346 58.5066 16.9953C58.4185 16.9459 58.3231 16.9202 58.2266 16.92H57.6466C57.6466 17.1334 57.6466 17.3719 57.6466 17.5601C57.6466 18.3007 57.5866 18.9785 57.6466 19.7191C57.7066 20.4596 57.6466 20.9742 57.6466 21.652C57.6966 22.5558 57.6466 23.4344 57.7166 24.4135ZM57.7166 15.5016C57.872 15.4676 58.0233 15.4086 58.1666 15.3259C58.6737 14.9035 59.0538 14.2806 59.2466 13.5561C59.4102 13.1074 59.4922 12.6186 59.4866 12.1252C59.5065 11.5357 59.4211 10.9482 59.2366 10.4056C59.0183 9.99756 58.7035 9.68585 58.3366 9.51437C58.0666 9.3512 57.6566 9.51437 57.6466 9.87838C57.6366 10.2424 57.6466 10.9076 57.6466 11.2842C57.6466 11.6607 57.6466 12.2632 57.6466 12.6774C57.6466 13.2925 57.6466 14.0833 57.6466 14.9117C57.7066 15.0874 57.6766 15.238 57.6866 15.5016H57.7166Z" fill="white"/>
<path d="M63.9971 24.3873C64.0999 24.4056 64.2043 24.4056 64.3071 24.3873C64.7664 24.4307 65.2277 24.4307 65.6871 24.3873C65.9961 24.3433 66.3081 24.3433 66.6171 24.3873C66.7771 24.563 66.6971 24.563 66.7071 25.0274C66.7071 25.1027 66.7071 25.5546 66.7071 25.6425C66.7071 25.7303 66.7071 25.9563 66.5971 25.9437C66.4871 25.9312 66.1171 25.9437 65.9671 25.9437C65.5471 25.9437 64.9071 25.9437 64.6471 25.9437C64.3871 25.9437 64.0771 25.9437 63.9671 25.9437C63.6075 25.9747 63.2467 25.9747 62.8871 25.9437C62.7971 25.8056 62.8871 25.7429 62.8171 25.5797C62.7823 25.0031 62.7823 24.4241 62.8171 23.8475C62.8171 23.6718 62.8171 21.0861 62.8171 20.4334C62.8238 20.392 62.8238 20.3493 62.8171 20.3079C62.8171 20.3079 62.8171 20.2326 62.8171 20.1573C62.8171 19.5925 62.8171 18.262 62.8171 18.1239C62.8171 17.785 62.8671 16.1281 62.8771 15.8143C62.8871 15.5005 62.8771 13.5048 62.8771 13.2412C62.8502 12.6476 62.8502 12.0525 62.8771 11.4588C62.8771 11.2831 62.8771 9.91496 62.8771 9.65137C62.8513 9.31324 62.8513 8.97279 62.8771 8.63467C62.8771 8.42128 62.8771 8.10749 62.9671 8.01962C63.0571 7.93176 63.2471 7.869 63.5971 7.90666H64.5171C64.9271 7.90666 65.6471 7.90666 65.8571 7.90666C66.0671 7.90666 66.6371 7.90666 66.9271 7.90666C67.2171 7.90666 67.0371 8.32087 67.0271 8.5468C67.0171 8.77274 67.0271 9.32502 67.0271 9.36268C67.0271 9.40033 66.7471 9.36268 66.6271 9.36268C66.5071 9.36268 65.9171 9.36268 65.7571 9.36268C65.3044 9.31962 64.8498 9.31962 64.3971 9.36268C64.2071 9.36268 64.1771 9.36268 64.1871 9.62626C64.1971 9.88985 64.1871 9.99027 64.1871 10.2288C64.1871 10.4672 64.1871 10.7057 64.1871 10.8815C64.1871 11.0572 64.1871 11.7977 64.1871 12.1366C64.1871 12.4755 64.1871 13.6931 64.2571 14.1073C64.3271 14.5215 64.2571 14.8227 64.2571 15.0738C64.1609 15.1001 64.0716 15.1562 63.9971 15.237C63.9971 15.4503 63.9971 15.4503 64.1971 15.4629C64.3971 15.4754 65.5571 15.4629 65.8171 15.4629C65.9558 15.4294 66.0993 15.4655 66.2171 15.5633C66.2771 15.6763 66.2171 15.9273 66.2171 16.4294C66.2171 16.5298 66.2171 16.9315 66.1571 16.9817C66.0971 17.0319 65.5971 16.9817 65.4071 16.9817C65.1306 17.0004 64.8536 17.0004 64.5771 16.9817C64.3974 17.0013 64.2168 17.0013 64.0371 16.9817C63.9371 16.9817 63.8871 16.9817 63.8971 17.1574C63.8971 17.5088 63.8971 18.036 63.8971 18.4126C63.8971 18.5632 63.8971 21.9397 63.8971 22.1781C63.8971 22.7304 63.8971 23.2953 63.8971 23.8475C63.9108 24.0323 63.9444 24.2139 63.9971 24.3873Z" fill="white"/>
<path d="M69.2176 24.3873C69.3204 24.4056 69.4248 24.4056 69.5276 24.3873C69.987 24.4307 70.4483 24.4307 70.9076 24.3873C71.2166 24.3433 71.5286 24.3433 71.8376 24.3873C71.9976 24.563 71.9176 24.563 71.9276 25.0274C71.9276 25.1027 71.9276 25.5546 71.9276 25.6425C71.9276 25.7303 71.9276 25.9563 71.8176 25.9437C71.7076 25.9312 71.3376 25.9437 71.1876 25.9437C70.7676 25.9437 70.1276 25.9437 69.8576 25.9437C69.7476 25.9437 69.2976 25.9437 69.1876 25.9437C68.8281 25.9747 68.4672 25.9747 68.1076 25.9437C68.0176 25.8056 68.1076 25.7429 68.0376 25.5797C67.9979 25.0034 67.9979 24.4239 68.0376 23.8475C68.0376 23.6718 68.0376 21.0861 68.0376 20.4334C68.034 20.3917 68.034 20.3496 68.0376 20.3079C68.0376 20.3079 68.0376 20.2326 68.0376 20.1573C68.0376 19.5925 68.0376 18.262 68.0376 18.1239C68.0376 17.785 68.0876 16.1281 68.0976 15.8143C68.1076 15.5005 68.0976 13.5048 68.0976 13.2412C68.0656 12.6478 68.0656 12.0523 68.0976 11.4588C68.0976 11.2831 68.0976 9.91496 68.0976 9.65137C68.0715 9.31326 68.0715 8.97277 68.0976 8.63467C68.0976 8.42128 68.0976 8.10749 68.1876 8.01962C68.2776 7.93176 68.4776 7.869 68.8276 7.90666H69.7476C70.1576 7.90666 70.8776 7.90666 71.0776 7.90666C71.2776 7.90666 71.8676 7.90666 72.1576 7.90666C72.4476 7.90666 72.2676 8.32087 72.2476 8.5468C72.2276 8.77274 72.2476 9.32502 72.2476 9.36268C72.2476 9.40033 71.9676 9.36268 71.8476 9.36268C71.7276 9.36268 71.1376 9.36268 70.9676 9.36268C70.5183 9.31992 70.067 9.31992 69.6176 9.36268C69.4276 9.36268 69.3876 9.36268 69.4076 9.62626C69.4276 9.88985 69.4076 9.99027 69.4076 10.2288C69.4076 10.4672 69.4076 10.7057 69.4076 10.8815C69.4076 11.0572 69.4076 11.7977 69.4076 12.1366C69.4076 12.4755 69.4076 13.6931 69.4776 14.1073C69.5476 14.5215 69.4776 14.8227 69.4776 15.0738C69.4776 15.0738 69.4776 15.1867 69.4776 15.237C69.4776 15.2872 69.4776 15.4503 69.6676 15.4629C69.8576 15.4754 71.0376 15.4629 71.2976 15.4629C71.3647 15.4452 71.4338 15.445 71.5009 15.4623C71.568 15.4795 71.6316 15.5139 71.6876 15.5633C71.7576 15.6763 71.6876 15.9273 71.7376 16.4294C71.7376 16.5298 71.7376 16.9315 71.6776 16.9817C71.6176 17.0319 71.1176 16.9817 70.9276 16.9817C70.6478 17.0005 70.3674 17.0005 70.0876 16.9817C69.9113 17.0013 69.7339 17.0013 69.5576 16.9817C69.4476 16.9817 69.4076 16.9817 69.4076 17.1574C69.4076 17.5088 69.4076 18.036 69.4076 18.4126C69.4076 18.5632 69.4076 21.9397 69.4076 22.1781C69.4076 22.7304 69.4076 23.2953 69.4076 23.8475C69.3138 24.008 69.2489 24.1922 69.2176 24.3873Z" fill="white"/>
<path d="M87.8484 7.80704H88.1384C88.5586 7.83057 88.9646 8.00481 89.3084 8.30912C89.6371 8.5626 89.9226 8.89536 90.1484 9.28817C90.281 9.53134 90.398 9.78737 90.4984 10.0538C90.6162 10.3683 90.7197 10.691 90.8084 11.0203C90.8084 11.0203 90.8884 11.3592 90.8984 11.3718V11.5475C90.9884 12.0119 91.1184 13.1541 91.1584 13.6311C91.2384 14.5976 91.2484 15.4135 91.2584 15.903V16.2796C91.2584 16.5432 91.2584 17.949 91.2584 18.1372V18.2628C91.2584 18.6142 91.2584 19.518 91.2584 20.1706C91.2584 20.4091 91.1084 21.6141 91.0884 21.7145V21.8024C90.9813 22.4702 90.81 23.1193 90.5784 23.7354C90.3001 24.4297 89.8875 25.0253 89.3784 25.4675C88.9362 25.8092 88.4276 25.9916 87.9084 25.9947C87.6318 25.9978 87.3562 25.9556 87.0883 25.8692C86.6878 25.74 86.3153 25.4998 85.9983 25.1663C85.7375 24.8953 85.5174 24.568 85.3483 24.1998C85.0965 23.6031 84.8921 22.9767 84.7383 22.3296V22.1162C84.7383 21.9656 84.6783 21.8275 84.6583 21.7145C84.5883 21.2878 84.4683 20.1455 84.4483 19.8066C84.4283 19.4677 84.4483 17.7732 84.4483 17.5097C84.4483 17.2461 84.4483 16.8318 84.4483 16.5432C84.4483 16.2545 84.4483 16.016 84.4483 15.652C84.4483 15.288 84.4483 14.5474 84.4483 14.0453C84.4483 13.9449 84.4483 13.7943 84.4483 13.606C84.4483 13.1416 84.5283 12.5642 84.5683 12.3508C84.6583 11.6856 84.7583 11.0956 84.8283 10.7818C84.9719 10.1046 85.2428 9.48044 85.6184 8.96182C85.9887 8.37592 86.5135 7.9753 87.0983 7.83215C87.2664 7.78921 87.437 7.76402 87.6084 7.75684L87.8484 7.80704ZM88.6784 24.1245C89.0446 23.8871 89.3292 23.4898 89.4784 23.0074C89.6631 22.5311 89.8041 22.03 89.8984 21.5137V21.4509C89.8984 21.2752 90.0284 20.3087 90.0384 20.1958C90.0384 19.6058 90.0384 18.6895 90.0384 18.3381V18.2C90.0384 17.949 90.0384 16.7314 90.0384 16.5683C90.0384 16.4051 90.0384 16.2921 90.0384 16.0411C90.04 15.3283 90.01 14.6159 89.9484 13.9073C89.9013 13.2877 89.8279 12.6718 89.7284 12.0621V11.9492C89.5964 11.3423 89.4014 10.7599 89.1484 10.217C89.0223 10.0037 88.8664 9.82079 88.6884 9.67727C88.511 9.53215 88.3088 9.44182 88.0984 9.41368C87.9984 9.41368 87.8984 9.41368 87.7884 9.41368C87.6652 9.40058 87.5415 9.40058 87.4183 9.41368C87.0672 9.47561 86.7485 9.70484 86.5283 10.0538C86.3026 10.3774 86.1354 10.7585 86.0383 11.1709C86.0383 11.3216 85.9283 11.7358 85.8083 12.6019C85.8083 12.8152 85.7283 13.4177 85.6983 13.8571C85.6983 14.0328 85.6983 14.196 85.6983 14.3089C85.6788 14.7898 85.6788 15.2715 85.6983 15.7524C85.6983 16.1415 85.6983 16.4302 85.6983 16.6938C85.6983 16.9574 85.6983 17.3214 85.6983 17.585C85.6983 17.8485 85.6983 19.4301 85.6983 19.7062C85.6983 19.9824 85.8183 21.0367 85.8783 21.4133C85.8917 21.5362 85.9117 21.6578 85.9384 21.7773C85.9384 21.8903 85.9384 22.0032 86.0084 22.0911C86.1278 22.59 86.2852 23.0734 86.4784 23.5346C86.5716 23.7182 86.6824 23.8869 86.8083 24.0366C86.9884 24.2369 87.2047 24.3791 87.4384 24.4508C87.6211 24.4766 87.8056 24.4766 87.9884 24.4508C88.2327 24.4211 88.4686 24.3224 88.6784 24.1621V24.1245Z" fill="white"/>
<path d="M95.7577 7.83286H96.0477C96.4717 7.85184 96.882 8.0264 97.2277 8.33494C97.5508 8.58806 97.8324 8.91607 98.0577 9.30143C98.192 9.54774 98.3091 9.80811 98.4077 10.0796C98.5341 10.3894 98.6379 10.7129 98.7177 11.0461C98.7177 11.0461 98.8077 11.3725 98.8077 11.3976C98.8103 11.4561 98.8103 11.5148 98.8077 11.5733C98.8977 12.0252 99.0277 13.18 99.0677 13.6569C99.1477 14.6109 99.1577 15.4393 99.1677 15.9288C99.1607 16.05 99.1607 16.1717 99.1677 16.2928C99.1677 16.569 99.1677 17.9622 99.1677 18.1505V18.2886C99.1677 18.64 99.1677 19.5438 99.1077 20.1965C99.1077 20.4224 98.9577 21.6274 98.9377 21.7403V21.8282C98.8291 22.4956 98.658 23.1444 98.4277 23.7612C98.1499 24.4558 97.7372 25.0515 97.2277 25.4934C96.7822 25.8255 96.2758 26.0071 95.7577 26.0205C95.4819 26.0112 95.2073 25.9692 94.9377 25.895C94.5384 25.7649 94.1686 25.5199 93.8577 25.1796C93.5992 24.9105 93.3794 24.5879 93.2077 24.2256C92.9549 23.631 92.7537 23.004 92.6077 22.3554V22.142C92.571 22.0064 92.5409 21.8681 92.5177 21.7278C92.4577 21.301 92.3277 20.1714 92.3077 19.8199C92.2877 19.4685 92.3077 17.7865 92.3077 17.5355C92.3077 17.2844 92.3077 16.8577 92.3077 16.569C92.3077 16.2803 92.3077 16.0418 92.3077 15.6778C92.3034 15.1412 92.3235 14.6048 92.3677 14.0711C92.3677 13.9707 92.3677 13.8076 92.3677 13.6318C92.3677 13.1674 92.4577 12.5775 92.4977 12.3013C92.5877 11.6486 92.6777 11.0461 92.7577 10.7449C92.893 10.1065 93.1466 9.51731 93.4977 9.02529C93.8748 8.43685 94.4066 8.03634 94.9977 7.89562C95.1657 7.85269 95.3363 7.82749 95.5077 7.82031L95.7577 7.83286ZM96.5977 24.1503C96.9597 23.9096 97.2402 23.5129 97.3877 23.0332C97.574 22.549 97.7149 22.0393 97.8077 21.5144V21.4391C97.8077 21.2634 97.9377 20.3094 97.9477 20.1839C97.9477 19.594 97.9477 18.6651 97.9477 18.3262V18.1756C97.9477 17.9371 97.9477 16.7196 97.9477 16.5564C97.9477 16.3932 97.9477 16.2803 97.9477 16.0167C97.9477 15.5523 97.9477 14.7615 97.8577 13.8829C97.8081 13.2671 97.7313 12.6554 97.6277 12.0503C97.6277 12.0503 97.6277 11.9624 97.6277 11.9248C97.4931 11.329 97.3018 10.7559 97.0577 10.2177C96.9316 10.0044 96.7758 9.82151 96.5977 9.67799C96.4183 9.54053 96.2168 9.45478 96.0077 9.42695H95.3377C94.9873 9.5017 94.6689 9.7282 94.4377 10.0671C94.2129 10.3943 94.049 10.7802 93.9577 11.1968C93.855 11.663 93.7748 12.1367 93.7177 12.6151C93.7177 12.8411 93.6377 13.4436 93.6077 13.8703C93.6077 14.0586 93.6077 14.2218 93.6077 14.3222C93.6077 14.7615 93.6077 15.3765 93.6077 15.7782C93.6077 16.1799 93.6077 16.456 93.6077 16.7196C93.6077 16.9832 93.6077 17.3472 93.6077 17.6108C93.6077 17.8744 93.6077 19.4559 93.6077 19.732C93.6077 20.0082 93.7277 21.0625 93.7877 21.4391C93.7877 21.4391 93.7877 21.7152 93.8477 21.7905C93.9077 21.8659 93.8477 22.029 93.9177 22.1043C94.0407 22.6076 94.2014 23.0952 94.3977 23.5604C94.4847 23.7461 94.5924 23.9152 94.7177 24.0624C94.9003 24.2581 95.1156 24.3997 95.3477 24.4767C95.5305 24.502 95.7149 24.502 95.8977 24.4767C96.1445 24.4424 96.3829 24.3441 96.5977 24.188V24.1503Z" fill="white"/>
<path d="M80.5676 16.794C80.4576 16.794 80.4276 16.794 80.4276 16.8819C80.4276 17.1957 80.4276 17.4844 80.4276 17.7982C80.4276 18.4258 80.4276 18.8274 80.4276 19.455C80.4276 20.0826 80.4276 20.3337 80.4276 21.2374C80.4276 21.5261 80.4876 23.1202 80.4276 23.4842C80.3676 23.8482 80.4276 24.1118 80.4276 24.3879C80.4276 24.6641 80.4276 25.0281 80.4276 25.2038C80.4276 25.3795 80.4876 25.6054 80.4276 25.869C80.3676 26.1326 80.3376 25.869 80.2476 25.982C80.1576 26.095 79.3776 25.982 79.3276 25.982C79.2776 25.982 79.3276 25.1787 79.3276 24.9778C79.3276 24.777 79.3276 24.1745 79.3276 23.4465C79.3276 23.3336 79.3276 23.0574 79.3276 22.5553C79.3276 22.2792 79.3276 21.752 79.3276 21.3001C79.3276 20.8483 79.3276 20.7228 79.3276 20.045C79.3276 19.8943 79.3276 18.7898 79.3276 18.5889C79.3276 18.0869 79.3276 17.5848 79.3276 17.0827C79.3425 16.8153 79.3425 16.5468 79.3276 16.2794V14.7983C79.3124 14.4722 79.3124 14.1453 79.3276 13.8192C79.3421 13.5015 79.3421 13.183 79.3276 12.8653C79.3428 12.6691 79.3428 12.4715 79.3276 12.2753C79.3276 11.6729 79.2676 10.3675 79.2676 10.3298C79.3276 9.92814 79.2676 9.51393 79.3476 9.07462C79.3753 8.78745 79.4683 8.51637 79.6155 8.29379C79.7627 8.0712 79.9578 7.90652 80.1776 7.81943C80.4839 7.73467 80.8013 7.73467 81.1076 7.81943C81.5036 7.92292 81.872 8.15194 82.1776 8.48468C82.3376 8.67296 82.4576 8.88634 82.6176 9.07462C82.7811 9.32397 82.9065 9.60907 82.9876 9.91559C83.0476 10.0913 83.0776 10.267 83.1276 10.4553C83.2283 10.8617 83.2789 11.285 83.2776 11.7105C83.2874 12.225 83.23 12.7381 83.1076 13.2293C83.0038 13.739 82.8386 14.2258 82.6176 14.6728L82.4676 14.9614C82.2776 15.225 82.2676 15.3882 82.0676 15.6267C81.8676 15.8652 81.6076 16.179 81.6376 16.2292C81.7376 16.8442 81.9876 17.2584 82.1076 17.886C82.2276 18.5136 82.4476 19.2165 82.5876 19.8943C82.7276 20.5721 82.8276 20.8357 83.0076 21.6516C83.1381 22.159 83.2483 22.6742 83.3376 23.1955C83.4676 23.798 83.5576 24.1745 83.7076 24.7645C83.7995 25.0427 83.8438 25.342 83.8376 25.6431C83.8376 25.9192 83.4776 25.8565 83.2176 25.8565C83.0623 25.8932 82.9029 25.8932 82.7476 25.8565C82.5558 25.3929 82.4273 24.8923 82.3676 24.3754C82.3676 24.3754 81.9076 22.0909 81.7476 21.4257C81.5876 20.7604 81.2776 19.3546 81.1676 18.8274C81.0374 18.2418 80.8771 17.6674 80.6876 17.1078C80.6276 17.0325 80.6276 16.9572 80.5676 16.794ZM80.4276 14.2836C80.413 14.5972 80.413 14.9115 80.4276 15.225C80.4276 15.3631 80.4776 15.4008 80.5776 15.3506C80.7478 15.263 80.8939 15.1146 80.9976 14.9238C81.2547 14.506 81.4823 14.0608 81.6776 13.5933C81.861 13.208 81.9832 12.7817 82.0376 12.3381C82.1033 11.9238 82.1033 11.4972 82.0376 11.0829C81.9888 10.778 81.8863 10.4907 81.7376 10.2419C81.6255 10.0498 81.4906 9.8805 81.3376 9.73987C81.1883 9.60817 81.0101 9.53799 80.8276 9.53904C80.7576 9.53904 80.5076 9.53904 80.4676 9.61435C80.4431 9.79295 80.4431 9.97548 80.4676 10.1541C80.4676 10.4428 80.4676 10.8193 80.4676 11.1206C80.5189 11.9561 80.5189 12.7954 80.4676 13.6309C80.4448 13.8642 80.4314 14.0989 80.4276 14.3339V14.2836Z" fill="white"/>
<path d="M76.1781 12.1624C76.1781 12.9783 76.0781 19.6936 76.0881 19.6936C76.0981 19.6936 76.0881 20.7103 76.0881 20.7479C76.0881 20.7856 76.0881 21.5261 76.0881 22.5679V24.7143C76.0881 24.7771 76.0881 25.0909 76.0881 25.5302C76.0933 25.6389 76.0933 25.7479 76.0881 25.8565C76.0981 25.8888 76.0981 25.9247 76.0881 25.957C76.0881 25.957 75.9781 25.957 75.8381 25.957H75.4481C75.0181 25.957 74.9781 25.957 74.9781 25.957V25.0532C74.9781 24.6265 74.9781 23.9612 74.9781 23.5595C74.9781 23.1579 74.9781 22.5052 74.9781 22.0784C74.9781 22.0784 75.0481 20.9111 75.0581 20.3212C75.0581 20.2082 75.0581 20.0827 75.0581 19.9572C75.0581 19.3798 75.0581 18.8149 75.0581 18.2375C75.0581 17.6602 75.0581 17.3589 75.0581 16.8694C75.0581 16.3799 75.0581 15.9782 75.0581 15.5389C75.0581 15.3757 75.0581 15.2125 75.0581 15.0619C75.0581 14.5598 75.0581 13.9197 75.0581 13.4302C75.0581 13.2419 75.0581 13.0536 75.0581 12.8653C75.0581 12.4009 75.0581 11.9365 75.0581 11.4721C75.0581 11.3842 75.0581 10.9951 75.0581 10.7692C75.0831 10.3514 75.0831 9.93179 75.0581 9.51398C74.8792 9.47808 74.6969 9.47808 74.5181 9.51398C74.2181 9.51398 74.0881 9.51398 73.6481 9.51398C73.4261 9.55732 73.2001 9.55732 72.9781 9.51398C72.9612 9.2592 72.9612 9.0031 72.9781 8.74832C72.9422 8.50352 72.9422 8.25255 72.9781 8.00776C73.1568 7.97007 73.3393 7.97007 73.5181 8.00776C74.0481 8.00776 74.3081 8.00776 74.7781 8.00776C75.2481 8.00776 75.6781 8.00776 76.1781 8.00776C76.6781 8.00776 77.0381 8.00776 77.4181 8.00776C77.5381 8.00776 77.8881 8.00776 78.3581 8.00776C78.6481 8.00776 78.4981 8.15838 78.5381 8.47218C78.585 8.79587 78.585 9.12753 78.5381 9.45122C78.3551 9.53088 78.1615 9.56499 77.9681 9.55164C77.6081 9.55164 77.4981 9.55164 76.9081 9.55164H76.3481C76.3481 9.82778 76.3481 10.4679 76.3481 11.083C76.1581 10.9951 76.1781 12.1624 76.1781 12.1624Z" fill="white"/>
<path d="M102.457 12.163C102.457 12.9788 102.357 19.6941 102.367 19.6941C102.377 19.6941 102.367 20.7108 102.367 20.7485C102.367 20.7861 102.367 21.5267 102.367 22.5685V24.7149C102.367 24.7776 102.367 25.0914 102.367 25.5307C102.373 25.6394 102.373 25.7484 102.367 25.8571C102.377 25.8894 102.377 25.9252 102.367 25.9575C102.367 25.9575 102.257 25.9575 102.117 25.9575H101.727C101.297 25.9575 101.257 25.9575 101.257 25.9575V23.5224C101.257 23.0957 101.257 22.4681 101.257 22.0413C101.257 22.0413 101.327 20.874 101.337 20.284C101.337 20.1711 101.337 20.0456 101.337 19.92C101.337 19.3427 101.337 18.7778 101.337 18.2004C101.337 17.623 101.337 17.3218 101.337 16.8323C101.337 16.3428 101.337 15.9411 101.337 15.5018C101.337 15.3386 101.337 15.1754 101.337 15.0248C101.337 14.5227 101.337 13.8826 101.337 13.3931C101.337 13.2048 101.337 13.0165 101.337 12.8282C101.337 12.3638 101.337 11.8994 101.337 11.435C101.337 11.3471 101.337 10.958 101.337 10.7321C101.362 10.3143 101.362 9.89468 101.337 9.47687C101.159 9.44097 100.976 9.44097 100.797 9.47687C100.497 9.47687 100.367 9.47687 99.9274 9.47687C99.7054 9.52021 99.4794 9.52021 99.2574 9.47687C99.2405 9.22209 99.2405 8.96599 99.2574 8.71121C99.2215 8.46641 99.2215 8.21545 99.2574 7.97065C99.4361 7.93296 99.6186 7.93296 99.7974 7.97065C100.327 7.97065 100.587 7.97065 101.057 7.97065C101.527 7.97065 101.957 7.97065 102.457 7.97065C102.957 7.97065 103.317 7.97065 103.697 7.97065C103.817 7.97065 104.177 7.97065 104.637 7.97065C104.927 7.97065 104.777 8.12127 104.817 8.43507C104.864 8.75876 104.864 9.09042 104.817 9.41411C104.634 9.49377 104.441 9.52788 104.247 9.51453C103.887 9.51453 103.777 9.51453 103.187 9.51453H102.627C102.627 9.79067 102.627 10.4308 102.627 11.0459C102.447 10.9957 102.457 12.163 102.457 12.163Z" fill="white"/>
</svg>
