<svg width="26" height="25" viewBox="0 0 26 25" fill="none" xmlns="http://www.w3.org/2000/svg">
<path d="M12.5422 13.7261C16.2023 13.7261 19.18 10.7791 19.18 7.156C19.18 3.5336 16.2023 0.585938 12.5422 0.585938C8.88198 0.585938 5.9043 3.53289 5.9043 7.156C5.9043 10.7791 8.88198 13.7261 12.5422 13.7261ZM12.5422 2.73665C15.0049 2.73665 17.0076 4.71939 17.0076 7.15671C17.0076 9.59404 15.0042 11.5768 12.5422 11.5768C10.0794 11.5768 8.07671 9.59404 8.07671 7.15671C8.07671 4.71939 10.0794 2.73665 12.5422 2.73665Z" fill="#FF6D54"/>
<path d="M4.61783 18.3434C4.83738 17.7252 5.4296 17.3099 6.09187 17.3099H19.2203C19.8876 17.3099 20.482 17.7302 20.6986 18.3549L22.9772 24.9328H25.0355C25.1077 24.7169 25.1164 24.4789 25.0362 24.2473L22.7533 17.658C22.2355 16.1634 20.8156 15.1599 19.2203 15.1599H6.09187C4.50878 15.1599 3.09324 16.1527 2.56819 17.6315L0.0519983 24.7176C0.0267209 24.7891 0.010111 24.8606 0 24.9328H2.27786L4.61783 18.3434Z" fill="#FF6D54"/>
<path d="M7.5521 20.9408C6.97867 20.7671 6.37057 21.0851 6.19435 21.652L5.22875 24.7576C5.21069 24.8162 5.2013 24.8749 5.19336 24.9335H7.44738L8.2707 22.2852C8.44692 21.717 8.12554 21.1152 7.5521 20.9408Z" fill="#FF6D54"/>
<path d="M18.8925 21.6519C18.7163 21.0851 18.1089 20.7671 17.5347 20.9408C16.9613 21.1152 16.6392 21.717 16.8161 22.2845L17.6394 24.9327H19.8935C19.8855 24.8741 19.8761 24.8155 19.8581 24.7569L18.8925 21.6519Z" fill="#FF6D54"/>
</svg>
